<svg xmlns="http://www.w3.org/2000/svg" xmlns:xlink="http://www.w3.org/1999/xlink" width="202.838" height="86.936" viewBox="0 0 202.838 86.936">
  <defs>
    <filter id="Rectangle_641" x="32.838" y="10.437" width="170" height="69" filterUnits="userSpaceOnUse">
      <feOffset input="SourceAlpha"/>
      <feGaussianBlur stdDeviation="3" result="blur"/>
      <feFlood flood-opacity="0.161"/>
      <feComposite operator="in" in2="blur"/>
      <feComposite in="SourceGraphic"/>
    </filter>
    <filter id="Path_1700" x="0" y="0" width="86.936" height="86.936" filterUnits="userSpaceOnUse">
      <feOffset input="SourceAlpha"/>
      <feGaussianBlur stdDeviation="3" result="blur-2"/>
      <feFlood flood-opacity="0.161"/>
      <feComposite operator="in" in2="blur-2"/>
      <feComposite in="SourceGraphic"/>
    </filter>
    <filter id="Path_233" x="7.5" y="7.5" width="71.937" height="71.937" filterUnits="userSpaceOnUse">
      <feOffset input="SourceAlpha"/>
      <feGaussianBlur stdDeviation="3" result="blur-3"/>
      <feFlood flood-opacity="0.161"/>
      <feComposite operator="in" in2="blur-3"/>
      <feComposite in="SourceGraphic"/>
    </filter>
  </defs>
  <g id="Component_30_109" data-name="Component 30 – 109" transform="translate(9 9)">
    <g transform="matrix(1, 0, 0, 1, -9, -9)" filter="url(#Rectangle_641)">
      <rect id="Rectangle_641-2" data-name="Rectangle 641" width="152" height="51" rx="20" transform="translate(41.84 19.44)" fill="#fff"/>
    </g>
    <g transform="matrix(1, 0, 0, 1, -9, -9)" filter="url(#Path_1700)">
      <path id="Path_1700-2" data-name="Path 1700" d="M34.468,0A34.468,34.468,0,1,1,0,34.468,34.468,34.468,0,0,1,34.468,0Z" transform="translate(9 9)" fill="#fff"/>
    </g>
    <text id="Surprise_Gift_1_000_pts" data-name="Surprise Gift 1,000 pts" transform="translate(79.953 32.468)" fill="#83937b" font-size="14" font-family="Roboto-Regular, Roboto" letter-spacing="0.02em"><tspan x="0" y="0">Surprise Gift</tspan><tspan font-size="12" font-family="Roboto-Light, Roboto" font-weight="300"><tspan x="0" y="15">1,000 pts</tspan></tspan></text>
    <g id="Group_2068" data-name="Group 2068" transform="translate(61.437 61.437) rotate(180)">
      <g transform="matrix(-1, 0, 0, -1, 70.44, 70.44)" filter="url(#Path_233)">
        <path id="Path_233-2" data-name="Path 233" d="M26.968,0A26.968,26.968,0,1,1,0,26.968,26.968,26.968,0,0,1,26.968,0Z" transform="translate(70.44 70.44) rotate(180)" fill="#fff"/>
      </g>
      <g id="Group_3999" data-name="Group 3999" transform="translate(37.164 40.378) rotate(180)">
        <g id="Group_327" data-name="Group 327">
          <rect id="Rectangle_183" data-name="Rectangle 183" width="20.732" height="15.851" rx="4" transform="translate(0 6.295)" fill="none" stroke="#83937b" stroke-linecap="round" stroke-linejoin="round" stroke-width="2"/>
          <path id="Path_266" data-name="Path 266" d="M1315.72,3368.823l-.06-.141a4.651,4.651,0,0,1,3.345-5.93h0a5.434,5.434,0,0,1,5.748,1.727" transform="translate(-1310.506 -3362.528)" fill="none" stroke="#83937b" stroke-linecap="round" stroke-linejoin="round" stroke-width="2"/>
        </g>
        <line id="Line_164" data-name="Line 164" x2="3.888" transform="translate(8.424 14.22)" fill="none" stroke="#83937b" stroke-linecap="round" stroke-linejoin="round" stroke-width="2"/>
      </g>
    </g>
    <g id="Group_3607" data-name="Group 3607" transform="translate(24.021 18.811)">
      <g id="Group_76" data-name="Group 76" transform="translate(8.816)">
        <path id="Path_89" data-name="Path 89" d="M2877.25,7598.291" transform="translate(-2877.25 -7598.291)" fill="none" stroke="#001890" stroke-linecap="round" stroke-linejoin="round" stroke-width="2"/>
      </g>
    </g>
  </g>
</svg>