<?xml version="1.0" encoding="utf-8"?>
<!-- Generator: Adobe Illustrator 21.0.2, SVG Export Plug-In . SVG Version: 6.00 Build 0)  -->
<svg version="1.1" id="Layer_1" xmlns="http://www.w3.org/2000/svg" xmlns:xlink="http://www.w3.org/1999/xlink" x="0px" y="0px"
	 viewBox="0 0 258 258" style="enable-background:new 0 0 258 258;" xml:space="preserve">
<style type="text/css">
	.st0{fill:#FFFFFF;fill-opacity:0;}
	.st1{opacity:2.400000e-02;fill:#FCFCFD;enable-background:new    ;}
	.st2{opacity:4.900000e-02;fill:#F9F9FB;enable-background:new    ;}
	.st3{opacity:7.300000e-02;fill:#F6F7F8;enable-background:new    ;}
	.st4{opacity:9.800000e-02;fill:#F3F4F6;enable-background:new    ;}
	.st5{opacity:0.122;fill:#F0F1F4;enable-background:new    ;}
	.st6{opacity:0.146;fill:#EDEEF2;enable-background:new    ;}
	.st7{opacity:0.171;fill:#EAECF0;enable-background:new    ;}
	.st8{opacity:0.195;fill:#E7E9EE;enable-background:new    ;}
	.st9{opacity:0.22;fill:#E4E6EB;enable-background:new    ;}
	.st10{opacity:0.244;fill:#E1E3E9;enable-background:new    ;}
	.st11{opacity:0.268;fill:#DFE0E7;enable-background:new    ;}
	.st12{opacity:0.293;fill:#DCDEE5;enable-background:new    ;}
	.st13{opacity:0.317;fill:#D9DBE3;enable-background:new    ;}
	.st14{opacity:0.341;fill:#D6D8E1;enable-background:new    ;}
	.st15{opacity:0.366;fill:#D3D5DE;enable-background:new    ;}
	.st16{opacity:0.39;fill:#D0D3DC;enable-background:new    ;}
	.st17{opacity:0.415;fill:#CDD0DA;enable-background:new    ;}
	.st18{opacity:0.439;fill:#CACDD8;enable-background:new    ;}
	.st19{opacity:0.463;fill:#C7CAD6;enable-background:new    ;}
	.st20{opacity:0.488;fill:#C4C7D4;enable-background:new    ;}
	.st21{opacity:0.512;fill:#C1C5D1;enable-background:new    ;}
	.st22{opacity:0.537;fill:#BEC2CF;enable-background:new    ;}
	.st23{opacity:0.561;fill:#BBBFCD;enable-background:new    ;}
	.st24{opacity:0.585;fill:#B8BCCB;enable-background:new    ;}
	.st25{opacity:0.61;fill:#B5B9C9;enable-background:new    ;}
	.st26{opacity:0.634;fill:#B2B7C7;enable-background:new    ;}
	.st27{opacity:0.659;fill:#AFB4C4;enable-background:new    ;}
	.st28{opacity:0.683;fill:#ACB1C2;enable-background:new    ;}
	.st29{opacity:0.707;fill:#A9AEC0;enable-background:new    ;}
	.st30{opacity:0.732;fill:#A6ACBE;enable-background:new    ;}
	.st31{opacity:0.756;fill:#A4A9BC;enable-background:new    ;}
	.st32{opacity:0.78;fill:#A1A6BA;enable-background:new    ;}
	.st33{opacity:0.805;fill:#9EA3B7;enable-background:new    ;}
	.st34{opacity:0.829;fill:#9BA0B5;enable-background:new    ;}
	.st35{opacity:0.854;fill:#989EB3;enable-background:new    ;}
	.st36{opacity:0.878;fill:#959BB1;enable-background:new    ;}
	.st37{opacity:0.902;fill:#9298AF;enable-background:new    ;}
	.st38{opacity:0.927;fill:#8F95AD;enable-background:new    ;}
	.st39{opacity:0.951;fill:#8C93AA;enable-background:new    ;}
	.st40{opacity:0.976;fill:#8990A8;enable-background:new    ;}
	.st41{fill:#868DA6;}
	.st42{fill:url(#SVGID_1_);}
</style>
<g transform="translate(-3232.002 1147.212)">
	<g transform="translate(0 0)">
		
			<ellipse transform="matrix(0.7071 -0.7071 0.7071 0.7071 1703.7289 2078.574)" class="st0" cx="3360.9" cy="-1017.3" rx="108.2" ry="139.2"/>
		
			<ellipse transform="matrix(0.7111 -0.7031 0.7031 0.7111 1686.6177 2068.3354)" class="st1" cx="3360.1" cy="-1018.2" rx="106.9" ry="137.3"/>
		
			<ellipse transform="matrix(0.7155 -0.6986 0.6986 0.7155 1667.6443 2057.0386)" class="st2" cx="3359.4" cy="-1018.9" rx="105.8" ry="135.3"/>
		
			<ellipse transform="matrix(0.7198 -0.6942 0.6942 0.7198 1649.0273 2045.7537)" class="st3" cx="3358.6" cy="-1019.8" rx="104.6" ry="133.4"/>
		
			<ellipse transform="matrix(0.7239 -0.6899 0.6899 0.7239 1631.2484 2034.7806)" class="st4" cx="3357.8" cy="-1020.7" rx="103.5" ry="131.5"/>
		
			<ellipse transform="matrix(0.7287 -0.6849 0.6849 0.7287 1610.3868 2021.9604)" class="st5" cx="3357" cy="-1021.4" rx="102.4" ry="129.7"/>
		
			<ellipse transform="matrix(0.7331 -0.6801 0.6801 0.7331 1590.9729 2009.7476)" class="st6" cx="3356.2" cy="-1022.3" rx="101.3" ry="127.8"/>
		
			<ellipse transform="matrix(0.7379 -0.6749 0.6749 0.7379 1570.0291 1996.5381)" class="st7" cx="3355.4" cy="-1023.1" rx="100.2" ry="126"/>
		
			<ellipse transform="matrix(0.7426 -0.6697 0.6697 0.7426 1549.009 1983.1122)" class="st8" cx="3354.7" cy="-1023.9" rx="99.2" ry="124.2"/>
		
			<ellipse transform="matrix(0.7474 -0.6644 0.6644 0.7474 1527.9263 1969.3022)" class="st9" cx="3353.8" cy="-1024.7" rx="98.1" ry="122.3"/>
		
			<ellipse transform="matrix(0.7521 -0.6591 0.6591 0.7521 1507.2258 1955.6593)" class="st10" cx="3353.1" cy="-1025.6" rx="97.1" ry="120.6"/>
		
			<ellipse transform="matrix(0.7572 -0.6532 0.6532 0.7572 1484.3239 1940.4302)" class="st11" cx="3352.3" cy="-1026.4" rx="96.1" ry="118.8"/>
		
			<ellipse transform="matrix(0.7623 -0.6472 0.6472 0.7623 1461.5463 1925.037)" class="st12" cx="3351.5" cy="-1027.2" rx="95.1" ry="117.1"/>
		
			<ellipse transform="matrix(0.7675 -0.641 0.641 0.7675 1437.9894 1908.9471)" class="st13" cx="3350.7" cy="-1028" rx="94.2" ry="115.4"/>
		
			<ellipse transform="matrix(0.7727 -0.6348 0.6348 0.7727 1414.4805 1892.6201)" class="st14" cx="3350" cy="-1028.8" rx="93.3" ry="113.8"/>
		
			<ellipse transform="matrix(0.778 -0.6282 0.6282 0.778 1390.2437 1875.481)" class="st15" cx="3349.2" cy="-1029.6" rx="92.4" ry="112.1"/>
		
			<ellipse transform="matrix(0.7834 -0.6215 0.6215 0.7834 1365.7134 1857.8866)" class="st16" cx="3348.4" cy="-1030.5" rx="91.6" ry="110.5"/>
		
			<ellipse transform="matrix(0.7887 -0.6148 0.6148 0.7887 1341.3623 1840.1414)" class="st17" cx="3347.7" cy="-1031.3" rx="90.8" ry="109"/>
		
			<ellipse transform="matrix(0.7944 -0.6073 0.6073 0.7944 1314.7887 1820.4547)" class="st18" cx="3346.8" cy="-1032.1" rx="89.9" ry="107.3"/>
		
			<ellipse transform="matrix(0.7999 -0.6001 0.6001 0.7999 1289.3219 1801.297)" class="st19" cx="3346" cy="-1032.9" rx="89.2" ry="105.9"/>
		
			<ellipse transform="matrix(0.8055 -0.5926 0.5926 0.8055 1263.3523 1781.4364)" class="st20" cx="3345.4" cy="-1033.8" rx="88.6" ry="104.5"/>
		
			<ellipse transform="matrix(0.8112 -0.5847 0.5847 0.8112 1236.2487 1760.2842)" class="st21" cx="3344.5" cy="-1034.6" rx="87.8" ry="103"/>
		
			<ellipse transform="matrix(0.817 -0.5767 0.5767 0.817 1209.0736 1738.7196)" class="st22" cx="3343.7" cy="-1035.4" rx="87.2" ry="101.6"/>
		
			<ellipse transform="matrix(0.8227 -0.5684 0.5684 0.8227 1181.5782 1716.4916)" class="st23" cx="3342.9" cy="-1036.2" rx="86.6" ry="100.2"/>
		
			<ellipse transform="matrix(0.8285 -0.5599 0.5599 0.8285 1153.6713 1693.5122)" class="st24" cx="3342.1" cy="-1037" rx="86" ry="98.9"/>
		
			<ellipse transform="matrix(0.8344 -0.5512 0.5512 0.8344 1125.4285 1669.7983)" class="st25" cx="3341.3" cy="-1037.9" rx="85.5" ry="97.6"/>
		
			<ellipse transform="matrix(0.8402 -0.5422 0.5422 0.8402 1096.8589 1645.3411)" class="st26" cx="3340.6" cy="-1038.7" rx="85" ry="96.3"/>
		
			<ellipse transform="matrix(0.8461 -0.5331 0.5331 0.8461 1068.1721 1620.2717)" class="st27" cx="3339.8" cy="-1039.5" rx="84.5" ry="95.1"/>
		
			<ellipse transform="matrix(0.852 -0.5236 0.5236 0.852 1038.9679 1594.2491)" class="st28" cx="3339" cy="-1040.3" rx="84.1" ry="94"/>
		
			<ellipse transform="matrix(0.8578 -0.5139 0.5139 0.8578 1009.6276 1567.551)" class="st29" cx="3338.2" cy="-1041.2" rx="83.8" ry="92.9"/>
		
			<ellipse transform="matrix(0.8638 -0.5039 0.5039 0.8638 979.6438 1539.7113)" class="st30" cx="3337.5" cy="-1042" rx="83.5" ry="91.8"/>
		
			<ellipse transform="matrix(0.8695 -0.4939 0.4939 0.8695 950.4945 1511.9777)" class="st31" cx="3336.7" cy="-1042.8" rx="83.2" ry="90.8"/>
		
			<ellipse transform="matrix(0.8751 -0.484 0.484 0.8751 921.9907 1484.2549)" class="st32" cx="3335.9" cy="-1043.7" rx="83" ry="89.8"/>
		
			<ellipse transform="matrix(0.881 -0.473 0.473 0.881 890.7653 1453.3387)" class="st33" cx="3335.1" cy="-1044.5" rx="82.8" ry="88.8"/>
		
			<ellipse transform="matrix(0.8867 -0.4624 0.4624 0.8867 861.0779 1423.1886)" class="st34" cx="3334.3" cy="-1045.3" rx="82.7" ry="88"/>
		
			<ellipse transform="matrix(0.8924 -0.4512 0.4512 0.8924 830.6329 1391.5498)" class="st35" cx="3333.5" cy="-1046.1" rx="82.6" ry="87.1"/>
		
			<ellipse transform="matrix(0.8978 -0.4403 0.4403 0.8978 801.5235 1360.5917)" class="st36" cx="3332.7" cy="-1046.9" rx="82.6" ry="86.4"/>
		
			<ellipse transform="matrix(0.9032 -0.4291 0.4291 0.9032 771.9843 1328.4149)" class="st37" cx="3331.9" cy="-1047.8" rx="82.6" ry="85.6"/>
		
			<ellipse transform="matrix(0.9086 -0.4177 0.4177 0.9086 742.4085 1295.4629)" class="st38" cx="3331.2" cy="-1048.6" rx="82.7" ry="85"/>
		
			<ellipse transform="matrix(0.9139 -0.406 0.406 0.9139 712.7635 1261.6252)" class="st39" cx="3330.4" cy="-1049.4" rx="82.9" ry="84.4"/>
		
			<ellipse transform="matrix(0.9189 -0.3944 0.3944 0.9189 684.0457 1227.9907)" class="st40" cx="3329.6" cy="-1050.2" rx="83" ry="83.8"/>
		
			<ellipse transform="matrix(0.7071 -0.7071 0.7071 0.7071 1718.1893 2045.9867)" class="st41" cx="3328.8" cy="-1051" rx="83.3" ry="83.3"/>
	</g>
	
		<radialGradient id="SVGID_1_" cx="3225.7883" cy="-887.1793" r="3.058" gradientTransform="matrix(45.734 0 0 -45.734 -144209.7344 -41640.7422)" gradientUnits="userSpaceOnUse">
		<stop  offset="0.107" style="stop-color:#FFFFFF"/>
		<stop  offset="0.375" style="stop-color:#FCFCFC"/>
		<stop  offset="0.568" style="stop-color:#F2F3F4"/>
		<stop  offset="0.738" style="stop-color:#E2E3E7"/>
		<stop  offset="0.894" style="stop-color:#CCCED4"/>
		<stop  offset="1" style="stop-color:#B9BBC4"/>
	</radialGradient>
	<circle class="st42" cx="3332.8" cy="-1049" r="93.7"/>
</g>
</svg>
