<?xml version="1.0" standalone="no"?>
<!DOCTYPE svg PUBLIC "-//W3C//DTD SVG 1.1//EN" "http://www.w3.org/Graphics/SVG/1.1/DTD/svg11.dtd" >
<svg xmlns="http://www.w3.org/2000/svg" xmlns:xlink="http://www.w3.org/1999/xlink" version="1.1">
<metadata>
Created by FontForge 20191125 at Wed Jan 23 15:06:36 2019
 By convertio
Copyright 2019 Dinamo \(Johannes Breyer, Fabian Harb\). All rights reserved.
</metadata>
<defs>
<font id="FavoritPro-Bold" horiz-adv-x="600" >
  <font-face 
    font-family="Favorit Pro"
    font-weight="700"
    font-stretch="normal"
    units-per-em="1000"
    panose-1="2 0 0 6 3 0 0 2 0 4"
    ascent="780"
    descent="-220"
    x-height="500"
    cap-height="700"
    bbox="-725 -310 2182 1016"
    underline-thickness="50"
    underline-position="-100"
    stemh="120"
    stemv="130"
    unicode-range="U+000D-FB02"
  />
<missing-glyph 
d="M70 0v700h500v-700h-500zM175 105h290v490h-290v-490z" />
    <glyph glyph-name="f_f" unicode="ff" horiz-adv-x="731" 
d="M123 0v395h-102v105h102v70c0 85 45 130 130 130h143v-108h-88c-45 0 -55 -10 -55 -55v-37h205v70c0 85 45 130 130 130h143v-108h-88c-45 0 -55 -10 -55 -55v-37h118v-105h-118v-395h-130v395h-205v-395h-130z" />
    <glyph glyph-name="f_f_i" unicode="ffi" horiz-adv-x="990" 
d="M123 0v395h-102v105h102v70c0 85 45 130 130 130h143v-108h-88c-45 0 -55 -10 -55 -55v-37h205v70c0 85 45 130 130 130h143v-108h-88c-45 0 -55 -10 -55 -55v-37h335v-500h-130v395h-205v-395h-130v395h-205v-395h-130zM788 565v135h140v-135h-140z" />
    <glyph glyph-name="f_f_l" unicode="ffl" horiz-adv-x="990" 
d="M123 0v395h-102v105h102v70c0 85 45 130 130 130h143v-108h-88c-45 0 -55 -10 -55 -55v-37h205v70c0 85 45 130 130 130h335v-700h-130v592h-150c-45 0 -55 -10 -55 -55v-37h118v-105h-118v-395h-130v395h-205v-395h-130z" />
    <glyph glyph-name="fi" unicode="fi" horiz-adv-x="655" 
d="M123 0v395h-102v105h102v70c0 85 45 130 130 130h143v-108h-88c-45 0 -55 -10 -55 -55v-37h335v-500h-130v395h-205v-395h-130zM453 565v135h140v-135h-140z" />
    <glyph glyph-name="fl" unicode="fl" horiz-adv-x="655" 
d="M123 0v395h-102v105h102v70c0 85 45 130 130 130h335v-700h-130v592h-150c-45 0 -55 -10 -55 -55v-37h118v-105h-118v-395h-130z" />
    <glyph glyph-name=".notdef" 
d="M70 0v700h500v-700h-500zM175 105h290v490h-290v-490z" />
    <glyph glyph-name="CR" unicode="&#xd;" horiz-adv-x="234" 
 />
    <glyph glyph-name="space" unicode=" " horiz-adv-x="234" 
 />
    <glyph glyph-name="A" unicode="A" horiz-adv-x="713" 
d="M564 0l-63 165h-294l-63 -165h-142l277 700h158l270 -700h-143zM253 285h202l-101 265z" />
    <glyph glyph-name="Aacute" unicode="&#xc1;" horiz-adv-x="713" 
d="M508 890l-105 -145h-90l40 145h155zM564 0l-63 165h-294l-63 -165h-142l277 700h158l270 -700h-143zM253 285h202l-101 265z" />
    <glyph glyph-name="Abreve" unicode="&#x102;" horiz-adv-x="713" 
d="M358 740c-98 0 -168 59 -170 150h110c4 -37 30 -55 60 -55s56 18 60 55h110c-2 -91 -72 -150 -170 -150zM564 0l-63 165h-294l-63 -165h-142l277 700h158l270 -700h-143zM253 285h202l-101 265z" />
    <glyph glyph-name="Acircumflex" unicode="&#xc2;" horiz-adv-x="713" 
d="M358 803l-80 -58h-110l120 145h140l120 -145h-110zM564 0l-63 165h-294l-63 -165h-142l277 700h158l270 -700h-143zM253 285h202l-101 265z" />
    <glyph glyph-name="Adieresis" unicode="&#xc4;" horiz-adv-x="713" 
d="M323 885v-120h-125v120h125zM518 885v-120h-125v120h125zM564 0l-63 165h-294l-63 -165h-142l277 700h158l270 -700h-143zM253 285h202l-101 265z" />
    <glyph glyph-name="uni0226" unicode="&#x226;" horiz-adv-x="713" 
d="M428 900v-135h-140v135h140zM564 0l-63 165h-294l-63 -165h-142l277 700h158l270 -700h-143zM253 285h202l-101 265z" />
    <glyph glyph-name="uni1EA0" unicode="&#x1ea0;" horiz-adv-x="713" 
d="M707 0h-143l-63 165h-294l-63 -165h-142l277 700h158zM253 285h202l-101 265zM289 -195v130h130v-130h-130z" />
    <glyph glyph-name="Agrave" unicode="&#xc0;" horiz-adv-x="713" 
d="M407 745h-90l-105 145h155zM564 0l-63 165h-294l-63 -165h-142l277 700h158l270 -700h-143zM253 285h202l-101 265z" />
    <glyph glyph-name="Amacron" unicode="&#x100;" horiz-adv-x="713" 
d="M525 875v-110h-335v110h335zM564 0l-63 165h-294l-63 -165h-142l277 700h158l270 -700h-143zM253 285h202l-101 265z" />
    <glyph glyph-name="Aogonek" unicode="&#x104;" horiz-adv-x="713" 
d="M706 0c-33 -19 -80 -50 -80 -90c0 -35 25 -50 50 -50h30v-80h-50c-70 0 -120 42 -120 100s38 97 76 120h-48l-63 165h-294l-63 -165h-142l277 700h158l270 -700h-1zM253 285h202l-101 265z" />
    <glyph glyph-name="Aring" unicode="&#xc5;" horiz-adv-x="713" 
d="M358 730c-57 0 -110 47 -110 110c0 57 53 110 110 110c63 0 110 -53 110 -110c0 -63 -47 -110 -110 -110zM359 880c-21 0 -40 -19 -40 -40s19 -40 40 -40s39 19 39 40s-18 40 -39 40zM564 0l-63 165h-294l-63 -165h-142l277 700h158l270 -700h-143zM253 285h202l-101 265
z" />
    <glyph glyph-name="Aringacute" unicode="&#x1fa;" horiz-adv-x="713" 
d="M463 1016l-62 -88h-79l16 88h125zM358 729c-51 0 -89 38 -89 89s38 89 89 89s89 -38 89 -89s-38 -89 -89 -89zM358 852c-18 0 -34 -16 -34 -34s16 -34 34 -34s33 16 33 34s-15 34 -33 34zM564 0l-63 165h-294l-63 -165h-142l277 700h158l270 -700h-143zM253 285h202
l-101 265z" />
    <glyph glyph-name="Atilde" unicode="&#xc3;" horiz-adv-x="713" 
d="M294 800c-21 2 -31 -17 -31 -40h-95v26c0 62 49 114 112 114c37 0 56 -10 75 -20l18 -10c16 -8 33 -20 49 -20c21 0 30 17 30 40h95v-26c0 -62 -33 -114 -110 -114c-25 0 -50 8 -80 24l-18 10c-16 9 -29 16 -45 16zM564 0l-63 165h-294l-63 -165h-142l277 700h158
l270 -700h-143zM253 285h202l-101 265z" />
    <glyph glyph-name="AE" unicode="&#xc6;" horiz-adv-x="991" 
d="M-5 0l365 700h548v-120h-343l24 -161h289v-120h-274l26 -179h338v-120h-455l-24 165h-264l-83 -165h-147zM286 285h186l-41 287z" />
    <glyph glyph-name="AEacute" unicode="&#x1fc;" horiz-adv-x="991" 
d="M585 745l40 145h155l-105 -145h-90zM-5 0l365 700h548v-120h-343l24 -161h289v-120h-274l26 -179h338v-120h-455l-24 165h-264l-83 -165h-147zM286 285h186l-41 287z" />
    <glyph glyph-name="uni01E2" unicode="&#x1e2;" horiz-adv-x="991" 
d="M462 765v110h335v-110h-335zM-5 0l365 700h548v-120h-343l24 -161h289v-120h-274l26 -179h338v-120h-455l-24 165h-264l-83 -165h-147zM286 285h186l-41 287z" />
    <glyph glyph-name="B" unicode="B" horiz-adv-x="667" 
d="M82 0v700h310c135 0 215 -81 215 -181c0 -85 -50 -144 -118 -164c73 -15 133 -74 133 -169c0 -105 -90 -186 -220 -186h-320zM217 413h155c65 0 100 29 100 84s-35 83 -100 83h-155v-167zM217 120h165c65 0 105 29 105 89s-40 88 -105 88h-165v-177z" />
    <glyph glyph-name="C" unicode="C" horiz-adv-x="711" 
d="M379 -10c-215 0 -335 145 -335 360s120 360 335 360c185 0 284 -108 294 -240h-135c-15 76 -69 120 -154 120h-10c-115 0 -195 -90 -195 -240s80 -240 195 -240h10c85 0 139 42 154 120h135c-10 -137 -109 -240 -294 -240z" />
    <glyph glyph-name="Cacute" unicode="&#x106;" horiz-adv-x="711" 
d="M336 745l40 145h155l-105 -145h-90zM379 -10c-215 0 -335 145 -335 360s120 360 335 360c185 0 284 -108 294 -240h-135c-15 76 -69 120 -154 120h-10c-115 0 -195 -90 -195 -240s80 -240 195 -240h10c85 0 139 42 154 120h135c-10 -137 -109 -240 -294 -240z" />
    <glyph glyph-name="Ccaron" unicode="&#x10c;" horiz-adv-x="711" 
d="M451 745h-140l-120 145h110l80 -58l80 58h110zM384 110c85 0 139 42 154 120h135c-10 -137 -109 -240 -294 -240c-215 0 -335 145 -335 360s120 360 335 360c185 0 284 -108 294 -240h-135c-15 76 -69 120 -154 120h-10c-115 0 -195 -90 -195 -240s80 -240 195 -240h10z
" />
    <glyph glyph-name="Ccedilla" unicode="&#xc7;" horiz-adv-x="711" 
d="M384 110c85 0 139 42 154 120h135c-9 -128 -97 -226 -259 -239v-36c50 0 95 -30 95 -95s-50 -105 -120 -105h-80v75h85c25 0 40 10 40 30c0 15 -10 30 -35 30h-55v101c-193 15 -300 156 -300 359c0 215 120 360 335 360c185 0 284 -108 294 -240h-135
c-15 76 -69 120 -154 120h-10c-115 0 -195 -90 -195 -240s80 -240 195 -240h10z" />
    <glyph glyph-name="Ccircumflex" unicode="&#x108;" horiz-adv-x="711" 
d="M381 803l-80 -58h-110l120 145h140l120 -145h-110zM384 110c85 0 139 42 154 120h135c-10 -137 -109 -240 -294 -240c-215 0 -335 145 -335 360s120 360 335 360c185 0 284 -108 294 -240h-135c-15 76 -69 120 -154 120h-10c-115 0 -195 -90 -195 -240s80 -240 195 -240
h10z" />
    <glyph glyph-name="Cdotaccent" unicode="&#x10a;" horiz-adv-x="711" 
d="M311 765v135h140v-135h-140zM379 -10c-215 0 -335 145 -335 360s120 360 335 360c185 0 284 -108 294 -240h-135c-15 76 -69 120 -154 120h-10c-115 0 -195 -90 -195 -240s80 -240 195 -240h10c85 0 139 42 154 120h135c-10 -137 -109 -240 -294 -240z" />
    <glyph glyph-name="D" unicode="D" horiz-adv-x="721" 
d="M82 0v700h240c210 0 355 -120 355 -350s-140 -350 -350 -350h-245zM217 120h95c135 0 230 55 230 230s-95 230 -230 230h-95v-460z" />
    <glyph glyph-name="Eth" unicode="&#xd0;" horiz-adv-x="753" 
d="M354 700c210 0 355 -120 355 -350s-140 -350 -350 -350h-245v290h-98v120h98v290h240zM344 120c135 0 230 55 230 230s-95 230 -230 230h-95v-170h127v-120h-127v-170h95z" />
    <glyph glyph-name="Dcaron" unicode="&#x10e;" horiz-adv-x="721" 
d="M399 745h-140l-120 145h110l80 -58l80 58h110zM322 700c210 0 355 -120 355 -350s-140 -350 -350 -350h-245v700h240zM312 120c135 0 230 55 230 230s-95 230 -230 230h-95v-460h95z" />
    <glyph glyph-name="Dcroat" unicode="&#x110;" horiz-adv-x="753" 
d="M354 700c210 0 355 -120 355 -350s-140 -350 -350 -350h-245v290h-98v120h98v290h240zM344 120c135 0 230 55 230 230s-95 230 -230 230h-95v-170h127v-120h-127v-170h95z" />
    <glyph glyph-name="E" unicode="E" horiz-adv-x="661" 
d="M82 0v700h530v-120h-395v-161h335v-120h-335v-179h405v-120h-540z" />
    <glyph glyph-name="Eacute" unicode="&#xc9;" horiz-adv-x="661" 
d="M313 745l40 145h155l-105 -145h-90zM82 0v700h530v-120h-395v-161h335v-120h-335v-179h405v-120h-540z" />
    <glyph glyph-name="Ebreve" unicode="&#x114;" horiz-adv-x="661" 
d="M358 740c-98 0 -168 59 -170 150h110c4 -37 30 -55 60 -55s56 18 60 55h110c-2 -91 -72 -150 -170 -150zM82 0v700h530v-120h-395v-161h335v-120h-335v-179h405v-120h-540z" />
    <glyph glyph-name="Ecaron" unicode="&#x11a;" horiz-adv-x="661" 
d="M428 745h-140l-120 145h110l80 -58l80 58h110zM217 120h405v-120h-540v700h530v-120h-395v-161h335v-120h-335v-179z" />
    <glyph glyph-name="Ecircumflex" unicode="&#xca;" horiz-adv-x="661" 
d="M358 803l-80 -58h-110l120 145h140l120 -145h-110zM217 120h405v-120h-540v700h530v-120h-395v-161h335v-120h-335v-179z" />
    <glyph glyph-name="Edieresis" unicode="&#xcb;" horiz-adv-x="661" 
d="M198 765v120h125v-120h-125zM393 765v120h125v-120h-125zM82 0v700h530v-120h-395v-161h335v-120h-335v-179h405v-120h-540z" />
    <glyph glyph-name="Edotaccent" unicode="&#x116;" horiz-adv-x="661" 
d="M288 765v135h140v-135h-140zM82 0v700h530v-120h-395v-161h335v-120h-335v-179h405v-120h-540z" />
    <glyph glyph-name="uni1EB8" unicode="&#x1eb8;" horiz-adv-x="661" 
d="M82 0v700h530v-120h-395v-161h335v-120h-335v-179h405v-120h-540zM287 -195v130h130v-130h-130z" />
    <glyph glyph-name="Egrave" unicode="&#xc8;" horiz-adv-x="661" 
d="M317 745l-105 145h155l40 -145h-90zM82 0v700h530v-120h-395v-161h335v-120h-335v-179h405v-120h-540z" />
    <glyph glyph-name="Emacron" unicode="&#x112;" horiz-adv-x="661" 
d="M190 765v110h335v-110h-335zM82 0v700h530v-120h-395v-161h335v-120h-335v-179h405v-120h-540z" />
    <glyph glyph-name="Eogonek" unicode="&#x118;" horiz-adv-x="661" 
d="M622 0c-33 -19 -80 -50 -80 -90c0 -35 25 -50 50 -50h30v-80h-50c-70 0 -120 42 -120 100s38 97 76 120h-446v700h530v-120h-395v-161h335v-120h-335v-179h405v-120z" />
    <glyph glyph-name="F" unicode="F" horiz-adv-x="616" 
d="M82 0v700h510v-120h-375v-180h325v-120h-325v-280h-135z" />
    <glyph glyph-name="G" unicode="G" horiz-adv-x="747" 
d="M378 -10c-205 0 -335 155 -335 360s135 360 345 360c180 0 290 -105 300 -250h-135c-10 75 -60 130 -160 130h-10c-130 0 -205 -95 -205 -240s75 -240 205 -240h10c86 0 162 47 185 128l2 7h-192v120h220c55 0 85 -30 85 -85v-280h-115v68c-41 -44 -105 -78 -200 -78z
" />
    <glyph glyph-name="Gbreve" unicode="&#x11e;" horiz-adv-x="747" 
d="M391 740c-98 0 -168 59 -170 150h110c4 -37 30 -55 60 -55s56 18 60 55h110c-2 -91 -72 -150 -170 -150zM378 -10c-205 0 -335 155 -335 360s135 360 345 360c180 0 290 -105 300 -250h-135c-10 75 -60 130 -160 130h-10c-130 0 -205 -95 -205 -240s75 -240 205 -240h10
c86 0 162 47 185 128l2 7h-192v120h220c55 0 85 -30 85 -85v-280h-115v68c-41 -44 -105 -78 -200 -78z" />
    <glyph glyph-name="Gcircumflex" unicode="&#x11c;" horiz-adv-x="747" 
d="M391 803l-80 -58h-110l120 145h140l120 -145h-110zM608 365c55 0 85 -30 85 -85v-280h-115v68c-41 -44 -105 -78 -200 -78c-205 0 -335 155 -335 360s135 360 345 360c180 0 290 -105 300 -250h-135c-10 75 -60 130 -160 130h-10c-130 0 -205 -95 -205 -240
s75 -240 205 -240h10c86 0 162 47 185 128l2 7h-192v120h220z" />
    <glyph glyph-name="uni0122" unicode="&#x122;" horiz-adv-x="747" 
d="M378 -10c-205 0 -335 155 -335 360s135 360 345 360c180 0 290 -105 300 -250h-135c-10 75 -60 130 -160 130h-10c-130 0 -205 -95 -205 -240s75 -240 205 -240h10c86 0 162 47 185 128l2 7h-192v120h220c55 0 85 -30 85 -85v-280h-115v68c-41 -44 -105 -78 -200 -78z
M298 -310v75h23c37 0 54 16 54 39v1h-52v130h130v-130c0 -67 -52 -115 -127 -115h-28z" />
    <glyph glyph-name="Gdotaccent" unicode="&#x120;" horiz-adv-x="747" 
d="M321 765v135h140v-135h-140zM378 -10c-205 0 -335 155 -335 360s135 360 345 360c180 0 290 -105 300 -250h-135c-10 75 -60 130 -160 130h-10c-130 0 -205 -95 -205 -240s75 -240 205 -240h10c86 0 162 47 185 128l2 7h-192v120h220c55 0 85 -30 85 -85v-280h-115v68
c-41 -44 -105 -78 -200 -78z" />
    <glyph glyph-name="G.ss03" horiz-adv-x="742" 
d="M387 365h305v-119c0 -150 -125 -256 -305 -256c-210 0 -345 155 -345 360s135 360 345 360c180 0 290 -105 300 -250h-135c-10 75 -60 130 -160 130h-10c-130 0 -205 -95 -205 -240s75 -240 205 -240h10c95 0 165 51 165 131v4h-170v120z" />
    <glyph glyph-name="Gbreve.ss03" horiz-adv-x="742" 
d="M387 740c-98 0 -168 59 -170 150h110c4 -37 30 -55 60 -55s56 18 60 55h110c-2 -91 -72 -150 -170 -150zM387 365h305v-119c0 -150 -125 -256 -305 -256c-210 0 -345 155 -345 360s135 360 345 360c180 0 290 -105 300 -250h-135c-10 75 -60 130 -160 130h-10
c-130 0 -205 -95 -205 -240s75 -240 205 -240h10c95 0 165 51 165 131v4h-170v120z" />
    <glyph glyph-name="Gcircumflex.ss03" horiz-adv-x="742" 
d="M387 803l-80 -58h-110l120 145h140l120 -145h-110zM387 365h305v-119c0 -150 -125 -256 -305 -256c-210 0 -345 155 -345 360s135 360 345 360c180 0 290 -105 300 -250h-135c-10 75 -60 130 -160 130h-10c-130 0 -205 -95 -205 -240s75 -240 205 -240h10
c95 0 165 51 165 131v4h-170v120z" />
    <glyph glyph-name="uni0122.ss03" horiz-adv-x="742" 
d="M387 365h305v-119c0 -150 -125 -256 -305 -256c-210 0 -345 155 -345 360s135 360 345 360c180 0 290 -105 300 -250h-135c-10 75 -60 130 -160 130h-10c-130 0 -205 -95 -205 -240s75 -240 205 -240h10c95 0 165 51 165 131v4h-170v120zM322 -195v130h130v-130
c0 -67 -52 -115 -127 -115h-28v75h23c37 0 54 16 54 39v1h-52z" />
    <glyph glyph-name="Gdotaccent.ss03" horiz-adv-x="742" 
d="M457 900v-135h-140v135h140zM387 365h305v-119c0 -150 -125 -256 -305 -256c-210 0 -345 155 -345 360s135 360 345 360c180 0 290 -105 300 -250h-135c-10 75 -60 130 -160 130h-10c-130 0 -205 -95 -205 -240s75 -240 205 -240h10c95 0 165 51 165 131v4h-170v120z" />
    <glyph glyph-name="H" unicode="H" horiz-adv-x="739" 
d="M82 0v700h135v-290h305v290h135v-700h-135v290h-305v-290h-135z" />
    <glyph glyph-name="Hbar" unicode="&#x126;" horiz-adv-x="757" 
d="M726 607v-115h-60v-492h-135v290h-305v-290h-135v492h-60v115h60v93h135v-93h305v93h135v-93h60zM531 410v82h-305v-82h305z" />
    <glyph glyph-name="Hcircumflex" unicode="&#x124;" horiz-adv-x="739" 
d="M370 803l-80 -58h-110l120 145h140l120 -145h-110zM522 700h135v-700h-135v290h-305v-290h-135v700h135v-290h305v290z" />
    <glyph glyph-name="I" unicode="I" horiz-adv-x="299" 
d="M82 0v700h135v-700h-135z" />
    <glyph glyph-name="IJ" unicode="&#x132;" horiz-adv-x="551" 
d="M79 0v130h175c65 0 85 26 85 95v475h135v-490c0 -145 -60 -210 -205 -210h-190zM79 206v494h135v-494h-135z" />
    <glyph glyph-name="Iacute" unicode="&#xcd;" horiz-adv-x="299" 
d="M105 745l40 145h155l-105 -145h-90zM82 0v700h135v-700h-135z" />
    <glyph glyph-name="Ibreve" unicode="&#x12c;" horiz-adv-x="299" 
d="M150 740c-98 0 -168 59 -170 150h110c4 -37 30 -55 60 -55s56 18 60 55h110c-2 -91 -72 -150 -170 -150zM82 0v700h135v-700h-135z" />
    <glyph glyph-name="Icircumflex" unicode="&#xce;" horiz-adv-x="299" 
d="M220 890l120 -145h-110l-80 58l-80 -58h-110l120 145h140zM82 0v700h135v-700h-135z" />
    <glyph glyph-name="Idieresis" unicode="&#xcf;" horiz-adv-x="299" 
d="M-10 765v120h125v-120h-125zM185 765v120h125v-120h-125zM82 0v700h135v-700h-135z" />
    <glyph glyph-name="Idotaccent" unicode="&#x130;" horiz-adv-x="299" 
d="M80 765v135h140v-135h-140zM82 0v700h135v-700h-135z" />
    <glyph glyph-name="uni1ECA" unicode="&#x1eca;" horiz-adv-x="299" 
d="M82 0v700h135v-700h-135zM85 -195v130h130v-130h-130z" />
    <glyph glyph-name="Igrave" unicode="&#xcc;" horiz-adv-x="299" 
d="M109 745l-105 145h155l40 -145h-90zM82 0v700h135v-700h-135z" />
    <glyph glyph-name="Imacron" unicode="&#x12a;" horiz-adv-x="299" 
d="M-18 765v110h335v-110h-335zM82 0v700h135v-700h-135z" />
    <glyph glyph-name="Iogonek" unicode="&#x12e;" horiz-adv-x="299" 
d="M217 0c-33 -19 -80 -50 -80 -90c0 -35 25 -50 50 -50h30v-80h-50c-70 0 -120 42 -120 100s38 97 76 120h-41v700h135v-700z" />
    <glyph glyph-name="Itilde" unicode="&#x128;" horiz-adv-x="299" 
d="M229 750c-25 0 -50 8 -80 24l-18 10c-16 9 -29 16 -45 16c-21 2 -31 -17 -31 -40h-95v26c0 62 49 114 112 114c37 0 56 -10 75 -20l18 -10c16 -8 33 -20 49 -20c21 0 30 17 30 40h95v-26c0 -62 -33 -114 -110 -114zM82 0v700h135v-700h-135z" />
    <glyph glyph-name="J" unicode="J" horiz-adv-x="429" 
d="M28 0v130h128c45 0 60 15 60 60v510h135v-560c0 -85 -55 -140 -140 -140h-183z" />
    <glyph glyph-name="Jcircumflex" unicode="&#x134;" horiz-adv-x="429" 
d="M354 890l120 -145h-110l-80 58l-80 -58h-110l120 145h140zM216 190v510h135v-560c0 -85 -55 -140 -140 -140h-183v130h128c45 0 60 15 60 60z" />
    <glyph glyph-name="K" unicode="K" horiz-adv-x="686" 
d="M520 0l-211 308l-92 -97v-211h-135v700h135v-314l297 314h167l-275 -290l281 -410h-167z" />
    <glyph glyph-name="uni0136" unicode="&#x136;" horiz-adv-x="686" 
d="M406 410l281 -410h-167l-211 308l-92 -97v-211h-135v700h135v-314l297 314h167zM285 -195v130h130v-130c0 -67 -52 -115 -127 -115h-28v75h23c37 0 54 16 54 39v1h-52z" />
    <glyph glyph-name="L" unicode="L" horiz-adv-x="630" 
d="M82 0v700h135v-580h395v-120h-530z" />
    <glyph glyph-name="Lacute" unicode="&#x139;" horiz-adv-x="630" 
d="M105 745l40 145h155l-105 -145h-90zM82 0v700h135v-580h395v-120h-530z" />
    <glyph glyph-name="Lcaron" unicode="&#x13d;" horiz-adv-x="632" 
d="M82 0v700h135v-580h395v-120h-530zM342 455v75h23c37 0 54 16 54 39v1h-52v130h130v-130c0 -67 -52 -115 -127 -115h-28z" />
    <glyph glyph-name="uni013B" unicode="&#x13b;" horiz-adv-x="630" 
d="M82 0v700h135v-580h395v-120h-530zM260 -310v75h23c37 0 54 16 54 39v1h-52v130h130v-130c0 -67 -52 -115 -127 -115h-28z" />
    <glyph glyph-name="Ldot" unicode="&#x13f;" horiz-adv-x="631" 
d="M82 0v700h135v-580h395v-120h-530zM375 295v131h130v-131h-130z" />
    <glyph glyph-name="Lslash" unicode="&#x141;" horiz-adv-x="679" 
d="M266 120h395v-120h-530v234l-93 -52v135l93 52v331h135v-255l172 96v-134l-172 -97v-190z" />
    <glyph glyph-name="M" unicode="M" horiz-adv-x="929" 
d="M638 700h209v-700h-132v552l-174 -552h-148l-179 553v-553h-132v700h210l176 -550z" />
    <glyph glyph-name="N" unicode="N" horiz-adv-x="749" 
d="M532 700h135v-700h-175l-275 515v-515h-135v700h175l275 -513v513z" />
    <glyph glyph-name="Nacute" unicode="&#x143;" horiz-adv-x="749" 
d="M526 890l-105 -145h-90l40 145h155zM532 700h135v-700h-175l-275 515v-515h-135v700h175l275 -513v513z" />
    <glyph glyph-name="Ncaron" unicode="&#x147;" horiz-adv-x="749" 
d="M446 745h-140l-120 145h110l80 -58l80 58h110zM532 700h135v-700h-175l-275 515v-515h-135v700h175l275 -513v513z" />
    <glyph glyph-name="uni0145" unicode="&#x145;" horiz-adv-x="749" 
d="M532 700h135v-700h-175l-275 515v-515h-135v700h175l275 -513v513zM310 -195v130h130v-130c0 -67 -52 -115 -127 -115h-28v75h23c37 0 54 16 54 39v1h-52z" />
    <glyph glyph-name="Eng" unicode="&#x14a;" horiz-adv-x="749" 
d="M417 -200v110h60c40 0 55 15 55 55v35l-315 477v-477h-135v700h140l310 -471v471h135v-770c0 -80 -50 -130 -130 -130h-120z" />
    <glyph glyph-name="Ntilde" unicode="&#xd1;" horiz-adv-x="749" 
d="M312 800c-21 2 -31 -17 -31 -40h-95v26c0 62 49 114 112 114c37 0 56 -10 75 -20l18 -10c16 -8 33 -20 49 -20c21 0 30 17 30 40h95v-26c0 -62 -33 -114 -110 -114c-25 0 -50 8 -80 24l-18 10c-16 9 -29 16 -45 16zM532 700h135v-700h-175l-275 515v-515h-135v700h175
l275 -513v513z" />
    <glyph glyph-name="O" unicode="O" horiz-adv-x="766" 
d="M383 -10c-200 0 -340 135 -340 360s140 360 340 360s340 -135 340 -360s-140 -360 -340 -360zM378 110h10c125 0 200 90 200 240s-75 240 -200 240h-10c-125 0 -200 -90 -200 -240s75 -240 200 -240z" />
    <glyph glyph-name="Oacute" unicode="&#xd3;" horiz-adv-x="766" 
d="M338 745l40 145h155l-105 -145h-90zM383 -10c-200 0 -340 135 -340 360s140 360 340 360s340 -135 340 -360s-140 -360 -340 -360zM378 110h10c125 0 200 90 200 240s-75 240 -200 240h-10c-125 0 -200 -90 -200 -240s75 -240 200 -240z" />
    <glyph glyph-name="Obreve" unicode="&#x14e;" horiz-adv-x="766" 
d="M383 740c-98 0 -168 59 -170 150h110c4 -37 30 -55 60 -55s56 18 60 55h110c-2 -91 -72 -150 -170 -150zM383 -10c-200 0 -340 135 -340 360s140 360 340 360s340 -135 340 -360s-140 -360 -340 -360zM378 110h10c125 0 200 90 200 240s-75 240 -200 240h-10
c-125 0 -200 -90 -200 -240s75 -240 200 -240z" />
    <glyph glyph-name="Ocircumflex" unicode="&#xd4;" horiz-adv-x="766" 
d="M383 803l-80 -58h-110l120 145h140l120 -145h-110zM383 710c200 0 340 -135 340 -360s-140 -360 -340 -360s-340 135 -340 360s140 360 340 360zM388 110c125 0 200 90 200 240s-75 240 -200 240h-10c-125 0 -200 -90 -200 -240s75 -240 200 -240h10z" />
    <glyph glyph-name="Odieresis" unicode="&#xd6;" horiz-adv-x="766" 
d="M223 765v120h125v-120h-125zM418 765v120h125v-120h-125zM383 -10c-200 0 -340 135 -340 360s140 360 340 360s340 -135 340 -360s-140 -360 -340 -360zM378 110h10c125 0 200 90 200 240s-75 240 -200 240h-10c-125 0 -200 -90 -200 -240s75 -240 200 -240z" />
    <glyph glyph-name="uni1ECC" unicode="&#x1ecc;" horiz-adv-x="766" 
d="M383 -10c-200 0 -340 135 -340 360s140 360 340 360s340 -135 340 -360s-140 -360 -340 -360zM378 110h10c125 0 200 90 200 240s-75 240 -200 240h-10c-125 0 -200 -90 -200 -240s75 -240 200 -240zM318 -195v130h130v-130h-130z" />
    <glyph glyph-name="Ograve" unicode="&#xd2;" horiz-adv-x="766" 
d="M342 745l-105 145h155l40 -145h-90zM383 -10c-200 0 -340 135 -340 360s140 360 340 360s340 -135 340 -360s-140 -360 -340 -360zM378 110h10c125 0 200 90 200 240s-75 240 -200 240h-10c-125 0 -200 -90 -200 -240s75 -240 200 -240z" />
    <glyph glyph-name="Ohungarumlaut" unicode="&#x150;" horiz-adv-x="766" 
d="M236 745l40 145h155l-105 -145h-90zM425 745l40 145h155l-105 -145h-90zM383 -10c-200 0 -340 135 -340 360s140 360 340 360s340 -135 340 -360s-140 -360 -340 -360zM378 110h10c125 0 200 90 200 240s-75 240 -200 240h-10c-125 0 -200 -90 -200 -240
s75 -240 200 -240z" />
    <glyph glyph-name="Omacron" unicode="&#x14c;" horiz-adv-x="766" 
d="M215 765v110h335v-110h-335zM383 -10c-200 0 -340 135 -340 360s140 360 340 360s340 -135 340 -360s-140 -360 -340 -360zM378 110h10c125 0 200 90 200 240s-75 240 -200 240h-10c-125 0 -200 -90 -200 -240s75 -240 200 -240z" />
    <glyph glyph-name="Oslash" unicode="&#xd8;" horiz-adv-x="774" 
d="M657 585c45 -60 70 -139 70 -235c0 -225 -140 -360 -340 -360c-63 0 -120 13 -169 39l-61 -78l-105 82l65 82c-45 60 -70 139 -70 235c0 225 140 360 340 360c63 0 120 -13 169 -39l61 78l105 -82zM182 350c0 -48 8 -90 22 -124l274 347c-25 11 -54 17 -86 17h-10
c-125 0 -200 -90 -200 -240zM392 110c125 0 200 90 200 240c0 48 -8 90 -22 124l-274 -347c25 -11 54 -17 86 -17h10z" />
    <glyph glyph-name="Oslashacute" unicode="&#x1fe;" horiz-adv-x="774" 
d="M533 890l-105 -145h-90l40 145h155zM657 585c45 -60 70 -139 70 -235c0 -225 -140 -360 -340 -360c-63 0 -120 13 -169 39l-61 -78l-105 82l65 82c-45 60 -70 139 -70 235c0 225 140 360 340 360c63 0 120 -13 169 -39l61 78l105 -82zM182 350c0 -48 8 -90 22 -124
l274 347c-25 11 -54 17 -86 17h-10c-125 0 -200 -90 -200 -240zM392 110c125 0 200 90 200 240c0 48 -8 90 -22 124l-274 -347c25 -11 54 -17 86 -17h10z" />
    <glyph glyph-name="Otilde" unicode="&#xd5;" horiz-adv-x="766" 
d="M462 750c-25 0 -50 8 -80 24l-18 10c-16 9 -29 16 -45 16c-21 2 -31 -17 -31 -40h-95v26c0 62 49 114 112 114c37 0 56 -10 75 -20l18 -10c16 -8 33 -20 49 -20c21 0 30 17 30 40h95v-26c0 -62 -33 -114 -110 -114zM383 -10c-200 0 -340 135 -340 360s140 360 340 360
s340 -135 340 -360s-140 -360 -340 -360zM378 110h10c125 0 200 90 200 240s-75 240 -200 240h-10c-125 0 -200 -90 -200 -240s75 -240 200 -240z" />
    <glyph glyph-name="OE" unicode="&#x152;" horiz-adv-x="1167" 
d="M383 -10c-200 0 -340 135 -340 360s140 360 340 360c79 0 149 -21 205 -61v51h530v-120h-395v-161h335v-120h-335v-179h405v-120h-540v51c-56 -40 -126 -61 -205 -61zM378 110h10c125 0 200 90 200 240s-75 240 -200 240h-10c-125 0 -200 -90 -200 -240s75 -240 200 -240
z" />
    <glyph glyph-name="P" unicode="P" horiz-adv-x="652" 
d="M82 0v700h315c135 0 225 -80 225 -220s-90 -221 -225 -221h-180v-259h-135zM217 379h165c70 0 105 41 105 101s-35 100 -105 100h-165v-201z" />
    <glyph glyph-name="Thorn" unicode="&#xde;" horiz-adv-x="663" 
d="M82 0v700h135v-125h175c135 0 230 -82 230 -225s-95 -225 -230 -225h-175v-125h-135zM217 245h165c70 0 105 43 105 105c0 63 -35 105 -105 105h-165v-210z" />
    <glyph glyph-name="Q" unicode="Q" horiz-adv-x="766" 
d="M449 -35c0 -45 10 -55 55 -55h133v-110h-187c-85 0 -130 45 -130 130v65c-166 25 -277 154 -277 355c0 225 140 360 340 360s340 -135 340 -360c0 -199 -110 -328 -274 -355v-30zM178 350c0 -150 75 -240 200 -240h10c125 0 200 90 200 240s-75 240 -200 240h-10
c-125 0 -200 -90 -200 -240z" />
    <glyph glyph-name="R" unicode="R" horiz-adv-x="683" 
d="M82 0v700h325c120 0 215 -80 215 -190c0 -89 -39 -147 -119 -177c76 0 109 -36 109 -99v-234h-135v200c0 50 -15 65 -65 65h-195v-265h-135zM217 383h150c80 0 120 36 120 101s-40 96 -120 96h-150v-197z" />
    <glyph glyph-name="Racute" unicode="&#x154;" horiz-adv-x="683" 
d="M285 745l40 145h155l-105 -145h-90zM82 0v700h325c120 0 215 -80 215 -190c0 -89 -39 -147 -119 -177c76 0 109 -36 109 -99v-234h-135v200c0 50 -15 65 -65 65h-195v-265h-135zM217 383h150c80 0 120 36 120 101s-40 96 -120 96h-150v-197z" />
    <glyph glyph-name="Rcaron" unicode="&#x158;" horiz-adv-x="683" 
d="M400 745h-140l-120 145h110l80 -58l80 58h110zM503 333c76 0 109 -36 109 -99v-234h-135v200c0 50 -15 65 -65 65h-195v-265h-135v700h325c120 0 215 -80 215 -190c0 -89 -39 -147 -119 -177zM367 383c80 0 120 36 120 101s-40 96 -120 96h-150v-197h150z" />
    <glyph glyph-name="uni0156" unicode="&#x156;" horiz-adv-x="683" 
d="M82 0v700h325c120 0 215 -80 215 -190c0 -89 -39 -147 -119 -177c76 0 109 -36 109 -99v-234h-135v200c0 50 -15 65 -65 65h-195v-265h-135zM217 383h150c80 0 120 36 120 101s-40 96 -120 96h-150v-197zM254 -310v75h23c37 0 54 16 54 39v1h-52v130h130v-130
c0 -67 -52 -115 -127 -115h-28z" />
    <glyph glyph-name="R.ss03" horiz-adv-x="684" 
d="M82 0v700h325c120 0 215 -80 215 -190c0 -86 -61 -152 -125 -174c48 -3 63 -28 79 -80l81 -256h-140l-65 207c-12 39 -29 58 -64 58h-171v-265h-135zM217 383h150c80 0 120 36 120 101s-40 96 -120 96h-150v-197z" />
    <glyph glyph-name="Racute.ss03" horiz-adv-x="684" 
d="M282 745l40 145h155l-105 -145h-90zM82 0v700h325c120 0 215 -80 215 -190c0 -86 -61 -152 -125 -174c48 -3 63 -28 79 -80l81 -256h-140l-65 207c-12 39 -29 58 -64 58h-171v-265h-135zM217 383h150c80 0 120 36 120 101s-40 96 -120 96h-150v-197z" />
    <glyph glyph-name="Rcaron.ss03" horiz-adv-x="684" 
d="M397 745h-140l-120 145h110l80 -58l80 58h110zM576 256l81 -256h-140l-65 207c-12 39 -29 58 -64 58h-171v-265h-135v700h325c120 0 215 -80 215 -190c0 -86 -61 -152 -125 -174c48 -3 63 -28 79 -80zM367 383c80 0 120 36 120 101s-40 96 -120 96h-150v-197h150z" />
    <glyph glyph-name="uni0156.ss03" horiz-adv-x="684" 
d="M82 0v700h325c120 0 215 -80 215 -190c0 -86 -61 -152 -125 -174c48 -3 63 -28 79 -80l81 -256h-140l-65 207c-12 39 -29 58 -64 58h-171v-265h-135zM217 383h150c80 0 120 36 120 101s-40 96 -120 96h-150v-197zM267 -310v75h23c37 0 54 16 54 39v1h-52v130h130v-130
c0 -67 -52 -115 -127 -115h-28z" />
    <glyph glyph-name="S" unicode="S" horiz-adv-x="634" 
d="M314 -10c-192 0 -280 100 -285 245h135c5 -70 55 -125 160 -125h10c75 0 114 40 114 85c0 40 -17 64 -79 77l-125 26c-125 26 -180 98 -180 202c0 105 93 210 265 210c170 0 265 -97 265 -230h-135c-5 73 -58 110 -130 110h-10c-75 0 -120 -40 -120 -85
c0 -46 25 -67 85 -79l105 -21c120 -24 194 -86 194 -200c0 -120 -96 -215 -269 -215z" />
    <glyph glyph-name="Sacute" unicode="&#x15a;" horiz-adv-x="634" 
d="M281 745l40 145h155l-105 -145h-90zM314 -10c-192 0 -280 100 -285 245h135c5 -70 55 -125 160 -125h10c75 0 114 40 114 85c0 40 -17 64 -79 77l-125 26c-125 26 -180 98 -180 202c0 105 93 210 265 210c170 0 265 -97 265 -230h-135c-5 73 -58 110 -130 110h-10
c-75 0 -120 -40 -120 -85c0 -46 25 -67 85 -79l105 -21c120 -24 194 -86 194 -200c0 -120 -96 -215 -269 -215z" />
    <glyph glyph-name="Scaron" unicode="&#x160;" horiz-adv-x="634" 
d="M396 745h-140l-120 145h110l80 -58l80 58h110zM389 405c120 -24 194 -86 194 -200c0 -120 -96 -215 -269 -215c-192 0 -280 100 -285 245h135c5 -70 55 -125 160 -125h10c75 0 114 40 114 85c0 40 -17 64 -79 77l-125 26c-125 26 -180 98 -180 202c0 105 93 210 265 210
c170 0 265 -97 265 -230h-135c-5 73 -58 110 -130 110h-10c-75 0 -120 -40 -120 -85c0 -46 25 -67 85 -79z" />
    <glyph glyph-name="Scedilla" unicode="&#x15e;" horiz-adv-x="634" 
d="M389 405c120 -24 194 -86 194 -200c0 -112 -84 -202 -236 -214v-36c50 0 95 -30 95 -95s-50 -105 -120 -105h-80v75h85c25 0 40 10 40 30c0 15 -10 30 -35 30h-55v101c-166 13 -243 109 -248 244h135c5 -70 55 -125 160 -125h10c75 0 114 40 114 85c0 40 -17 64 -79 77
l-125 26c-125 26 -180 98 -180 202c0 105 93 210 265 210c170 0 265 -97 265 -230h-135c-5 73 -58 110 -130 110h-10c-75 0 -120 -40 -120 -85c0 -46 25 -67 85 -79z" />
    <glyph glyph-name="Scircumflex" unicode="&#x15c;" horiz-adv-x="634" 
d="M326 803l-80 -58h-110l120 145h140l120 -145h-110zM389 405c120 -24 194 -86 194 -200c0 -120 -96 -215 -269 -215c-192 0 -280 100 -285 245h135c5 -70 55 -125 160 -125h10c75 0 114 40 114 85c0 40 -17 64 -79 77l-125 26c-125 26 -180 98 -180 202
c0 105 93 210 265 210c170 0 265 -97 265 -230h-135c-5 73 -58 110 -130 110h-10c-75 0 -120 -40 -120 -85c0 -46 25 -67 85 -79z" />
    <glyph glyph-name="uni0218" unicode="&#x218;" horiz-adv-x="634" 
d="M314 -10c-192 0 -280 100 -285 245h135c5 -70 55 -125 160 -125h10c75 0 114 40 114 85c0 40 -17 64 -79 77l-125 26c-125 26 -180 98 -180 202c0 105 93 210 265 210c170 0 265 -97 265 -230h-135c-5 73 -58 110 -130 110h-10c-75 0 -120 -40 -120 -85
c0 -46 25 -67 85 -79l105 -21c120 -24 194 -86 194 -200c0 -120 -96 -215 -269 -215zM222 -310v75h23c37 0 54 16 54 39v1h-52v130h130v-130c0 -67 -52 -115 -127 -115h-28z" />
    <glyph glyph-name="uni1E9E" unicode="&#x1e9e;" horiz-adv-x="657" 
d="M82 0v700h275c130 0 215 -70 215 -180c0 -80 -56 -140 -113 -155c82 -5 158 -71 158 -170c0 -120 -90 -195 -235 -195h-85v120h77c70 0 108 35 108 90s-39 82 -109 82h-76v116h20c85 0 120 37 120 87s-35 85 -105 85h-115v-580h-135z" />
    <glyph glyph-name="T" unicode="T" horiz-adv-x="656" 
d="M260 0v580h-242v120h620v-120h-243v-580h-135z" />
    <glyph glyph-name="Tbar" unicode="&#x166;" horiz-adv-x="676" 
d="M648 580h-243v-144h170v-115h-170v-321h-135v321h-170v115h170v144h-242v120h620v-120z" />
    <glyph glyph-name="Tcaron" unicode="&#x164;" horiz-adv-x="656" 
d="M398 745h-140l-120 145h110l80 -58l80 58h110zM18 700h620v-120h-243v-580h-135v580h-242v120z" />
    <glyph glyph-name="uni0162" unicode="&#x162;" horiz-adv-x="656" 
d="M395 0h-32v-45c50 0 95 -30 95 -95s-50 -105 -120 -105h-80v75h85c25 0 40 10 40 30c0 15 -10 30 -35 30h-55v110h-33v580h-242v120h620v-120h-243v-580z" />
    <glyph glyph-name="uni021A" unicode="&#x21a;" horiz-adv-x="656" 
d="M260 0v580h-242v120h620v-120h-243v-580h-135zM238 -310v75h23c37 0 54 16 54 39v1h-52v130h130v-130c0 -67 -52 -115 -127 -115h-28z" />
    <glyph glyph-name="U" unicode="U" horiz-adv-x="702" 
d="M351 -10c-190 0 -275 95 -275 255v455h135v-435c0 -110 45 -155 135 -155h10c90 0 135 45 135 155v435h135v-455c0 -160 -85 -255 -275 -255z" />
    <glyph glyph-name="Uacute" unicode="&#xda;" horiz-adv-x="702" 
d="M306 745l40 145h155l-105 -145h-90zM351 -10c-190 0 -275 95 -275 255v455h135v-435c0 -110 45 -155 135 -155h10c90 0 135 45 135 155v435h135v-455c0 -160 -85 -255 -275 -255z" />
    <glyph glyph-name="Ubreve" unicode="&#x16c;" horiz-adv-x="702" 
d="M351 740c-98 0 -168 59 -170 150h110c4 -37 30 -55 60 -55s56 18 60 55h110c-2 -91 -72 -150 -170 -150zM351 -10c-190 0 -275 95 -275 255v455h135v-435c0 -110 45 -155 135 -155h10c90 0 135 45 135 155v435h135v-455c0 -160 -85 -255 -275 -255z" />
    <glyph glyph-name="Ucircumflex" unicode="&#xdb;" horiz-adv-x="702" 
d="M351 803l-80 -58h-110l120 145h140l120 -145h-110zM491 700h135v-455c0 -160 -85 -255 -275 -255s-275 95 -275 255v455h135v-435c0 -110 45 -155 135 -155h10c90 0 135 45 135 155v435z" />
    <glyph glyph-name="Udieresis" unicode="&#xdc;" horiz-adv-x="702" 
d="M191 765v120h125v-120h-125zM386 765v120h125v-120h-125zM351 -10c-190 0 -275 95 -275 255v455h135v-435c0 -110 45 -155 135 -155h10c90 0 135 45 135 155v435h135v-455c0 -160 -85 -255 -275 -255z" />
    <glyph glyph-name="uni1EE4" unicode="&#x1ee4;" horiz-adv-x="702" 
d="M351 -10c-190 0 -275 95 -275 255v455h135v-435c0 -110 45 -155 135 -155h10c90 0 135 45 135 155v435h135v-455c0 -160 -85 -255 -275 -255zM286 -195v130h130v-130h-130z" />
    <glyph glyph-name="Ugrave" unicode="&#xd9;" horiz-adv-x="702" 
d="M310 745l-105 145h155l40 -145h-90zM351 -10c-190 0 -275 95 -275 255v455h135v-435c0 -110 45 -155 135 -155h10c90 0 135 45 135 155v435h135v-455c0 -160 -85 -255 -275 -255z" />
    <glyph glyph-name="Uhungarumlaut" unicode="&#x170;" horiz-adv-x="702" 
d="M204 745l40 145h155l-105 -145h-90zM393 745l40 145h155l-105 -145h-90zM351 -10c-190 0 -275 95 -275 255v455h135v-435c0 -110 45 -155 135 -155h10c90 0 135 45 135 155v435h135v-455c0 -160 -85 -255 -275 -255z" />
    <glyph glyph-name="Umacron" unicode="&#x16a;" horiz-adv-x="702" 
d="M183 765v110h335v-110h-335zM351 -10c-190 0 -275 95 -275 255v455h135v-435c0 -110 45 -155 135 -155h10c90 0 135 45 135 155v435h135v-455c0 -160 -85 -255 -275 -255z" />
    <glyph glyph-name="Uogonek" unicode="&#x172;" horiz-adv-x="702" 
d="M491 700h135v-455c0 -131 -57 -218 -181 -246c-33 -19 -79 -49 -79 -89c0 -35 25 -50 50 -50h30v-80h-50c-70 0 -120 42 -120 100c0 51 29 86 62 110c-181 5 -262 99 -262 255v455h135v-435c0 -110 45 -155 135 -155h10c90 0 135 45 135 155v435z" />
    <glyph glyph-name="Uring" unicode="&#x16e;" horiz-adv-x="702" 
d="M351 730c-57 0 -110 47 -110 110c0 57 53 110 110 110c63 0 110 -53 110 -110c0 -63 -47 -110 -110 -110zM352 800c21 0 39 19 39 40s-18 40 -39 40s-40 -19 -40 -40s19 -40 40 -40zM351 -10c-190 0 -275 95 -275 255v455h135v-435c0 -110 45 -155 135 -155h10
c90 0 135 45 135 155v435h135v-455c0 -160 -85 -255 -275 -255z" />
    <glyph glyph-name="Utilde" unicode="&#x168;" horiz-adv-x="702" 
d="M430 750c-25 0 -50 8 -80 24l-18 10c-16 9 -29 16 -45 16c-21 2 -31 -17 -31 -40h-95v26c0 62 49 114 112 114c37 0 56 -10 75 -20l18 -10c16 -8 33 -20 49 -20c21 0 30 17 30 40h95v-26c0 -62 -33 -114 -110 -114zM351 -10c-190 0 -275 95 -275 255v455h135v-435
c0 -110 45 -155 135 -155h10c90 0 135 45 135 155v435h135v-455c0 -160 -85 -255 -275 -255z" />
    <glyph glyph-name="V" unicode="V" horiz-adv-x="716" 
d="M561 700h148l-262 -700h-175l-268 700h151l207 -558z" />
    <glyph glyph-name="W" unicode="W" horiz-adv-x="950" 
d="M790 700h140l-173 -700h-175l-107 510l-108 -510h-175l-172 700h139l125 -555l110 555h165l110 -555z" />
    <glyph glyph-name="Wacute" unicode="&#x1e82;" horiz-adv-x="950" 
d="M627 890l-105 -145h-90l40 145h155zM790 700h140l-173 -700h-175l-107 510l-108 -510h-175l-172 700h139l125 -555l110 555h165l110 -555z" />
    <glyph glyph-name="Wcircumflex" unicode="&#x174;" horiz-adv-x="950" 
d="M477 803l-80 -58h-110l120 145h140l120 -145h-110zM790 700h140l-173 -700h-175l-107 510l-108 -510h-175l-172 700h139l125 -555l110 555h165l110 -555z" />
    <glyph glyph-name="Wdieresis" unicode="&#x1e84;" horiz-adv-x="950" 
d="M442 885v-120h-125v120h125zM637 885v-120h-125v120h125zM790 700h140l-173 -700h-175l-107 510l-108 -510h-175l-172 700h139l125 -555l110 555h165l110 -555z" />
    <glyph glyph-name="Wgrave" unicode="&#x1e80;" horiz-adv-x="950" 
d="M526 745h-90l-105 145h155zM790 700h140l-173 -700h-175l-107 510l-108 -510h-175l-172 700h139l125 -555l110 555h165l110 -555z" />
    <glyph glyph-name="X" unicode="X" horiz-adv-x="642" 
d="M641 0h-159l-163 245l-166 -245h-152l242 359l-227 341h159l148 -223l151 223h152l-227 -336z" />
    <glyph glyph-name="Y" unicode="Y" horiz-adv-x="663" 
d="M512 700h148l-261 -420v-280h-135v280l-260 420h153l179 -294z" />
    <glyph glyph-name="Yacute" unicode="&#xdd;" horiz-adv-x="663" 
d="M485 890l-105 -145h-90l40 145h155zM512 700h148l-261 -420v-280h-135v280l-260 420h153l179 -294z" />
    <glyph glyph-name="Ycircumflex" unicode="&#x176;" horiz-adv-x="663" 
d="M335 803l-80 -58h-110l120 145h140l120 -145h-110zM512 700h148l-261 -420v-280h-135v280l-260 420h153l179 -294z" />
    <glyph glyph-name="Ydieresis" unicode="&#x178;" horiz-adv-x="663" 
d="M300 885v-120h-125v120h125zM495 885v-120h-125v120h125zM512 700h148l-261 -420v-280h-135v280l-260 420h153l179 -294z" />
    <glyph glyph-name="Ygrave" unicode="&#x1ef2;" horiz-adv-x="663" 
d="M384 745h-90l-105 145h155zM512 700h148l-261 -420v-280h-135v280l-260 420h153l179 -294z" />
    <glyph glyph-name="uni0232" unicode="&#x232;" horiz-adv-x="663" 
d="M502 875v-110h-335v110h335zM512 700h148l-261 -420v-280h-135v280l-260 420h153l179 -294z" />
    <glyph glyph-name="Z" unicode="Z" horiz-adv-x="635" 
d="M40 0v115l388 465h-378v120h535v-115l-388 -465h398v-120h-555z" />
    <glyph glyph-name="Zacute" unicode="&#x179;" horiz-adv-x="635" 
d="M273 745l40 145h155l-105 -145h-90zM40 0v115l388 465h-378v120h535v-115l-388 -465h398v-120h-555z" />
    <glyph glyph-name="Zcaron" unicode="&#x17d;" horiz-adv-x="635" 
d="M388 745h-140l-120 145h110l80 -58l80 58h110zM197 120h398v-120h-555v115l388 465h-378v120h535v-115z" />
    <glyph glyph-name="Zdotaccent" unicode="&#x17b;" horiz-adv-x="635" 
d="M248 765v135h140v-135h-140zM40 0v115l388 465h-378v120h535v-115l-388 -465h398v-120h-555z" />
    <glyph glyph-name="a" unicode="a" horiz-adv-x="536" 
d="M473 110c0 -30 0 -75 5 -110h-122c-3 15 -5 38 -6 61c-30 -43 -83 -71 -148 -71c-90 0 -164 57 -164 147c0 108 84 157 183 165l126 11v12c0 45 -31 80 -80 80h-8c-49 0 -78 -31 -81 -60h-130c10 94 90 165 215 165s210 -63 210 -180v-220zM236 95c58 0 111 44 111 109
v14l-108 -11c-33 -3 -73 -20 -73 -61c0 -31 27 -51 62 -51h8z" />
    <glyph glyph-name="aacute" unicode="&#xe1;" horiz-adv-x="536" 
d="M402 700l-100 -150h-75l25 150h150zM473 110c0 -30 0 -75 5 -110h-122c-3 15 -5 38 -6 61c-30 -43 -83 -71 -148 -71c-90 0 -164 57 -164 147c0 108 84 157 183 165l126 11v12c0 45 -31 80 -80 80h-8c-49 0 -78 -31 -81 -60h-130c10 94 90 165 215 165s210 -63 210 -180
v-220zM236 95c58 0 111 44 111 109v14l-108 -11c-33 -3 -73 -20 -73 -61c0 -31 27 -51 62 -51h8z" />
    <glyph glyph-name="abreve" unicode="&#x103;" horiz-adv-x="536" 
d="M268 552c-98 0 -166 45 -168 148h112c2 -39 19 -65 56 -65s55 26 57 65h111c-2 -103 -70 -148 -168 -148zM473 110c0 -30 0 -75 5 -110h-122c-3 15 -5 38 -6 61c-30 -43 -83 -71 -148 -71c-90 0 -164 57 -164 147c0 108 84 157 183 165l126 11v12c0 45 -31 80 -80 80h-8
c-49 0 -78 -31 -81 -60h-130c10 94 90 165 215 165s210 -63 210 -180v-220zM236 95c58 0 111 44 111 109v14l-108 -11c-33 -3 -73 -20 -73 -61c0 -31 27 -51 62 -51h8z" />
    <glyph glyph-name="acircumflex" unicode="&#xe2;" horiz-adv-x="536" 
d="M268 622l-100 -72h-80l100 150h160l100 -150h-80zM473 110c0 -30 0 -75 5 -110h-122c-3 15 -5 38 -6 61c-30 -43 -83 -71 -148 -71c-90 0 -164 57 -164 147c0 108 84 157 183 165l126 11v12c0 45 -31 80 -80 80h-8c-49 0 -78 -31 -81 -60h-130c10 94 90 165 215 165
s210 -63 210 -180v-220zM236 95c58 0 111 44 111 109v14l-108 -11c-33 -3 -73 -20 -73 -61c0 -31 27 -51 62 -51h8z" />
    <glyph glyph-name="adieresis" unicode="&#xe4;" horiz-adv-x="536" 
d="M228 695v-130h-120v130h120zM428 695v-130h-120v130h120zM473 110c0 -30 0 -75 5 -110h-122c-3 15 -5 38 -6 61c-30 -43 -83 -71 -148 -71c-90 0 -164 57 -164 147c0 108 84 157 183 165l126 11v12c0 45 -31 80 -80 80h-8c-49 0 -78 -31 -81 -60h-130
c10 94 90 165 215 165s210 -63 210 -180v-220zM236 95c58 0 111 44 111 109v14l-108 -11c-33 -3 -73 -20 -73 -61c0 -31 27 -51 62 -51h8z" />
    <glyph glyph-name="uni0227" unicode="&#x227;" horiz-adv-x="536" 
d="M338 700v-135h-140v135h140zM473 110c0 -30 0 -75 5 -110h-122c-3 15 -5 38 -6 61c-30 -43 -83 -71 -148 -71c-90 0 -164 57 -164 147c0 108 84 157 183 165l126 11v12c0 45 -31 80 -80 80h-8c-49 0 -78 -31 -81 -60h-130c10 94 90 165 215 165s210 -63 210 -180v-220z
M236 95c58 0 111 44 111 109v14l-108 -11c-33 -3 -73 -20 -73 -61c0 -31 27 -51 62 -51h8z" />
    <glyph glyph-name="uni1EA1" unicode="&#x1ea1;" horiz-adv-x="536" 
d="M473 110c0 -30 0 -75 5 -110h-122c-3 15 -5 38 -6 61c-30 -43 -83 -71 -148 -71c-90 0 -164 57 -164 147c0 108 84 157 183 165l126 11v12c0 45 -31 80 -80 80h-8c-49 0 -78 -31 -81 -60h-130c10 94 90 165 215 165s210 -63 210 -180v-220zM236 95c58 0 111 44 111 109
v14l-108 -11c-33 -3 -73 -20 -73 -61c0 -31 27 -51 62 -51h8zM186 -195v130h130v-130h-130z" />
    <glyph glyph-name="agrave" unicode="&#xe0;" horiz-adv-x="536" 
d="M308 550h-75l-100 150h150zM473 110c0 -30 0 -75 5 -110h-122c-3 15 -5 38 -6 61c-30 -43 -83 -71 -148 -71c-90 0 -164 57 -164 147c0 108 84 157 183 165l126 11v12c0 45 -31 80 -80 80h-8c-49 0 -78 -31 -81 -60h-130c10 94 90 165 215 165s210 -63 210 -180v-220z
M236 95c58 0 111 44 111 109v14l-108 -11c-33 -3 -73 -20 -73 -61c0 -31 27 -51 62 -51h8z" />
    <glyph glyph-name="amacron" unicode="&#x101;" horiz-adv-x="536" 
d="M420 670v-105h-305v105h305zM473 110c0 -30 0 -75 5 -110h-122c-3 15 -5 38 -6 61c-30 -43 -83 -71 -148 -71c-90 0 -164 57 -164 147c0 108 84 157 183 165l126 11v12c0 45 -31 80 -80 80h-8c-49 0 -78 -31 -81 -60h-130c10 94 90 165 215 165s210 -63 210 -180v-220z
M236 95c58 0 111 44 111 109v14l-108 -11c-33 -3 -73 -20 -73 -61c0 -31 27 -51 62 -51h8z" />
    <glyph glyph-name="aogonek" unicode="&#x105;" horiz-adv-x="536" 
d="M398 -90c0 -35 25 -50 50 -50h30v-80h-50c-70 0 -120 42 -120 100s38 97 76 120h-28c-3 15 -5 38 -6 61c-30 -43 -83 -71 -148 -71c-90 0 -164 57 -164 147c0 108 84 157 183 165l126 11v12c0 45 -31 80 -80 80h-8c-49 0 -78 -31 -81 -60h-130c10 94 90 165 215 165
s210 -63 210 -180v-220c0 -30 0 -75 5 -110c-33 -19 -80 -50 -80 -90zM236 95c58 0 111 44 111 109v14l-108 -11c-33 -3 -73 -20 -73 -61c0 -31 27 -51 62 -51h8z" />
    <glyph glyph-name="aring" unicode="&#xe5;" horiz-adv-x="536" 
d="M268 540c-55 0 -105 45 -105 105c0 55 50 105 105 105c60 0 105 -50 105 -105c0 -60 -45 -105 -105 -105zM269 689c-24 0 -44 -20 -44 -44s20 -44 44 -44s43 20 43 44s-19 44 -43 44zM473 110c0 -30 0 -75 5 -110h-122c-3 15 -5 38 -6 61c-30 -43 -83 -71 -148 -71
c-90 0 -164 57 -164 147c0 108 84 157 183 165l126 11v12c0 45 -31 80 -80 80h-8c-49 0 -78 -31 -81 -60h-130c10 94 90 165 215 165s210 -63 210 -180v-220zM236 95c58 0 111 44 111 109v14l-108 -11c-33 -3 -73 -20 -73 -61c0 -31 27 -51 62 -51h8z" />
    <glyph glyph-name="aringacute" unicode="&#x1fb;" horiz-adv-x="536" 
d="M405 901l-96 -135h-79l25 135h150zM266 530c-55 0 -105 45 -105 105c0 55 50 105 105 105c60 0 105 -50 105 -105c0 -60 -45 -105 -105 -105zM268 679c-24 0 -44 -20 -44 -44s20 -44 44 -44s43 20 43 44s-19 44 -43 44zM473 110c0 -30 0 -75 5 -110h-122
c-3 15 -5 38 -6 61c-30 -43 -83 -71 -148 -71c-90 0 -164 57 -164 147c0 108 84 157 183 165l126 11v12c0 45 -31 80 -80 80h-8c-49 0 -78 -31 -81 -60h-130c10 94 90 165 215 165s210 -63 210 -180v-220zM236 95c58 0 111 44 111 109v14l-108 -11c-33 -3 -73 -20 -73 -61
c0 -31 27 -51 62 -51h8z" />
    <glyph glyph-name="atilde" unicode="&#xe3;" horiz-adv-x="536" 
d="M207 605c-17 0 -34 -17 -34 -40h-95v26c0 62 49 114 112 114c37 0 56 -10 75 -20l18 -10c16 -8 33 -20 49 -20c17 0 30 17 30 40h95v-26c0 -62 -51 -114 -110 -114c-25 0 -50 8 -80 24l-18 10c-16 9 -26 16 -42 16zM473 110c0 -30 0 -75 5 -110h-122c-3 15 -5 38 -6 61
c-30 -43 -83 -71 -148 -71c-90 0 -164 57 -164 147c0 108 84 157 183 165l126 11v12c0 45 -31 80 -80 80h-8c-49 0 -78 -31 -81 -60h-130c10 94 90 165 215 165s210 -63 210 -180v-220zM236 95c58 0 111 44 111 109v14l-108 -11c-33 -3 -73 -20 -73 -61c0 -31 27 -51 62 -51
h8z" />
    <glyph glyph-name="a.ss01" horiz-adv-x="601" 
d="M254 -10c-100 0 -215 85 -215 260s105 260 215 260c80 0 130 -40 150 -80v70h130v-500h-130v70c-22 -39 -70 -80 -150 -80zM282 95h8c62 0 114 57 114 155s-52 155 -114 155h-8c-62 0 -113 -65 -113 -154c0 -90 51 -156 113 -156z" />
    <glyph glyph-name="aacute.ss01" horiz-adv-x="601" 
d="M264 550l25 150h150l-100 -150h-75zM254 -10c-100 0 -215 85 -215 260s105 260 215 260c80 0 130 -40 150 -80v70h130v-500h-130v70c-22 -39 -70 -80 -150 -80zM282 95h8c62 0 114 57 114 155s-52 155 -114 155h-8c-62 0 -113 -65 -113 -154c0 -90 51 -156 113 -156z" />
    <glyph glyph-name="abreve.ss01" horiz-adv-x="601" 
d="M305 552c-98 0 -166 45 -168 148h112c2 -39 19 -65 56 -65s55 26 57 65h111c-2 -103 -70 -148 -168 -148zM254 -10c-100 0 -215 85 -215 260s105 260 215 260c80 0 130 -40 150 -80v70h130v-500h-130v70c-22 -39 -70 -80 -150 -80zM282 95h8c62 0 114 57 114 155
s-52 155 -114 155h-8c-62 0 -113 -65 -113 -154c0 -90 51 -156 113 -156z" />
    <glyph glyph-name="acircumflex.ss01" horiz-adv-x="601" 
d="M305 622l-100 -72h-80l100 150h160l100 -150h-80zM404 500h130v-500h-130v70c-22 -39 -70 -80 -150 -80c-100 0 -215 85 -215 260s105 260 215 260c80 0 130 -40 150 -80v70zM290 95c62 0 114 57 114 155s-52 155 -114 155h-8c-62 0 -113 -65 -113 -154
c0 -90 51 -156 113 -156h8z" />
    <glyph glyph-name="adieresis.ss01" horiz-adv-x="601" 
d="M145 565v130h120v-130h-120zM345 565v130h120v-130h-120zM254 -10c-100 0 -215 85 -215 260s105 260 215 260c80 0 130 -40 150 -80v70h130v-500h-130v70c-22 -39 -70 -80 -150 -80zM282 95h8c62 0 114 57 114 155s-52 155 -114 155h-8c-62 0 -113 -65 -113 -154
c0 -90 51 -156 113 -156z" />
    <glyph glyph-name="uni0227.ss01" horiz-adv-x="601" 
d="M235 565v135h140v-135h-140zM254 -10c-100 0 -215 85 -215 260s105 260 215 260c80 0 130 -40 150 -80v70h130v-500h-130v70c-22 -39 -70 -80 -150 -80zM282 95h8c62 0 114 57 114 155s-52 155 -114 155h-8c-62 0 -113 -65 -113 -154c0 -90 51 -156 113 -156z" />
    <glyph glyph-name="uni1EA1.ss01" horiz-adv-x="601" 
d="M254 -10c-100 0 -215 85 -215 260s105 260 215 260c80 0 130 -40 150 -80v70h130v-500h-130v70c-22 -39 -70 -80 -150 -80zM282 95h8c62 0 114 57 114 155s-52 155 -114 155h-8c-62 0 -113 -65 -113 -154c0 -90 51 -156 113 -156zM229 -195v130h130v-130h-130z" />
    <glyph glyph-name="agrave.ss01" horiz-adv-x="601" 
d="M270 550l-100 150h150l25 -150h-75zM254 -10c-100 0 -215 85 -215 260s105 260 215 260c80 0 130 -40 150 -80v70h130v-500h-130v70c-22 -39 -70 -80 -150 -80zM282 95h8c62 0 114 57 114 155s-52 155 -114 155h-8c-62 0 -113 -65 -113 -154c0 -90 51 -156 113 -156z" />
    <glyph glyph-name="amacron.ss01" horiz-adv-x="601" 
d="M152 565v105h305v-105h-305zM254 -10c-100 0 -215 85 -215 260s105 260 215 260c80 0 130 -40 150 -80v70h130v-500h-130v70c-22 -39 -70 -80 -150 -80zM282 95h8c62 0 114 57 114 155s-52 155 -114 155h-8c-62 0 -113 -65 -113 -154c0 -90 51 -156 113 -156z" />
    <glyph glyph-name="aogonek.ss01" horiz-adv-x="601" 
d="M404 500h130v-500h-1c-33 -19 -80 -50 -80 -90c0 -35 25 -50 50 -50h30v-80h-50c-70 0 -120 42 -120 100s38 97 76 120h-35v70c-22 -39 -70 -80 -150 -80c-100 0 -215 85 -215 260s105 260 215 260c80 0 130 -40 150 -80v70zM290 95c62 0 114 57 114 155
s-52 155 -114 155h-8c-62 0 -113 -65 -113 -154c0 -90 51 -156 113 -156h8z" />
    <glyph glyph-name="aring.ss01" horiz-adv-x="601" 
d="M305 540c-55 0 -105 45 -105 105c0 55 50 105 105 105c60 0 105 -50 105 -105c0 -60 -45 -105 -105 -105zM306 601c24 0 43 20 43 44s-19 44 -43 44s-44 -20 -44 -44s20 -44 44 -44zM254 -10c-100 0 -215 85 -215 260s105 260 215 260c80 0 130 -40 150 -80v70h130v-500
h-130v70c-22 -39 -70 -80 -150 -80zM282 95h8c62 0 114 57 114 155s-52 155 -114 155h-8c-62 0 -113 -65 -113 -154c0 -90 51 -156 113 -156z" />
    <glyph glyph-name="aringacute.ss01" horiz-adv-x="601" 
d="M267 766l25 135h150l-96 -135h-79zM303 530c-55 0 -105 45 -105 105c0 55 50 105 105 105c60 0 105 -50 105 -105c0 -60 -45 -105 -105 -105zM305 591c24 0 43 20 43 44s-19 44 -43 44s-44 -20 -44 -44s20 -44 44 -44zM254 -10c-100 0 -215 85 -215 260s105 260 215 260
c80 0 130 -40 150 -80v70h130v-500h-130v70c-22 -39 -70 -80 -150 -80zM282 95h8c62 0 114 57 114 155s-52 155 -114 155h-8c-62 0 -113 -65 -113 -154c0 -90 51 -156 113 -156z" />
    <glyph glyph-name="atilde.ss01" horiz-adv-x="601" 
d="M384 555c-25 0 -50 8 -80 24l-18 10c-16 9 -26 16 -42 16c-17 0 -34 -17 -34 -40h-95v26c0 62 49 114 112 114c37 0 56 -10 75 -20l18 -10c16 -8 33 -20 49 -20c17 0 30 17 30 40h95v-26c0 -62 -51 -114 -110 -114zM254 -10c-100 0 -215 85 -215 260s105 260 215 260
c80 0 130 -40 150 -80v70h130v-500h-130v70c-22 -39 -70 -80 -150 -80zM282 95h8c62 0 114 57 114 155s-52 155 -114 155h-8c-62 0 -113 -65 -113 -154c0 -90 51 -156 113 -156z" />
    <glyph glyph-name="ae" unicode="&#xe6;" horiz-adv-x="853" 
d="M212 -10c-100 0 -174 57 -174 147c0 108 84 157 183 165l126 11v12c0 45 -31 80 -81 80h-6c-50 0 -79 -31 -82 -60h-130c10 94 90 165 215 165c69 0 126 -19 163 -56c40 35 93 56 158 56c150 0 228 -109 228 -254c0 -15 -1 -31 -2 -47h-338c6 -68 57 -114 113 -114h8
c49 0 79 29 88 63h129c-24 -98 -101 -168 -226 -168c-74 0 -144 33 -189 95c-32 -54 -102 -95 -183 -95zM471 309h215c-3 60 -49 96 -103 96h-8c-57 0 -96 -32 -104 -96zM229 95h5c60 0 113 44 113 109v14l-108 -11c-33 -3 -73 -20 -73 -61c0 -31 27 -51 63 -51z" />
    <glyph glyph-name="aeacute" unicode="&#x1fd;" horiz-adv-x="853" 
d="M386 550l25 150h150l-100 -150h-75zM212 -10c-100 0 -174 57 -174 147c0 108 84 157 183 165l126 11v12c0 45 -31 80 -81 80h-6c-50 0 -79 -31 -82 -60h-130c10 94 90 165 215 165c69 0 126 -19 163 -56c40 35 93 56 158 56c150 0 228 -109 228 -254c0 -15 -1 -31 -2 -47
h-338c6 -68 57 -114 113 -114h8c49 0 79 29 88 63h129c-24 -98 -101 -168 -226 -168c-74 0 -144 33 -189 95c-32 -54 -102 -95 -183 -95zM471 309h215c-3 60 -49 96 -103 96h-8c-57 0 -96 -32 -104 -96zM229 95h5c60 0 113 44 113 109v14l-108 -11c-33 -3 -73 -20 -73 -61
c0 -31 27 -51 63 -51z" />
    <glyph glyph-name="uni01E3" unicode="&#x1e3;" horiz-adv-x="853" 
d="M274 565v105h305v-105h-305zM212 -10c-100 0 -174 57 -174 147c0 108 84 157 183 165l126 11v12c0 45 -31 80 -81 80h-6c-50 0 -79 -31 -82 -60h-130c10 94 90 165 215 165c69 0 126 -19 163 -56c40 35 93 56 158 56c150 0 228 -109 228 -254c0 -15 -1 -31 -2 -47h-338
c6 -68 57 -114 113 -114h8c49 0 79 29 88 63h129c-24 -98 -101 -168 -226 -168c-74 0 -144 33 -189 95c-32 -54 -102 -95 -183 -95zM471 309h215c-3 60 -49 96 -103 96h-8c-57 0 -96 -32 -104 -96zM229 95h5c60 0 113 44 113 109v14l-108 -11c-33 -3 -73 -20 -73 -61
c0 -31 27 -51 63 -51z" />
    <glyph glyph-name="b" unicode="b" horiz-adv-x="601" 
d="M341 -10c-70 0 -124 40 -144 75v-65h-130v700h130v-265c20 35 74 75 144 75c145 0 222 -125 222 -260s-77 -260 -222 -260zM311 95h8c65 0 114 61 114 156s-49 154 -114 154h-8c-60 0 -114 -60 -114 -155s54 -155 114 -155z" />
    <glyph glyph-name="c" unicode="c" horiz-adv-x="539" 
d="M279 -10c-135 0 -240 100 -240 260s105 260 240 260c130 0 215 -60 225 -185h-130c-8 49 -37 80 -91 80h-8c-74 0 -106 -70 -106 -155s32 -155 106 -155h8c54 0 83 31 91 80h130c-10 -125 -95 -185 -225 -185z" />
    <glyph glyph-name="cacute" unicode="&#x107;" horiz-adv-x="539" 
d="M240 550l25 150h150l-100 -150h-75zM279 -10c-135 0 -240 100 -240 260s105 260 240 260c130 0 215 -60 225 -185h-130c-8 49 -37 80 -91 80h-8c-74 0 -106 -70 -106 -155s32 -155 106 -155h8c54 0 83 31 91 80h130c-10 -125 -95 -185 -225 -185z" />
    <glyph glyph-name="ccaron" unicode="&#x10d;" horiz-adv-x="539" 
d="M361 550h-160l-100 150h80l100 -72l100 72h80zM283 95c54 0 83 31 91 80h130c-10 -125 -95 -185 -225 -185c-135 0 -240 100 -240 260s105 260 240 260c130 0 215 -60 225 -185h-130c-8 49 -37 80 -91 80h-8c-74 0 -106 -70 -106 -155s32 -155 106 -155h8z" />
    <glyph glyph-name="ccedilla" unicode="&#xe7;" horiz-adv-x="539" 
d="M283 95c54 0 83 31 91 80h130c-9 -114 -81 -174 -192 -184v-36c50 0 95 -30 95 -95s-50 -105 -120 -105h-80v75h85c25 0 40 10 40 30c0 15 -10 30 -35 30h-55v103c-117 16 -203 112 -203 257c0 160 105 260 240 260c130 0 215 -60 225 -185h-130c-8 49 -37 80 -91 80h-8
c-74 0 -106 -70 -106 -155s32 -155 106 -155h8z" />
    <glyph glyph-name="ccircumflex" unicode="&#x109;" horiz-adv-x="539" 
d="M281 622l-100 -72h-80l100 150h160l100 -150h-80zM283 95c54 0 83 31 91 80h130c-10 -125 -95 -185 -225 -185c-135 0 -240 100 -240 260s105 260 240 260c130 0 215 -60 225 -185h-130c-8 49 -37 80 -91 80h-8c-74 0 -106 -70 -106 -155s32 -155 106 -155h8z" />
    <glyph glyph-name="cdotaccent" unicode="&#x10b;" horiz-adv-x="539" 
d="M211 565v135h140v-135h-140zM279 -10c-135 0 -240 100 -240 260s105 260 240 260c130 0 215 -60 225 -185h-130c-8 49 -37 80 -91 80h-8c-74 0 -106 -70 -106 -155s32 -155 106 -155h8c54 0 83 31 91 80h130c-10 -125 -95 -185 -225 -185z" />
    <glyph glyph-name="d" unicode="d" horiz-adv-x="601" 
d="M260 -10c-145 0 -222 125 -222 260s77 260 222 260c70 0 124 -40 144 -75v265h130v-700h-130v65c-20 -35 -74 -75 -144 -75zM282 95h8c60 0 114 60 114 155s-54 155 -114 155h-8c-65 0 -114 -59 -114 -154s49 -156 114 -156z" />
    <glyph glyph-name="eth" unicode="&#xf0;" horiz-adv-x="579" 
d="M442 594c61 -75 91 -183 91 -302c0 -162 -81 -302 -250 -302c-149 0 -245 108 -245 251c0 130 88 234 230 234c41 0 83 -14 123 -45c-7 41 -22 74 -45 99l-64 -43l-56 79l25 17c-23 5 -48 8 -76 8v110c79 0 140 -11 191 -40l76 51l56 -79zM289 95c77 0 119 66 119 145
c0 71 -44 130 -121 130h-8c-72 0 -111 -59 -111 -129c0 -80 38 -146 113 -146h8z" />
    <glyph glyph-name="dcaron" unicode="&#x10f;" horiz-adv-x="706" 
d="M260 -10c-145 0 -222 125 -222 260s77 260 222 260c70 0 124 -40 144 -75v265h130v-700h-130v65c-20 -35 -74 -75 -144 -75zM589 455v75h23c37 0 54 16 54 39v1h-52v130h130v-130c0 -67 -52 -115 -127 -115h-28zM282 95h8c60 0 114 60 114 155s-54 155 -114 155h-8
c-65 0 -114 -59 -114 -154s49 -156 114 -156z" />
    <glyph glyph-name="dcroat" unicode="&#x111;" horiz-adv-x="601" 
d="M621 645v-90h-87v-555h-130v65c-20 -35 -74 -75 -144 -75c-145 0 -222 125 -222 260s77 260 222 260c70 0 124 -40 144 -75v120h-128v90h128v55h130v-55h87zM290 95c60 0 114 60 114 155s-54 155 -114 155h-8c-65 0 -114 -59 -114 -154s49 -156 114 -156h8z" />
    <glyph glyph-name="e" unicode="e" horiz-adv-x="546" 
d="M277 -10c-125 0 -238 95 -238 260c0 150 88 260 238 260s228 -109 228 -254c0 -15 -1 -31 -2 -47h-338c5 -69 59 -114 113 -114h8c49 0 79 29 88 63h129c-24 -98 -101 -168 -226 -168zM165 309h214c-3 60 -49 96 -103 96h-8c-54 0 -100 -36 -103 -96z" />
    <glyph glyph-name="eacute" unicode="&#xe9;" horiz-adv-x="546" 
d="M232 550l25 150h150l-100 -150h-75zM277 -10c-125 0 -238 95 -238 260c0 150 88 260 238 260s228 -109 228 -254c0 -15 -1 -31 -2 -47h-338c5 -69 59 -114 113 -114h8c49 0 79 29 88 63h129c-24 -98 -101 -168 -226 -168zM165 309h214c-3 60 -49 96 -103 96h-8
c-54 0 -100 -36 -103 -96z" />
    <glyph glyph-name="ebreve" unicode="&#x115;" horiz-adv-x="546" 
d="M273 552c-98 0 -166 45 -168 148h112c2 -39 19 -65 56 -65s55 26 57 65h111c-2 -103 -70 -148 -168 -148zM277 -10c-125 0 -238 95 -238 260c0 150 88 260 238 260s228 -109 228 -254c0 -15 -1 -31 -2 -47h-338c5 -69 59 -114 113 -114h8c49 0 79 29 88 63h129
c-24 -98 -101 -168 -226 -168zM165 309h214c-3 60 -49 96 -103 96h-8c-54 0 -100 -36 -103 -96z" />
    <glyph glyph-name="ecaron" unicode="&#x11b;" horiz-adv-x="546" 
d="M353 550h-160l-100 150h80l100 -72l100 72h80zM505 256c0 -15 -1 -31 -2 -47h-338c5 -69 59 -114 113 -114h8c49 0 79 29 88 63h129c-24 -98 -101 -168 -226 -168s-238 95 -238 260c0 150 88 260 238 260s228 -109 228 -254zM165 309h214c-3 60 -49 96 -103 96h-8
c-54 0 -100 -36 -103 -96z" />
    <glyph glyph-name="ecircumflex" unicode="&#xea;" horiz-adv-x="546" 
d="M273 622l-100 -72h-80l100 150h160l100 -150h-80zM505 256c0 -15 -1 -31 -2 -47h-338c5 -69 59 -114 113 -114h8c49 0 79 29 88 63h129c-24 -98 -101 -168 -226 -168s-238 95 -238 260c0 150 88 260 238 260s228 -109 228 -254zM165 309h214c-3 60 -49 96 -103 96h-8
c-54 0 -100 -36 -103 -96z" />
    <glyph glyph-name="edieresis" unicode="&#xeb;" horiz-adv-x="546" 
d="M113 565v130h120v-130h-120zM313 565v130h120v-130h-120zM277 -10c-125 0 -238 95 -238 260c0 150 88 260 238 260s228 -109 228 -254c0 -15 -1 -31 -2 -47h-338c5 -69 59 -114 113 -114h8c49 0 79 29 88 63h129c-24 -98 -101 -168 -226 -168zM165 309h214
c-3 60 -49 96 -103 96h-8c-54 0 -100 -36 -103 -96z" />
    <glyph glyph-name="edotaccent" unicode="&#x117;" horiz-adv-x="546" 
d="M203 565v135h140v-135h-140zM277 -10c-125 0 -238 95 -238 260c0 150 88 260 238 260s228 -109 228 -254c0 -15 -1 -31 -2 -47h-338c5 -69 59 -114 113 -114h8c49 0 79 29 88 63h129c-24 -98 -101 -168 -226 -168zM165 309h214c-3 60 -49 96 -103 96h-8
c-54 0 -100 -36 -103 -96z" />
    <glyph glyph-name="uni1EB9" unicode="&#x1eb9;" horiz-adv-x="546" 
d="M277 -10c-125 0 -238 95 -238 260c0 150 88 260 238 260s228 -109 228 -254c0 -15 -1 -31 -2 -47h-338c5 -69 59 -114 113 -114h8c49 0 79 29 88 63h129c-24 -98 -101 -168 -226 -168zM165 309h214c-3 60 -49 96 -103 96h-8c-54 0 -100 -36 -103 -96zM212 -195v130h130
v-130h-130z" />
    <glyph glyph-name="egrave" unicode="&#xe8;" horiz-adv-x="546" 
d="M238 550l-100 150h150l25 -150h-75zM277 -10c-125 0 -238 95 -238 260c0 150 88 260 238 260s228 -109 228 -254c0 -15 -1 -31 -2 -47h-338c5 -69 59 -114 113 -114h8c49 0 79 29 88 63h129c-24 -98 -101 -168 -226 -168zM165 309h214c-3 60 -49 96 -103 96h-8
c-54 0 -100 -36 -103 -96z" />
    <glyph glyph-name="emacron" unicode="&#x113;" horiz-adv-x="546" 
d="M120 565v105h305v-105h-305zM277 -10c-125 0 -238 95 -238 260c0 150 88 260 238 260s228 -109 228 -254c0 -15 -1 -31 -2 -47h-338c5 -69 59 -114 113 -114h8c49 0 79 29 88 63h129c-24 -98 -101 -168 -226 -168zM165 309h214c-3 60 -49 96 -103 96h-8
c-54 0 -100 -36 -103 -96z" />
    <glyph glyph-name="eogonek" unicode="&#x119;" horiz-adv-x="546" 
d="M505 256c0 -15 -1 -31 -2 -47h-338c5 -69 59 -114 113 -114h8c49 0 79 29 88 63h129c-20 -81 -76 -143 -166 -162c-32 -19 -73 -49 -73 -86c0 -35 25 -50 50 -50h30v-80h-50c-70 0 -120 42 -120 100c0 53 31 89 65 113c-109 17 -200 109 -200 257c0 150 88 260 238 260
s228 -109 228 -254zM165 309h214c-3 60 -49 96 -103 96h-8c-54 0 -100 -36 -103 -96z" />
    <glyph glyph-name="f" unicode="f" horiz-adv-x="396" 
d="M123 0v395h-102v105h102v70c0 85 45 130 130 130h143v-108h-88c-45 0 -55 -10 -55 -55v-37h118v-105h-118v-395h-130z" />
    <glyph glyph-name="g" unicode="g" horiz-adv-x="593" 
d="M267 -220c-133 0 -231 67 -236 164h130c6 -34 44 -59 112 -59h6c65 0 117 39 117 119v66c-30 -50 -86 -70 -141 -70c-115 0 -216 90 -216 255s101 255 216 255c55 0 111 -20 141 -70v60h130v-512c0 -105 -86 -208 -259 -208zM281 105h8c60 0 107 55 107 150
s-47 150 -107 150h-8c-63 0 -112 -55 -112 -150s49 -150 112 -150z" />
    <glyph glyph-name="gbreve" unicode="&#x11f;" horiz-adv-x="593" 
d="M282 552c-98 0 -166 45 -168 148h112c2 -39 19 -65 56 -65s55 26 57 65h111c-2 -103 -70 -148 -168 -148zM267 -220c-133 0 -231 67 -236 164h130c6 -34 44 -59 112 -59h6c65 0 117 39 117 119v66c-30 -50 -86 -70 -141 -70c-115 0 -216 90 -216 255s101 255 216 255
c55 0 111 -20 141 -70v60h130v-512c0 -105 -86 -208 -259 -208zM281 105h8c60 0 107 55 107 150s-47 150 -107 150h-8c-63 0 -112 -55 -112 -150s49 -150 112 -150z" />
    <glyph glyph-name="gcircumflex" unicode="&#x11d;" horiz-adv-x="593" 
d="M282 622l-100 -72h-80l100 150h160l100 -150h-80zM396 500h130v-512c0 -105 -86 -208 -259 -208c-133 0 -231 67 -236 164h130c6 -34 44 -59 112 -59h6c65 0 117 39 117 119v66c-30 -50 -86 -70 -141 -70c-115 0 -216 90 -216 255s101 255 216 255c55 0 111 -20 141 -70
v60zM289 105c60 0 107 55 107 150s-47 150 -107 150h-8c-63 0 -112 -55 -112 -150s49 -150 112 -150h8z" />
    <glyph glyph-name="uni0123" unicode="&#x123;" horiz-adv-x="593" 
d="M372 815v-75h-23c-37 0 -54 -16 -54 -39v-1h52v-130h-130v130c0 67 52 115 127 115h28zM267 -220c-133 0 -231 67 -236 164h130c6 -34 44 -59 112 -59h6c65 0 117 39 117 119v66c-30 -50 -86 -70 -141 -70c-115 0 -216 90 -216 255s101 255 216 255c55 0 111 -20 141 -70
v60h130v-512c0 -105 -86 -208 -259 -208zM281 105h8c60 0 107 55 107 150s-47 150 -107 150h-8c-63 0 -112 -55 -112 -150s49 -150 112 -150z" />
    <glyph glyph-name="gdotaccent" unicode="&#x121;" horiz-adv-x="593" 
d="M212 565v135h140v-135h-140zM267 -220c-133 0 -231 67 -236 164h130c6 -34 44 -59 112 -59h6c65 0 117 39 117 119v66c-30 -50 -86 -70 -141 -70c-115 0 -216 90 -216 255s101 255 216 255c55 0 111 -20 141 -70v60h130v-512c0 -105 -86 -208 -259 -208zM281 105h8
c60 0 107 55 107 150s-47 150 -107 150h-8c-63 0 -112 -55 -112 -150s49 -150 112 -150z" />
    <glyph glyph-name="h" unicode="h" horiz-adv-x="584" 
d="M67 0v700h130v-273c30 50 86 83 151 83c120 0 174 -80 174 -190v-320h-130v305c0 65 -29 100 -79 100h-8c-60 0 -108 -57 -108 -127v-278h-130z" />
    <glyph glyph-name="hbar" unicode="&#x127;" horiz-adv-x="584" 
d="M348 510c120 0 174 -80 174 -190v-320h-130v305c0 65 -29 100 -79 100h-8c-60 0 -108 -57 -108 -127v-278h-130v555h-79v90h79v55h130v-55h136v-90h-136v-128c30 50 86 83 151 83z" />
    <glyph glyph-name="hcircumflex" unicode="&#x125;" horiz-adv-x="584" 
d="M308 812l-100 -72h-80l100 150h160l100 -150h-80zM348 510c120 0 174 -80 174 -190v-320h-130v305c0 65 -29 100 -79 100h-8c-60 0 -108 -57 -108 -127v-278h-130v700h130v-273c30 50 86 83 151 83z" />
    <glyph glyph-name="i" unicode="i" horiz-adv-x="264" 
d="M62 565v135h140v-135h-140zM67 0v500h130v-500h-130z" />
    <glyph glyph-name="dotlessi" unicode="&#x131;" horiz-adv-x="264" 
d="M67 0v500h130v-500h-130z" />
    <glyph glyph-name="iacute" unicode="&#xed;" horiz-adv-x="264" 
d="M91 550l25 150h150l-100 -150h-75zM67 0v500h130v-500h-130z" />
    <glyph glyph-name="ibreve" unicode="&#x12d;" horiz-adv-x="264" 
d="M132 552c-98 0 -166 45 -168 148h112c2 -39 19 -65 56 -65s55 26 57 65h111c-2 -103 -70 -148 -168 -148zM67 0v500h130v-500h-130z" />
    <glyph glyph-name="icircumflex" unicode="&#xee;" horiz-adv-x="264" 
d="M212 700l100 -150h-80l-100 72l-100 -72h-80l100 150h160zM67 0v500h130v-500h-130z" />
    <glyph glyph-name="idieresis" unicode="&#xef;" horiz-adv-x="264" 
d="M-28 565v130h120v-130h-120zM172 565v130h120v-130h-120zM67 0v500h130v-500h-130z" />
    <glyph glyph-name="i.loclTRK" horiz-adv-x="264" 
d="M62 565v135h140v-135h-140zM67 0v500h130v-500h-130z" />
    <glyph glyph-name="uni1ECB" unicode="&#x1ecb;" horiz-adv-x="264" 
d="M62 565v135h140v-135h-140zM67 0v500h130v-500h-130zM67 -195v130h130v-130h-130z" />
    <glyph glyph-name="igrave" unicode="&#xec;" horiz-adv-x="264" 
d="M97 550l-100 150h150l25 -150h-75zM67 0v500h130v-500h-130z" />
    <glyph glyph-name="ij" unicode="&#x133;" horiz-adv-x="507" 
d="M62 565v135h140v-135h-140zM304 565v135h140v-135h-140zM67 -200v110h188c40 0 55 15 55 55v535h130v-575c0 -80 -45 -125 -125 -125h-248zM67 0v500h130v-500h-130z" />
    <glyph glyph-name="imacron" unicode="&#x12b;" horiz-adv-x="264" 
d="M-21 565v105h305v-105h-305zM67 0v500h130v-500h-130z" />
    <glyph glyph-name="iogonek" unicode="&#x12f;" horiz-adv-x="264" 
d="M62 700h140v-135h-140v135zM67 0v500h130v-500c-33 -19 -80 -50 -80 -90c0 -35 25 -50 50 -50h30v-80h-50c-70 0 -120 42 -120 100s38 97 76 120h-36z" />
    <glyph glyph-name="itilde" unicode="&#x129;" horiz-adv-x="264" 
d="M211 555c-25 0 -50 8 -80 24l-18 10c-16 9 -26 16 -42 16c-17 0 -34 -17 -34 -40h-95v26c0 62 49 114 112 114c37 0 56 -10 75 -20l18 -10c16 -8 33 -20 49 -20c17 0 30 17 30 40h95v-26c0 -62 -51 -114 -110 -114zM67 0v500h130v-500h-130z" />
    <glyph glyph-name="j" unicode="j" horiz-adv-x="272" 
d="M70 565v135h140v-135h-140zM-82 -200v110h102c40 0 55 15 55 55v535h130v-575c0 -80 -45 -125 -125 -125h-162z" />
    <glyph glyph-name="uni0237" unicode="&#x237;" horiz-adv-x="272" 
d="M-82 -200v110h102c40 0 55 15 55 55v535h130v-575c0 -80 -45 -125 -125 -125h-162z" />
    <glyph glyph-name="jcircumflex" unicode="&#x135;" horiz-adv-x="272" 
d="M220 700l100 -150h-80l-100 72l-100 -72h-80l100 150h160zM75 -35v535h130v-575c0 -80 -45 -125 -125 -125h-162v110h102c40 0 55 15 55 55z" />
    <glyph glyph-name="k" unicode="k" horiz-adv-x="551" 
d="M394 0l-139 208l-58 -59v-149h-130v700h130v-386l181 186h159l-192 -199l202 -301h-153z" />
    <glyph glyph-name="uni0137" unicode="&#x137;" horiz-adv-x="551" 
d="M345 301l202 -301h-153l-139 208l-58 -59v-149h-130v700h130v-386l181 186h159zM222 -195v130h130v-130c0 -67 -52 -115 -127 -115h-28v75h23c37 0 54 16 54 39v1h-52z" />
    <glyph glyph-name="l" unicode="l" horiz-adv-x="264" 
d="M67 0v700h130v-700h-130z" />
    <glyph glyph-name="lacute" unicode="&#x13a;" horiz-adv-x="264" 
d="M91 745l25 150h150l-100 -150h-75zM67 0v700h130v-700h-130z" />
    <glyph glyph-name="lcaron" unicode="&#x13e;" horiz-adv-x="369" 
d="M67 0v700h130v-700h-130zM252 455v75h23c37 0 54 16 54 39v1h-52v130h130v-130c0 -67 -52 -115 -127 -115h-28z" />
    <glyph glyph-name="uni013C" unicode="&#x13c;" horiz-adv-x="264" 
d="M67 0v700h130v-700h-130zM42 -310v75h23c37 0 54 16 54 39v1h-52v130h130v-130c0 -67 -52 -115 -127 -115h-28z" />
    <glyph glyph-name="ldot" unicode="&#x140;" horiz-adv-x="372" 
d="M67 0v700h130v-700h-130zM253 285v131h130v-131h-130z" />
    <glyph glyph-name="lslash" unicode="&#x142;" horiz-adv-x="334" 
d="M315 539v-120l-80 -45v-374h-130v300l-80 -45v120l80 45v280h130v-206z" />
    <glyph glyph-name="m" unicode="m" horiz-adv-x="904" 
d="M67 0v500h130v-71c35 57 93 81 149 81c70 0 125 -29 153 -86c38 61 102 86 165 86c130 0 178 -85 178 -195v-315h-130v300c0 65 -23 100 -77 100h-8c-60 0 -107 -52 -107 -122v-278h-130v300c0 65 -24 100 -78 100h-8c-60 0 -107 -52 -107 -122v-278h-130z" />
    <glyph glyph-name="n" unicode="n" horiz-adv-x="584" 
d="M67 0v500h130v-73c30 50 86 83 151 83c120 0 174 -80 174 -190v-320h-130v305c0 65 -29 100 -79 100h-8c-60 0 -108 -57 -108 -127v-278h-130z" />
    <glyph glyph-name="nacute" unicode="&#x144;" horiz-adv-x="584" 
d="M255 550l25 150h150l-100 -150h-75zM67 0v500h130v-73c30 50 86 83 151 83c120 0 174 -80 174 -190v-320h-130v305c0 65 -29 100 -79 100h-8c-60 0 -108 -57 -108 -127v-278h-130z" />
    <glyph glyph-name="ncaron" unicode="&#x148;" horiz-adv-x="584" 
d="M376 550h-160l-100 150h80l100 -72l100 72h80zM348 510c120 0 174 -80 174 -190v-320h-130v305c0 65 -29 100 -79 100h-8c-60 0 -108 -57 -108 -127v-278h-130v500h130v-73c30 50 86 83 151 83z" />
    <glyph glyph-name="uni0146" unicode="&#x146;" horiz-adv-x="584" 
d="M67 0v500h130v-73c30 50 86 83 151 83c120 0 174 -80 174 -190v-320h-130v305c0 65 -29 100 -79 100h-8c-60 0 -108 -57 -108 -127v-278h-130zM206 -310v75h23c37 0 54 16 54 39v1h-52v130h130v-130c0 -67 -52 -115 -127 -115h-28z" />
    <glyph glyph-name="eng" unicode="&#x14b;" horiz-adv-x="584" 
d="M287 -202v112h50c40 0 55 15 55 55v340c0 65 -29 100 -79 100h-8c-60 0 -108 -57 -108 -127v-278h-130v500h130v-73c30 50 86 83 151 83c120 0 174 -80 174 -190v-397c0 -80 -45 -125 -125 -125h-110z" />
    <glyph glyph-name="ntilde" unicode="&#xf1;" horiz-adv-x="584" 
d="M375 555c-25 0 -50 8 -80 24l-18 10c-16 9 -26 16 -42 16c-17 0 -34 -17 -34 -40h-95v26c0 62 49 114 112 114c37 0 56 -10 75 -20l18 -10c16 -8 33 -20 49 -20c17 0 30 17 30 40h95v-26c0 -62 -51 -114 -110 -114zM67 0v500h130v-73c30 50 86 83 151 83
c120 0 174 -80 174 -190v-320h-130v305c0 65 -29 100 -79 100h-8c-60 0 -108 -57 -108 -127v-278h-130z" />
    <glyph glyph-name="o" unicode="o" horiz-adv-x="576" 
d="M288 -10c-150 0 -250 110 -250 260s100 260 250 260s250 -110 250 -260s-100 -260 -250 -260zM284 95h8c70 0 115 57 115 155s-45 155 -115 155h-8c-70 0 -115 -57 -115 -155s45 -155 115 -155z" />
    <glyph glyph-name="oacute" unicode="&#xf3;" horiz-adv-x="576" 
d="M247 550l25 150h150l-100 -150h-75zM288 -10c-150 0 -250 110 -250 260s100 260 250 260s250 -110 250 -260s-100 -260 -250 -260zM284 95h8c70 0 115 57 115 155s-45 155 -115 155h-8c-70 0 -115 -57 -115 -155s45 -155 115 -155z" />
    <glyph glyph-name="obreve" unicode="&#x14f;" horiz-adv-x="576" 
d="M288 552c-98 0 -166 45 -168 148h112c2 -39 19 -65 56 -65s55 26 57 65h111c-2 -103 -70 -148 -168 -148zM288 -10c-150 0 -250 110 -250 260s100 260 250 260s250 -110 250 -260s-100 -260 -250 -260zM284 95h8c70 0 115 57 115 155s-45 155 -115 155h-8
c-70 0 -115 -57 -115 -155s45 -155 115 -155z" />
    <glyph glyph-name="ocircumflex" unicode="&#xf4;" horiz-adv-x="576" 
d="M288 622l-100 -72h-80l100 150h160l100 -150h-80zM288 510c150 0 250 -110 250 -260s-100 -260 -250 -260s-250 110 -250 260s100 260 250 260zM292 95c70 0 115 57 115 155s-45 155 -115 155h-8c-70 0 -115 -57 -115 -155s45 -155 115 -155h8z" />
    <glyph glyph-name="odieresis" unicode="&#xf6;" horiz-adv-x="576" 
d="M128 565v130h120v-130h-120zM328 565v130h120v-130h-120zM288 -10c-150 0 -250 110 -250 260s100 260 250 260s250 -110 250 -260s-100 -260 -250 -260zM284 95h8c70 0 115 57 115 155s-45 155 -115 155h-8c-70 0 -115 -57 -115 -155s45 -155 115 -155z" />
    <glyph glyph-name="uni1ECD" unicode="&#x1ecd;" horiz-adv-x="576" 
d="M288 -10c-150 0 -250 110 -250 260s100 260 250 260s250 -110 250 -260s-100 -260 -250 -260zM284 95h8c70 0 115 57 115 155s-45 155 -115 155h-8c-70 0 -115 -57 -115 -155s45 -155 115 -155zM223 -195v130h130v-130h-130z" />
    <glyph glyph-name="ograve" unicode="&#xf2;" horiz-adv-x="576" 
d="M253 550l-100 150h150l25 -150h-75zM288 -10c-150 0 -250 110 -250 260s100 260 250 260s250 -110 250 -260s-100 -260 -250 -260zM284 95h8c70 0 115 57 115 155s-45 155 -115 155h-8c-70 0 -115 -57 -115 -155s45 -155 115 -155z" />
    <glyph glyph-name="ohungarumlaut" unicode="&#x151;" horiz-adv-x="576" 
d="M162 550l25 150h150l-100 -150h-75zM321 550l25 150h150l-100 -150h-75zM288 -10c-150 0 -250 110 -250 260s100 260 250 260s250 -110 250 -260s-100 -260 -250 -260zM284 95h8c70 0 115 57 115 155s-45 155 -115 155h-8c-70 0 -115 -57 -115 -155s45 -155 115 -155z
" />
    <glyph glyph-name="omacron" unicode="&#x14d;" horiz-adv-x="576" 
d="M135 565v105h305v-105h-305zM288 -10c-150 0 -250 110 -250 260s100 260 250 260s250 -110 250 -260s-100 -260 -250 -260zM284 95h8c70 0 115 57 115 155s-45 155 -115 155h-8c-70 0 -115 -57 -115 -155s45 -155 115 -155z" />
    <glyph glyph-name="oslash" unicode="&#xf8;" horiz-adv-x="581" 
d="M488 418c34 -44 53 -102 53 -168c0 -150 -100 -260 -250 -260c-42 0 -81 9 -114 25l-50 -65l-84 70l49 64c-33 45 -51 102 -51 166c0 150 100 260 250 260c41 0 78 -8 110 -23l48 63l89 -66zM172 250c0 -20 2 -38 5 -55l156 204c-12 4 -24 6 -38 6h-8
c-70 0 -115 -57 -115 -155zM295 95c70 0 115 57 115 155c0 22 -2 42 -6 59l-159 -206c13 -5 27 -8 42 -8h8z" />
    <glyph glyph-name="oslashacute" unicode="&#x1ff;" horiz-adv-x="581" 
d="M422 700l-100 -150h-75l25 150h150zM488 418c34 -44 53 -102 53 -168c0 -150 -100 -260 -250 -260c-42 0 -81 9 -114 25l-50 -65l-84 70l49 64c-33 45 -51 102 -51 166c0 150 100 260 250 260c41 0 78 -8 110 -23l48 63l89 -66zM172 250c0 -20 2 -38 5 -55l156 204
c-12 4 -24 6 -38 6h-8c-70 0 -115 -57 -115 -155zM295 95c70 0 115 57 115 155c0 22 -2 42 -6 59l-159 -206c13 -5 27 -8 42 -8h8z" />
    <glyph glyph-name="otilde" unicode="&#xf5;" horiz-adv-x="576" 
d="M367 555c-25 0 -50 8 -80 24l-18 10c-16 9 -26 16 -42 16c-17 0 -34 -17 -34 -40h-95v26c0 62 49 114 112 114c37 0 56 -10 75 -20l18 -10c16 -8 33 -20 49 -20c17 0 30 17 30 40h95v-26c0 -62 -51 -114 -110 -114zM288 -10c-150 0 -250 110 -250 260s100 260 250 260
s250 -110 250 -260s-100 -260 -250 -260zM284 95h8c70 0 115 57 115 155s-45 155 -115 155h-8c-70 0 -115 -57 -115 -155s45 -155 115 -155z" />
    <glyph glyph-name="oe" unicode="&#x153;" horiz-adv-x="916" 
d="M288 -10c-150 0 -250 110 -250 260s100 260 250 260c76 0 139 -28 183 -75c40 47 100 75 176 75c150 0 228 -109 228 -254c0 -15 -1 -31 -2 -47h-338c5 -68 57 -114 113 -114h8c49 0 79 29 88 63h129c-24 -98 -101 -168 -226 -168c-67 0 -130 27 -174 77
c-44 -48 -108 -77 -185 -77zM284 95h8c70 0 115 57 115 155s-45 155 -115 155h-8c-70 0 -115 -57 -115 -155s45 -155 115 -155zM535 309h214c-3 60 -49 96 -103 96h-8c-54 0 -100 -36 -103 -96z" />
    <glyph glyph-name="p" unicode="p" horiz-adv-x="601" 
d="M67 -200v700h130v-65c20 35 74 75 144 75c145 0 222 -125 222 -260s-77 -260 -222 -260c-70 0 -124 40 -144 75v-265h-130zM311 95h8c65 0 114 60 114 155s-49 155 -114 155h-8c-60 0 -114 -60 -114 -155s54 -155 114 -155z" />
    <glyph glyph-name="thorn" unicode="&#xfe;" horiz-adv-x="601" 
d="M67 -200v900h130v-265c20 35 74 75 144 75c145 0 222 -125 222 -260s-77 -260 -222 -260c-70 0 -124 40 -144 75v-265h-130zM311 95h8c65 0 114 59 114 154s-49 156 -114 156h-8c-60 0 -114 -60 -114 -155s54 -155 114 -155z" />
    <glyph glyph-name="q" unicode="q" horiz-adv-x="601" 
d="M404 -200v265c-20 -35 -74 -75 -144 -75c-145 0 -222 125 -222 260s77 260 222 260c70 0 124 -40 144 -75v65h130v-700h-130zM282 95h8c60 0 114 60 114 155s-54 155 -114 155h-8c-65 0 -114 -61 -114 -156s48 -154 114 -154z" />
    <glyph glyph-name="r" unicode="r" horiz-adv-x="388" 
d="M67 0v500h130v-100c20 65 70 105 145 105h25v-120h-45c-85 0 -125 -40 -125 -125v-260h-130z" />
    <glyph glyph-name="racute" unicode="&#x155;" horiz-adv-x="388" 
d="M142 550l25 150h150l-100 -150h-75zM67 0v500h130v-100c20 65 70 105 145 105h25v-120h-45c-85 0 -125 -40 -125 -125v-260h-130z" />
    <glyph glyph-name="rcaron" unicode="&#x159;" horiz-adv-x="388" 
d="M263 550h-160l-100 150h80l100 -72l100 72h80zM342 505h25v-120h-45c-85 0 -125 -40 -125 -125v-260h-130v500h130v-100c20 65 70 105 145 105z" />
    <glyph glyph-name="uni0157" unicode="&#x157;" horiz-adv-x="388" 
d="M67 0v500h130v-100c20 65 70 105 145 105h25v-120h-45c-85 0 -125 -40 -125 -125v-260h-130zM42 -310v75h23c37 0 54 16 54 39v1h-52v130h130v-130c0 -67 -52 -115 -127 -115h-28z" />
    <glyph glyph-name="s" unicode="s" horiz-adv-x="497" 
d="M249 -10c-135 0 -217 65 -217 175h133c0 -45 34 -75 84 -75h8c40 0 68 19 68 49c0 26 -17 41 -53 50l-65 16c-105 26 -155 70 -155 151c0 90 76 154 201 154c130 0 205 -65 205 -170h-130c-5 43 -30 70 -75 70h-8c-35 0 -65 -14 -65 -49c0 -27 25 -41 66 -51l67 -17
c96 -24 140 -70 140 -149c0 -85 -69 -154 -204 -154z" />
    <glyph glyph-name="sacute" unicode="&#x15b;" horiz-adv-x="497" 
d="M204 550l25 150h150l-100 -150h-75zM249 -10c-135 0 -217 65 -217 175h133c0 -45 34 -75 84 -75h8c40 0 68 19 68 49c0 26 -17 41 -53 50l-65 16c-105 26 -155 70 -155 151c0 90 76 154 201 154c130 0 205 -65 205 -170h-130c-5 43 -30 70 -75 70h-8
c-35 0 -65 -14 -65 -49c0 -27 25 -41 66 -51l67 -17c96 -24 140 -70 140 -149c0 -85 -69 -154 -204 -154z" />
    <glyph glyph-name="scaron" unicode="&#x161;" horiz-adv-x="497" 
d="M325 550h-160l-100 150h80l100 -72l100 72h80zM313 293c96 -24 140 -70 140 -149c0 -85 -69 -154 -204 -154s-217 65 -217 175h133c0 -45 34 -75 84 -75h8c40 0 68 19 68 49c0 26 -17 41 -53 50l-65 16c-105 26 -155 70 -155 151c0 90 76 154 201 154
c130 0 205 -65 205 -170h-130c-5 43 -30 70 -75 70h-8c-35 0 -65 -14 -65 -49c0 -27 25 -41 66 -51z" />
    <glyph glyph-name="scedilla" unicode="&#x15f;" horiz-adv-x="497" 
d="M313 293c96 -24 140 -70 140 -149c0 -78 -58 -143 -172 -153v-36c50 0 95 -30 95 -95s-50 -105 -120 -105h-80v75h85c25 0 40 10 40 30c0 15 -10 30 -35 30h-55v102c-112 11 -179 74 -179 173h133c0 -45 34 -75 84 -75h8c40 0 68 19 68 49c0 26 -17 41 -53 50l-65 16
c-105 26 -155 70 -155 151c0 90 76 154 201 154c130 0 205 -65 205 -170h-130c-5 43 -30 70 -75 70h-8c-35 0 -65 -14 -65 -49c0 -27 25 -41 66 -51z" />
    <glyph glyph-name="scircumflex" unicode="&#x15d;" horiz-adv-x="497" 
d="M245 622l-100 -72h-80l100 150h160l100 -150h-80zM313 293c96 -24 140 -70 140 -149c0 -85 -69 -154 -204 -154s-217 65 -217 175h133c0 -45 34 -75 84 -75h8c40 0 68 19 68 49c0 26 -17 41 -53 50l-65 16c-105 26 -155 70 -155 151c0 90 76 154 201 154
c130 0 205 -65 205 -170h-130c-5 43 -30 70 -75 70h-8c-35 0 -65 -14 -65 -49c0 -27 25 -41 66 -51z" />
    <glyph glyph-name="uni0219" unicode="&#x219;" horiz-adv-x="497" 
d="M249 -10c-135 0 -217 65 -217 175h133c0 -45 34 -75 84 -75h8c40 0 68 19 68 49c0 26 -17 41 -53 50l-65 16c-105 26 -155 70 -155 151c0 90 76 154 201 154c130 0 205 -65 205 -170h-130c-5 43 -30 70 -75 70h-8c-35 0 -65 -14 -65 -49c0 -27 25 -41 66 -51l67 -17
c96 -24 140 -70 140 -149c0 -85 -69 -154 -204 -154zM156 -310v75h23c37 0 54 16 54 39v1h-52v130h130v-130c0 -67 -52 -115 -127 -115h-28z" />
    <glyph glyph-name="germandbls" unicode="&#xdf;" horiz-adv-x="554" 
d="M67 -185v688c0 125 81 207 216 207c125 0 209 -80 209 -180c0 -85 -49 -135 -116 -162c75 -13 141 -80 141 -170c0 -125 -97 -198 -227 -198h-48v105h18c80 0 127 38 127 108s-57 99 -127 99h-18v105h18c55 0 107 33 107 98c0 60 -36 90 -81 90h-6
c-45 0 -83 -32 -83 -107v-683h-130z" />
    <glyph glyph-name="t" unicode="t" horiz-adv-x="407" 
d="M250 0c-85 0 -130 45 -130 130v265h-103v105h103v162h130v-162h112v-105h-112v-230c0 -45 10 -55 55 -55h72v-110h-127z" />
    <glyph glyph-name="tbar" unicode="&#x167;" horiz-adv-x="418" 
d="M314 110h72v-110h-127c-85 0 -130 45 -130 130v92h-103v90h103v83h-103v105h103v162h130v-162h112v-105h-112v-83h112v-90h-112v-57c0 -45 10 -55 55 -55z" />
    <glyph glyph-name="tcaron" unicode="&#x165;" horiz-adv-x="407" 
d="M328 565v75h23c37 0 54 16 54 39v1h-52v130h130v-130c0 -67 -52 -115 -127 -115h-28zM250 0c-85 0 -130 45 -130 130v265h-103v105h103v162h130v-162h112v-105h-112v-230c0 -45 10 -55 55 -55h72v-110h-127z" />
    <glyph glyph-name="uni0163" unicode="&#x163;" horiz-adv-x="407" 
d="M377 0h-126v-45c50 0 95 -30 95 -95s-50 -105 -120 -105h-80v75h85c25 0 40 10 40 30c0 15 -10 30 -35 30h-55v124c-40 19 -61 58 -61 116v265h-103v105h103v162h130v-162h112v-105h-112v-230c0 -45 10 -55 55 -55h72v-110z" />
    <glyph glyph-name="uni021B" unicode="&#x21b;" horiz-adv-x="407" 
d="M250 0c-85 0 -130 45 -130 130v265h-103v105h103v162h130v-162h112v-105h-112v-230c0 -45 10 -55 55 -55h72v-110h-127zM126 -310v75h23c37 0 54 16 54 39v1h-52v130h130v-130c0 -67 -52 -115 -127 -115h-28z" />
    <glyph glyph-name="u" unicode="u" horiz-adv-x="574" 
d="M231 -10c-117 0 -169 80 -169 190v320h130v-305c0 -65 27 -100 74 -100h8c57 0 103 57 103 127v278h130v-500h-130v73c-30 -50 -83 -83 -146 -83z" />
    <glyph glyph-name="uacute" unicode="&#xfa;" horiz-adv-x="574" 
d="M244 550l25 150h150l-100 -150h-75zM231 -10c-117 0 -169 80 -169 190v320h130v-305c0 -65 27 -100 74 -100h8c57 0 103 57 103 127v278h130v-500h-130v73c-30 -50 -83 -83 -146 -83z" />
    <glyph glyph-name="ubreve" unicode="&#x16d;" horiz-adv-x="574" 
d="M285 552c-98 0 -166 45 -168 148h112c2 -39 19 -65 56 -65s55 26 57 65h111c-2 -103 -70 -148 -168 -148zM231 -10c-117 0 -169 80 -169 190v320h130v-305c0 -65 27 -100 74 -100h8c57 0 103 57 103 127v278h130v-500h-130v73c-30 -50 -83 -83 -146 -83z" />
    <glyph glyph-name="ucircumflex" unicode="&#xfb;" horiz-adv-x="574" 
d="M285 622l-100 -72h-80l100 150h160l100 -150h-80zM377 500h130v-500h-130v73c-30 -50 -83 -83 -146 -83c-117 0 -169 80 -169 190v320h130v-305c0 -65 27 -100 74 -100h8c57 0 103 57 103 127v278z" />
    <glyph glyph-name="udieresis" unicode="&#xfc;" horiz-adv-x="574" 
d="M125 565v130h120v-130h-120zM325 565v130h120v-130h-120zM231 -10c-117 0 -169 80 -169 190v320h130v-305c0 -65 27 -100 74 -100h8c57 0 103 57 103 127v278h130v-500h-130v73c-30 -50 -83 -83 -146 -83z" />
    <glyph glyph-name="uni1EE5" unicode="&#x1ee5;" horiz-adv-x="574" 
d="M231 -10c-117 0 -169 80 -169 190v320h130v-305c0 -65 27 -100 74 -100h8c57 0 103 57 103 127v278h130v-500h-130v73c-30 -50 -83 -83 -146 -83zM209 -195v130h130v-130h-130z" />
    <glyph glyph-name="ugrave" unicode="&#xf9;" horiz-adv-x="574" 
d="M250 550l-100 150h150l25 -150h-75zM231 -10c-117 0 -169 80 -169 190v320h130v-305c0 -65 27 -100 74 -100h8c57 0 103 57 103 127v278h130v-500h-130v73c-30 -50 -83 -83 -146 -83z" />
    <glyph glyph-name="uhungarumlaut" unicode="&#x171;" horiz-adv-x="574" 
d="M159 550l25 150h150l-100 -150h-75zM318 550l25 150h150l-100 -150h-75zM231 -10c-117 0 -169 80 -169 190v320h130v-305c0 -65 27 -100 74 -100h8c57 0 103 57 103 127v278h130v-500h-130v73c-30 -50 -83 -83 -146 -83z" />
    <glyph glyph-name="umacron" unicode="&#x16b;" horiz-adv-x="574" 
d="M132 565v105h305v-105h-305zM231 -10c-117 0 -169 80 -169 190v320h130v-305c0 -65 27 -100 74 -100h8c57 0 103 57 103 127v278h130v-500h-130v73c-30 -50 -83 -83 -146 -83z" />
    <glyph glyph-name="uogonek" unicode="&#x173;" horiz-adv-x="574" 
d="M507 0c-33 -19 -80 -50 -80 -90c0 -35 25 -50 50 -50h30v-80h-50c-70 0 -120 42 -120 100s38 97 76 120h-36v73c-30 -50 -83 -83 -146 -83c-117 0 -169 80 -169 190v320h130v-305c0 -65 27 -100 74 -100h8c57 0 103 57 103 127v278h130v-500z" />
    <glyph glyph-name="uring" unicode="&#x16f;" horiz-adv-x="574" 
d="M285 540c-55 0 -105 45 -105 105c0 55 50 105 105 105c60 0 105 -50 105 -105c0 -60 -45 -105 -105 -105zM286 601c24 0 43 20 43 44s-19 44 -43 44s-44 -20 -44 -44s20 -44 44 -44zM231 -10c-117 0 -169 80 -169 190v320h130v-305c0 -65 27 -100 74 -100h8
c57 0 103 57 103 127v278h130v-500h-130v73c-30 -50 -83 -83 -146 -83z" />
    <glyph glyph-name="utilde" unicode="&#x169;" horiz-adv-x="574" 
d="M364 555c-25 0 -50 8 -80 24l-18 10c-16 9 -26 16 -42 16c-17 0 -34 -17 -34 -40h-95v26c0 62 49 114 112 114c37 0 56 -10 75 -20l18 -10c16 -8 33 -20 49 -20c17 0 30 17 30 40h95v-26c0 -62 -51 -114 -110 -114zM231 -10c-117 0 -169 80 -169 190v320h130v-305
c0 -65 27 -100 74 -100h8c57 0 103 57 103 127v278h130v-500h-130v73c-30 -50 -83 -83 -146 -83z" />
    <glyph glyph-name="v" unicode="v" horiz-adv-x="559" 
d="M413 500h134l-173 -500h-189l-173 500h138l132 -404z" />
    <glyph glyph-name="w" unicode="w" horiz-adv-x="791" 
d="M647 500h126l-143 -500h-146l-88 350l-83 -350h-146l-153 500h131l100 -371l81 371h139l87 -368z" />
    <glyph glyph-name="wacute" unicode="&#x1e83;" horiz-adv-x="791" 
d="M530 700l-100 -150h-75l25 150h150zM647 500h126l-143 -500h-146l-88 350l-83 -350h-146l-153 500h131l100 -371l81 371h139l87 -368z" />
    <glyph glyph-name="wcircumflex" unicode="&#x175;" horiz-adv-x="791" 
d="M396 622l-100 -72h-80l100 150h160l100 -150h-80zM647 500h126l-143 -500h-146l-88 350l-83 -350h-146l-153 500h131l100 -371l81 371h139l87 -368z" />
    <glyph glyph-name="wdieresis" unicode="&#x1e85;" horiz-adv-x="791" 
d="M356 695v-130h-120v130h120zM556 695v-130h-120v130h120zM647 500h126l-143 -500h-146l-88 350l-83 -350h-146l-153 500h131l100 -371l81 371h139l87 -368z" />
    <glyph glyph-name="wgrave" unicode="&#x1e81;" horiz-adv-x="791" 
d="M436 550h-75l-100 150h150zM647 500h126l-143 -500h-146l-88 350l-83 -350h-146l-153 500h131l100 -371l81 371h139l87 -368z" />
    <glyph glyph-name="x" unicode="x" horiz-adv-x="525" 
d="M515 0h-145l-109 153l-110 -153h-141l181 252l-176 248h145l104 -146l105 146h141l-176 -245z" />
    <glyph glyph-name="y" unicode="y" horiz-adv-x="573" 
d="M568 500l-213 -456v-116c0 -85 -45 -130 -130 -130h-182v112h133c45 0 55 10 55 55v74l-218 461h146l135 -304l130 304h144z" />
    <glyph glyph-name="yacute" unicode="&#xfd;" horiz-adv-x="573" 
d="M426 700l-100 -150h-75l25 150h150zM568 500l-213 -456v-116c0 -85 -45 -130 -130 -130h-182v112h133c45 0 55 10 55 55v74l-218 461h146l135 -304l130 304h144z" />
    <glyph glyph-name="ycircumflex" unicode="&#x177;" horiz-adv-x="573" 
d="M292 622l-100 -72h-80l100 150h160l100 -150h-80zM568 500l-213 -456v-116c0 -85 -45 -130 -130 -130h-182v112h133c45 0 55 10 55 55v74l-218 461h146l135 -304l130 304h144z" />
    <glyph glyph-name="ydieresis" unicode="&#xff;" horiz-adv-x="573" 
d="M252 695v-130h-120v130h120zM452 695v-130h-120v130h120zM568 500l-213 -456v-116c0 -85 -45 -130 -130 -130h-182v112h133c45 0 55 10 55 55v74l-218 461h146l135 -304l130 304h144z" />
    <glyph glyph-name="ygrave" unicode="&#x1ef3;" horiz-adv-x="573" 
d="M332 550h-75l-100 150h150zM568 500l-213 -456v-116c0 -85 -45 -130 -130 -130h-182v112h133c45 0 55 10 55 55v74l-218 461h146l135 -304l130 304h144z" />
    <glyph glyph-name="uni0233" unicode="&#x233;" horiz-adv-x="573" 
d="M444 670v-105h-305v105h305zM568 500l-213 -456v-116c0 -85 -45 -130 -130 -130h-182v112h133c45 0 55 10 55 55v74l-218 461h146l135 -304l130 304h144z" />
    <glyph glyph-name="y.ss04" horiz-adv-x="558" 
d="M408 500h144l-248 -622c-23 -56 -51 -80 -126 -80h-151v112h115c35 0 41 8 52 36l33 86l-230 468h146l147 -305z" />
    <glyph glyph-name="yacute.ss04" horiz-adv-x="558" 
d="M413 700l-100 -150h-75l25 150h150zM408 500h144l-248 -622c-23 -56 -51 -80 -126 -80h-151v112h115c35 0 41 8 52 36l33 86l-230 468h146l147 -305z" />
    <glyph glyph-name="ycircumflex.ss04" horiz-adv-x="558" 
d="M279 622l-100 -72h-80l100 150h160l100 -150h-80zM408 500h144l-248 -622c-23 -56 -51 -80 -126 -80h-151v112h115c35 0 41 8 52 36l33 86l-230 468h146l147 -305z" />
    <glyph glyph-name="ydieresis.ss04" horiz-adv-x="558" 
d="M239 695v-130h-120v130h120zM439 695v-130h-120v130h120zM408 500h144l-248 -622c-23 -56 -51 -80 -126 -80h-151v112h115c35 0 41 8 52 36l33 86l-230 468h146l147 -305z" />
    <glyph glyph-name="ygrave.ss04" horiz-adv-x="558" 
d="M319 550h-75l-100 150h150zM408 500h144l-248 -622c-23 -56 -51 -80 -126 -80h-151v112h115c35 0 41 8 52 36l33 86l-230 468h146l147 -305z" />
    <glyph glyph-name="uni0233.ss04" horiz-adv-x="558" 
d="M431 670v-105h-305v105h305zM408 500h144l-248 -622c-23 -56 -51 -80 -126 -80h-151v112h115c35 0 41 8 52 36l33 86l-230 468h146l147 -305z" />
    <glyph glyph-name="z" unicode="z" horiz-adv-x="509" 
d="M201 115h273v-115h-435v100l258 285h-253v115h415v-100z" />
    <glyph glyph-name="zacute" unicode="&#x17a;" horiz-adv-x="509" 
d="M386 700l-100 -150h-75l25 150h150zM201 115h273v-115h-435v100l258 285h-253v115h415v-100z" />
    <glyph glyph-name="zcaron" unicode="&#x17e;" horiz-adv-x="509" 
d="M332 550h-160l-100 150h80l100 -72l100 72h80zM201 115h273v-115h-435v100l258 285h-253v115h415v-100z" />
    <glyph glyph-name="zdotaccent" unicode="&#x17c;" horiz-adv-x="509" 
d="M322 700v-135h-140v135h140zM201 115h273v-115h-435v100l258 285h-253v115h415v-100z" />
    <glyph glyph-name="I_S_B_N" horiz-adv-x="2258" 
d="M1632 0v455c0 160 85 255 275 255s275 -95 275 -255v-455h-135v435c0 110 -45 155 -135 155h-10c-90 0 -135 -45 -135 -155v-435h-135zM82 0v700h135v-580h400c75 0 114 33 114 78c0 41 -17 63 -79 76l-125 26c-125 26 -180 97 -180 200c0 100 78 200 250 200h680
c135 0 215 -81 215 -181c0 -85 -50 -144 -118 -164c73 -15 133 -74 133 -169c0 -105 -90 -186 -220 -186h-320v413h290c65 0 100 29 100 84s-35 83 -100 83h-655c-75 0 -120 -28 -120 -77c0 -45 25 -63 85 -75l105 -21c120 -24 194 -87 194 -202c0 -114 -81 -205 -254 -205
h-530zM1102 120h165c65 0 105 29 105 89s-40 88 -105 88h-165v-177z" />
    <glyph glyph-name="w_w_w" horiz-adv-x="2057" 
d="M167 0l-153 500h131l100 -371l81 371h139l87 -368l95 368h131l100 -371l81 371h139l87 -368l95 368h131l100 -371l81 371h139l87 -368l95 368h126l-143 -500h-146l-88 350l-83 -350h-146l-88 287l-82 -287h-146l-88 350l-83 -350h-146l-88 287l-82 -287h-146l-88 350
l-83 -350h-146z" />
    <glyph glyph-name="ordfeminine" unicode="&#xaa;" horiz-adv-x="378" 
d="M139 410c-53 0 -93 34 -93 87c0 57 51 79 108 86l65 8v9c0 20 -12 33 -32 33h-4c-17 0 -30 -5 -34 -22h-93c3 56 48 94 131 94c77 0 128 -41 128 -99v-128c0 -17 1 -43 4 -63h-89c-2 8 -3 20 -4 36c-21 -27 -49 -41 -87 -41zM170 482h4c23 0 47 17 47 49v10l-55 -10
c-14 -3 -24 -12 -24 -25c0 -16 11 -24 28 -24z" />
    <glyph glyph-name="ordmasculine" unicode="&#xba;" horiz-adv-x="390" 
d="M195 410c-96 0 -154 64 -154 147s58 148 154 148s154 -65 154 -148s-58 -147 -154 -147zM193 490h4c31 0 50 24 50 67s-19 68 -50 68h-4c-31 0 -50 -25 -50 -68s19 -67 50 -67z" />
    <glyph glyph-name="a.sups" horiz-adv-x="343" 
d="M122 410c-53 0 -93 34 -93 87c0 57 51 79 108 86l65 8v9c0 20 -12 33 -32 33h-4c-17 0 -30 -5 -34 -22h-93c3 56 48 94 131 94c77 0 128 -41 128 -99v-128c0 -17 1 -43 4 -63h-89c-2 8 -3 20 -4 36c-21 -27 -49 -41 -87 -41zM153 482h4c23 0 47 17 47 49v10l-55 -10
c-14 -3 -24 -12 -24 -25c0 -16 11 -24 28 -24z" />
    <glyph glyph-name="a.sups.ss01" horiz-adv-x="395" 
d="M164 410c-69 0 -134 53 -134 148s65 147 134 147c42 0 68 -18 84 -36v31h99v-285h-102v37c-16 -19 -39 -42 -81 -42zM188 489c37 0 60 29 60 69s-23 68 -60 68c-32 0 -56 -28 -56 -68s24 -69 56 -69z" />
    <glyph glyph-name="b.sups" horiz-adv-x="395" 
d="M236 410c-45 0 -71 20 -86 40v-35h-102v395h99v-145c15 20 44 40 89 40c70 0 129 -53 129 -148s-59 -147 -129 -147zM207 490c32 0 56 27 56 67s-24 68 -56 68c-36 0 -60 -28 -60 -68s24 -67 60 -67z" />
    <glyph glyph-name="c.sups" horiz-adv-x="352" 
d="M185 410c-88 0 -155 48 -155 147s67 148 155 148c97 0 133 -57 138 -113h-101c-3 19 -14 33 -40 33h-4c-35 0 -46 -33 -46 -68s11 -67 46 -67h4c26 0 37 11 40 30h101c-6 -55 -41 -110 -138 -110z" />
    <glyph glyph-name="d.sups" horiz-adv-x="396" 
d="M160 410c-70 0 -129 52 -129 147s59 148 129 148c45 0 74 -20 89 -40v145h99v-395h-102v35c-15 -20 -41 -40 -86 -40zM189 490c36 0 60 27 60 67s-24 68 -60 68c-32 0 -56 -28 -56 -68s24 -67 56 -67z" />
    <glyph glyph-name="e.sups" horiz-adv-x="353" 
d="M180 410c-87 0 -151 58 -151 145c0 88 60 150 148 150c89 0 145 -63 145 -146c0 -11 0 -17 -1 -22h-196c3 -34 22 -54 53 -54h4c25 0 41 10 44 25h95c-6 -55 -61 -98 -141 -98zM125 584h100c-2 31 -20 47 -46 47h-4c-26 0 -47 -16 -50 -47z" />
    <glyph glyph-name="f.sups" horiz-adv-x="260" 
d="M74 415v203h-56v82h56v21c0 60 29 89 89 89h95v-75h-60c-17 0 -22 -10 -22 -27v-8h67v-82h-67v-203h-102z" />
    <glyph glyph-name="g.sups" horiz-adv-x="385" 
d="M177 285c-72 0 -134 31 -142 102h102c5 -18 21 -27 39 -27h6c41 0 59 22 59 58v45c-11 -24 -37 -44 -81 -44c-76 0 -129 55 -129 143s50 143 126 143c44 0 68 -21 78 -47v42h102v-279c0 -69 -49 -136 -160 -136zM183 497c35 0 52 32 52 65s-16 65 -51 65
c-28 0 -51 -22 -51 -65s22 -65 50 -65z" />
    <glyph glyph-name="h.sups" horiz-adv-x="386" 
d="M48 415v395h102v-150c20 35 56 45 86 45c77 0 105 -51 105 -117v-173h-102v169c0 27 -14 42 -37 42h-4c-26 0 -48 -18 -48 -49v-162h-102z" />
    <glyph glyph-name="i.sups" horiz-adv-x="198" 
d="M45 735v75h108v-75h-108zM48 415v285h102v-285h-102z" />
    <glyph glyph-name="j.sups" horiz-adv-x="199" 
d="M46 735v75h108v-75h-108zM-40 290v85h49c34 0 40 6 40 40v285h102v-321c0 -60 -29 -89 -89 -89h-102z" />
    <glyph glyph-name="k.sups" horiz-adv-x="376" 
d="M244 415l-67 103l-29 -30v-73h-100v395h100v-195l81 85h125l-109 -112l115 -173h-116z" />
    <glyph glyph-name="l.sups" horiz-adv-x="198" 
d="M48 415v395h102v-395h-102z" />
    <glyph glyph-name="m.sups" horiz-adv-x="579" 
d="M48 415v285h102v-38c20 29 49 43 90 43c39 0 72 -16 90 -50c21 34 56 50 102 50c67 0 102 -44 102 -106v-184h-102v163c0 32 -15 47 -39 47h-4c-28 0 -47 -19 -47 -48v-162h-102v163c0 32 -15 47 -39 47h-4c-28 0 -47 -19 -47 -48v-162h-102z" />
    <glyph glyph-name="n.sups" horiz-adv-x="386" 
d="M48 415v285h102v-40c20 35 56 45 86 45c77 0 105 -51 105 -117v-173h-102v169c0 27 -14 42 -37 42h-4c-26 0 -48 -18 -48 -49v-162h-102z" />
    <glyph glyph-name="o.sups" horiz-adv-x="366" 
d="M183 410c-96 0 -154 64 -154 147s58 148 154 148s154 -65 154 -148s-58 -147 -154 -147zM181 490h4c31 0 50 24 50 67s-19 68 -50 68h-4c-31 0 -50 -25 -50 -68s19 -67 50 -67z" />
    <glyph glyph-name="p.sups" horiz-adv-x="395" 
d="M48 305v395h102v-35c15 20 41 40 86 40c70 0 129 -52 129 -147s-59 -148 -129 -148c-45 0 -74 20 -89 40v-145h-99zM207 490c32 0 56 28 56 68s-24 67 -56 67c-36 0 -60 -27 -60 -67s24 -68 60 -68z" />
    <glyph glyph-name="q.sups" horiz-adv-x="396" 
d="M249 305v145c-15 -20 -44 -40 -89 -40c-70 0 -129 53 -129 148s59 147 129 147c45 0 71 -20 86 -40v35h102v-395h-99zM189 490c36 0 60 28 60 68s-24 67 -60 67c-32 0 -56 -27 -56 -67s24 -68 56 -68z" />
    <glyph glyph-name="r.sups" horiz-adv-x="261" 
d="M48 415v285h105v-53c10 32 31 55 82 55h8v-86h-34c-49 0 -59 -35 -59 -70v-131h-102z" />
    <glyph glyph-name="s.sups" horiz-adv-x="335" 
d="M165 410c-90 0 -133 31 -138 101h99c1 -19 13 -34 39 -34h4c18 0 31 9 31 22c0 12 -7 18 -21 21l-67 14c-39 8 -74 29 -74 79c0 66 63 92 129 92c96 0 134 -39 139 -99h-97c-1 21 -12 32 -35 32h-5c-16 0 -32 -7 -32 -20c0 -10 8 -16 19 -18l72 -16c45 -10 71 -28 71 -78
c0 -68 -66 -96 -134 -96z" />
    <glyph glyph-name="t.sups" horiz-adv-x="276" 
d="M159 415c-60 0 -89 29 -89 89v114h-56v82h56v90h102v-90h64v-82h-64v-80c0 -34 6 -39 40 -39h33v-84h-86z" />
    <glyph glyph-name="u.sups" horiz-adv-x="386" 
d="M150 410c-77 0 -105 51 -105 117v173h102v-169c0 -27 14 -42 37 -42h4c26 0 48 18 48 49v162h102v-285h-102v40c-20 -35 -56 -45 -86 -45z" />
    <glyph glyph-name="v.sups" horiz-adv-x="367" 
d="M259 700h101l-111 -285h-131l-111 285h107l72 -189z" />
    <glyph glyph-name="w.sups" horiz-adv-x="497" 
d="M393 700h91l-101 -285h-79l-53 161l-48 -161h-89l-101 285h100l45 -151l50 151h94l47 -150z" />
    <glyph glyph-name="x.sups" horiz-adv-x="359" 
d="M19 415l107 143l-106 142h107l53 -71l53 71h106l-106 -141l107 -144h-107l-54 72l-54 -72h-106z" />
    <glyph glyph-name="y.sups" horiz-adv-x="367" 
d="M39 300v82h69c27 0 36 9 36 36v10l-144 272h115l71 -150l73 150h108l-130 -248v-70c0 -57 -25 -82 -82 -82h-116z" />
    <glyph glyph-name="y.sups.ss04" horiz-adv-x="363" 
d="M32 300v82h52c25 0 32 9 39 28l5 12l-125 278h109l71 -161l71 161h108l-165 -363c-11 -23 -28 -37 -54 -37h-111z" />
    <glyph glyph-name="z.sups" horiz-adv-x="346" 
d="M171 497h141v-82h-276v65l132 138h-129v82h264v-67z" />
    <glyph glyph-name="uni0410" unicode="&#x410;" horiz-adv-x="713" 
d="M564 0l-63 165h-294l-63 -165h-142l277 700h158l270 -700h-143zM253 285h202l-101 265z" />
    <glyph glyph-name="uni0411" unicode="&#x411;" horiz-adv-x="657" 
d="M82 0v700h493l1 -120h-359v-147h175c172 0 230 -97 230 -204c0 -123 -62 -229 -224 -229h-316zM217 120h165c65 0 105 39 105 103c0 65 -40 94 -105 94h-165v-197z" />
    <glyph glyph-name="uni0412" unicode="&#x412;" horiz-adv-x="667" 
d="M82 0v700h310c135 0 215 -81 215 -181c0 -85 -50 -144 -118 -164c73 -15 133 -74 133 -169c0 -105 -90 -186 -220 -186h-320zM217 413h155c65 0 100 29 100 84s-35 83 -100 83h-155v-167zM217 120h165c65 0 105 29 105 89s-40 88 -105 88h-165v-177z" />
    <glyph glyph-name="uni0413" unicode="&#x413;" horiz-adv-x="521" 
d="M82 0l1 700h426v-120h-292v-580h-135z" />
    <glyph glyph-name="uni0403" unicode="&#x403;" horiz-adv-x="521" 
d="M256 745l40 145h155l-105 -145h-90zM82 0l1 700h426v-120h-292v-580h-135z" />
    <glyph glyph-name="uni0490" unicode="&#x490;" horiz-adv-x="521" 
d="M509 805v-225h-292v-580h-135l1 700h295v105h131z" />
    <glyph glyph-name="uni0414" unicode="&#x414;" horiz-adv-x="790" 
d="M663 120h101v-265h-131v145h-485v-145h-132v265l49 1c49 1 77 23 83 79c7 63 8 177 9 326l1 174h505v-580zM528 120v460h-241v-57c0 -88 -1 -272 -7 -325c-4 -37 -15 -63 -34 -78h282z" />
    <glyph glyph-name="uni0415" unicode="&#x415;" horiz-adv-x="661" 
d="M82 0v700h530v-120h-395v-161h335v-120h-335v-179h405v-120h-540z" />
    <glyph glyph-name="uni0401" unicode="&#x401;" horiz-adv-x="661" 
d="M198 765v120h125v-120h-125zM393 765v120h125v-120h-125zM82 0v700h530v-120h-395v-161h335v-120h-335v-179h405v-120h-540z" />
    <glyph glyph-name="uni0416" unicode="&#x416;" horiz-adv-x="1046" 
d="M886 0l-190 335l-107 -130v-205h-131v204l-116 128l-181 -332h-159l241 440l-224 260h157l282 -328v328h131v-329l283 329h157l-231 -265l247 -435h-159z" />
    <glyph glyph-name="uni0417" unicode="&#x417;" horiz-adv-x="642" 
d="M465 354c72 -17 130 -66 130 -153c0 -133 -106 -211 -269 -211c-179 0 -279 87 -288 240h135c12 -81 62 -120 156 -120c86 0 131 32 131 94c0 59 -42 89 -120 89h-96v120h89c77 0 118 35 118 94c0 50 -42 85 -124 85c-96 0 -140 -56 -148 -124h-135c4 99 76 242 280 242
c172 0 262 -83 262 -203c0 -68 -40 -128 -121 -153z" />
    <glyph glyph-name="uni0418" unicode="&#x418;" horiz-adv-x="762" 
d="M514 700h166v-700h-135v517l-298 -517h-165v700h135v-516z" />
    <glyph glyph-name="uni0419" unicode="&#x419;" horiz-adv-x="762" 
d="M377 750c-118 0 -180 49 -182 140h109c4 -37 33 -55 73 -55s71 18 75 55h109c-2 -91 -67 -140 -184 -140zM514 700h166v-700h-135v517l-298 -517h-165v700h135v-516z" />
    <glyph glyph-name="uni041A" unicode="&#x41a;" horiz-adv-x="686" 
d="M520 0l-211 308l-92 -97v-211h-135v700h135v-314l297 314h167l-275 -290l281 -410h-167z" />
    <glyph glyph-name="uni040C" unicode="&#x40c;" horiz-adv-x="686" 
d="M479 890l-105 -145h-90l40 145h155zM520 0l-211 308l-92 -97v-211h-135v700h135v-314l297 314h167l-275 -290l281 -410h-167z" />
    <glyph glyph-name="uni041B" unicode="&#x41b;" horiz-adv-x="749" 
d="M16 0v124l47 1c55 1 83 13 90 101c5 66 9 178 9 284v190h505v-700h-135v580h-241v-72c0 -90 -4 -268 -13 -352c-8 -76 -51 -156 -195 -156h-67z" />
    <glyph glyph-name="uni041C" unicode="&#x41c;" horiz-adv-x="929" 
d="M638 700h209v-700h-132v552l-174 -552h-148l-179 553v-553h-132v700h210l176 -550z" />
    <glyph glyph-name="uni041D" unicode="&#x41d;" horiz-adv-x="739" 
d="M82 0v700h135v-290h305v290h135v-700h-135v290h-305v-290h-135z" />
    <glyph glyph-name="uni041E" unicode="&#x41e;" horiz-adv-x="766" 
d="M383 -10c-200 0 -340 135 -340 360s140 360 340 360s340 -135 340 -360s-140 -360 -340 -360zM378 110h10c125 0 200 90 200 240s-75 240 -200 240h-10c-125 0 -200 -90 -200 -240s75 -240 200 -240z" />
    <glyph glyph-name="uni041F" unicode="&#x41f;" horiz-adv-x="735" 
d="M82 700h571v-700h-135v580h-301v-580h-135v700z" />
    <glyph glyph-name="uni0420" unicode="&#x420;" horiz-adv-x="652" 
d="M82 0v700h315c135 0 225 -80 225 -220s-90 -221 -225 -221h-180v-259h-135zM217 379h165c70 0 105 41 105 101s-35 100 -105 100h-165v-201z" />
    <glyph glyph-name="uni0421" unicode="&#x421;" horiz-adv-x="711" 
d="M379 -10c-215 0 -335 145 -335 360s120 360 335 360c185 0 284 -108 294 -240h-135c-15 76 -69 120 -154 120h-10c-115 0 -195 -90 -195 -240s80 -240 195 -240h10c85 0 139 42 154 120h135c-10 -137 -109 -240 -294 -240z" />
    <glyph glyph-name="uni0422" unicode="&#x422;" horiz-adv-x="656" 
d="M260 0v580h-242v120h620v-120h-243v-580h-135z" />
    <glyph glyph-name="uni0423" unicode="&#x423;" horiz-adv-x="666" 
d="M522 700h141l-276 -603c-30 -66 -75 -97 -155 -97h-114v120h84c39 2 58 13 73 41l-271 539h151l190 -387z" />
    <glyph glyph-name="uni040E" unicode="&#x40e;" horiz-adv-x="666" 
d="M339 750c-118 0 -180 49 -182 140h109c4 -37 33 -55 73 -55s71 18 75 55h109c-2 -91 -67 -140 -184 -140zM522 700h141l-276 -603c-30 -66 -75 -97 -155 -97h-114v120h84c39 2 58 13 73 41l-271 539h151l190 -387z" />
    <glyph glyph-name="uni0424" unicode="&#x424;" horiz-adv-x="859" 
d="M363 -24v71c-171 3 -324 93 -324 303s153 300 324 303v71h133v-71c171 -3 324 -93 324 -303s-153 -300 -324 -303v-71h-133zM363 161v378c-98 -2 -188 -71 -188 -189s90 -187 188 -189zM496 161c98 2 188 71 188 189s-90 187 -188 189v-378z" />
    <glyph glyph-name="uni0425" unicode="&#x425;" horiz-adv-x="642" 
d="M641 0h-159l-163 245l-166 -245h-152l242 359l-227 341h159l148 -223l151 223h152l-227 -336z" />
    <glyph glyph-name="uni0427" unicode="&#x427;" horiz-adv-x="682" 
d="M465 0v251h-224c-129 0 -185 50 -185 146l-1 303h135v-234c0 -69 19 -95 95 -95h180v329h135v-700h-135z" />
    <glyph glyph-name="uni0426" unicode="&#x426;" horiz-adv-x="779" 
d="M757 -145h-131v145h-544v700h135v-580h299v580h135v-580h105z" />
    <glyph glyph-name="uni0428" unicode="&#x428;" horiz-adv-x="1055" 
d="M838 700h135v-700h-891v700h135v-580h243v580h135v-580h243v580z" />
    <glyph glyph-name="uni0429" unicode="&#x429;" horiz-adv-x="1094" 
d="M1063 -145h-131v145h-850v700h135v-580h243v580h135v-580h243v580h135v-580h89z" />
    <glyph glyph-name="uni040F" unicode="&#x40f;" horiz-adv-x="733" 
d="M651 700v-700h-219v-145h-131v145h-219v700h135v-580h299v580h135z" />
    <glyph glyph-name="uni042C" unicode="&#x42c;" horiz-adv-x="651" 
d="M391 439c157 0 231 -87 231 -212c0 -112 -66 -227 -229 -227h-311v700h135v-261h174zM382 120c65 0 105 33 105 102c0 71 -40 101 -115 101h-155v-203h165z" />
    <glyph glyph-name="uni042A" unicode="&#x42a;" horiz-adv-x="821" 
d="M561 439c157 0 231 -87 231 -212c0 -112 -66 -227 -229 -227h-311v580h-239v120h374v-261h174zM552 120c65 0 105 33 105 102c0 71 -40 101 -115 101h-155v-203h165z" />
    <glyph glyph-name="uni042B" unicode="&#x42b;" horiz-adv-x="916" 
d="M391 439c157 0 231 -87 231 -212c0 -112 -66 -227 -229 -227h-311v700h135v-261h174zM699 700h135v-700h-135v700zM382 120c65 0 105 33 105 102c0 71 -40 101 -115 101h-155v-203h165z" />
    <glyph glyph-name="uni0409" unicode="&#x409;" horiz-adv-x="1096" 
d="M836 439c157 0 231 -87 231 -212c0 -112 -66 -227 -229 -227h-311v580h-236v-72c0 -90 -4 -268 -13 -352c-8 -76 -51 -156 -195 -156h-67v124l47 1c55 1 83 13 90 101c5 66 9 178 9 284v190h500v-261h174zM827 120c65 0 105 33 105 102c0 71 -40 101 -115 101h-155v-203
h165z" />
    <glyph glyph-name="uni040A" unicode="&#x40a;" horiz-adv-x="1089" 
d="M830 420c150 0 232 -81 232 -200c0 -135 -87 -220 -242 -220h-298v300h-305v-300h-135v700h135v-280h305v280h135v-280h173zM810 120c73 0 117 25 117 95c0 60 -44 85 -107 85h-163v-180h153z" />
    <glyph glyph-name="uni0405" unicode="&#x405;" horiz-adv-x="634" 
d="M314 -10c-192 0 -280 100 -285 245h135c5 -70 55 -125 160 -125h10c75 0 114 40 114 85c0 40 -17 64 -79 77l-125 26c-125 26 -180 98 -180 202c0 105 93 210 265 210c170 0 265 -97 265 -230h-135c-5 73 -58 110 -130 110h-10c-75 0 -120 -40 -120 -85
c0 -46 25 -67 85 -79l105 -21c120 -24 194 -86 194 -200c0 -120 -96 -215 -269 -215z" />
    <glyph glyph-name="uni0404" unicode="&#x404;" horiz-adv-x="707" 
d="M384 110c85 0 139 42 154 120h135c-10 -137 -109 -240 -294 -240c-215 0 -335 145 -335 360s120 360 335 360c185 0 284 -108 294 -240h-135c-15 76 -69 120 -154 120h-10c-98 0 -171 -66 -190 -178h295v-120h-296c18 -115 92 -182 191 -182h10z" />
    <glyph glyph-name="uni042D" unicode="&#x42d;" horiz-adv-x="706" 
d="M337 710c215 0 325 -145 325 -360s-115 -360 -330 -360c-185 0 -289 103 -299 240h135c16 -78 74 -120 159 -120h10c99 0 169 67 186 182h-298v120h298c-17 112 -82 178 -180 178h-10c-105 0 -151 -54 -165 -120h-135c14 113 93 240 304 240z" />
    <glyph glyph-name="uni0406" unicode="&#x406;" horiz-adv-x="299" 
d="M82 0v700h135v-700h-135z" />
    <glyph glyph-name="uni0407" unicode="&#x407;" horiz-adv-x="299" 
d="M-10 765v120h125v-120h-125zM185 765v120h125v-120h-125zM82 0v700h135v-700h-135z" />
    <glyph glyph-name="uni0408" unicode="&#x408;" horiz-adv-x="429" 
d="M28 0v130h128c45 0 60 15 60 60v510h135v-560c0 -85 -55 -140 -140 -140h-183z" />
    <glyph glyph-name="uni040B" unicode="&#x40b;" horiz-adv-x="834" 
d="M251 0v580h-232v120h610v-120h-243v-161h216c124 0 181 -58 181 -167v-252h-134v213c0 60 -22 86 -87 86h-176v-299h-135z" />
    <glyph glyph-name="uni042E" unicode="&#x42e;" horiz-adv-x="1038" 
d="M655 710c200 0 340 -135 340 -360s-140 -360 -340 -360c-182 0 -314 111 -336 300h-102v-290h-135v700h135v-290h102c22 189 154 300 336 300zM660 110c125 0 200 90 200 240s-75 240 -200 240h-10c-125 0 -200 -90 -200 -240s75 -240 200 -240h10z" />
    <glyph glyph-name="uni042F" unicode="&#x42f;" horiz-adv-x="684" 
d="M72 0v234c0 63 33 99 104 99c-72 29 -114 88 -114 177c0 110 95 190 235 190h305v-700h-135v265h-195c-50 0 -65 -15 -65 -65v-200h-135zM317 383h150v197h-150c-80 0 -120 -31 -120 -96s40 -101 120 -101z" />
    <glyph glyph-name="uni042F.ss03" horiz-adv-x="684" 
d="M27 0l78 256c15 49 39 73 82 80c-56 15 -125 79 -125 174c0 117 105 190 235 190h305v-700h-135v265h-174c-35 0 -52 -19 -64 -58l-65 -207h-137zM327 383h140v197h-150c-80 0 -120 -32 -120 -96c0 -65 50 -101 130 -101z" />
    <glyph glyph-name="uni0402" unicode="&#x402;" horiz-adv-x="845" 
d="M251 0v580h-232v120h622v-120h-255v-151h214c129 0 205 -72 205 -184v-40c0 -132 -62 -205 -198 -205h-52v117h42c40 0 74 23 74 90v10c0 60 -28 92 -95 92h-190v-309h-135z" />
    <glyph glyph-name="uni0462" unicode="&#x462;" horiz-adv-x="792" 
d="M517 439c157 0 231 -87 231 -212c0 -112 -66 -227 -229 -227h-311v509h-182v115h182v76h135v-76h228v-115h-228v-70h174zM508 120c65 0 105 33 105 102c0 71 -40 101 -115 101h-155v-203h165z" />
    <glyph glyph-name="uni0472" unicode="&#x472;" horiz-adv-x="766" 
d="M383 710c200 0 340 -135 340 -360s-140 -360 -340 -360s-340 135 -340 360s140 360 340 360zM378 590c-111 0 -183 -71 -197 -193c27 23 61 38 99 38c37 0 71 -12 95 -20l26 -9c25 -9 54 -19 96 -19c33 0 60 9 85 34c-21 107 -90 169 -194 169h-10zM388 110
c111 0 183 72 197 193c-23 -18 -57 -29 -92 -30c-42 -1 -78 11 -110 21l-26 8c-25 8 -50 18 -82 18c-35 0 -60 -8 -92 -34c19 -111 89 -176 195 -176h10z" />
    <glyph glyph-name="uni0474" unicode="&#x474;" horiz-adv-x="756" 
d="M670 700h63v-124h-20c-43 0 -72 -27 -90 -76l-183 -500h-175l-258 700h151l197 -557l137 402c36 107 90 155 178 155z" />
    <glyph glyph-name="uni0492" unicode="&#x492;" horiz-adv-x="557" 
d="M540 580h-292v-190h185v-115h-185v-275h-135v275h-98v115h99v310h426v-120z" />
    <glyph glyph-name="uni0496" unicode="&#x496;" horiz-adv-x="1091" 
d="M1083 -145h-131v145h-66l-190 335l-107 -130v-205h-131v204l-116 128l-181 -332h-159l241 440l-224 260h157l282 -328v328h131v-329l283 329h157l-231 -265l179 -315h105z" />
    <glyph glyph-name="uni049A" unicode="&#x49a;" horiz-adv-x="722" 
d="M710 -145h-131v145h-59l-211 308l-92 -97v-211h-135v700h135v-314l297 314h167l-275 -290l199 -290h104z" />
    <glyph glyph-name="uni04A2" unicode="&#x4a2;" horiz-adv-x="785" 
d="M763 -145h-131v145h-110v290h-305v-290h-135v700h135v-290h305v290h135v-580h105z" />
    <glyph glyph-name="uni04AE" unicode="&#x4ae;" horiz-adv-x="663" 
d="M512 700h148l-261 -420v-280h-135v280l-260 420h153l179 -294z" />
    <glyph glyph-name="uni04B0" unicode="&#x4b0;" horiz-adv-x="661" 
d="M659 700l-261 -420h170v-115h-170v-165h-135v165h-170v115h170l-260 420h153l179 -294l176 294h148z" />
    <glyph glyph-name="uni04B2" unicode="&#x4b2;" horiz-adv-x="720" 
d="M716 -145h-131v145h-103l-163 245l-166 -245h-152l242 359l-227 341h159l148 -223l151 223h152l-227 -336l162 -244h154z" />
    <glyph glyph-name="uni04B6" unicode="&#x4b6;" horiz-adv-x="740" 
d="M726 -145h-131v145h-130v251h-224c-129 0 -185 50 -185 146l-1 303h135v-234c0 -69 19 -95 95 -95h180v329h135v-580h125z" />
    <glyph glyph-name="uni04BA" unicode="&#x4ba;" horiz-adv-x="669" 
d="M82 0v700h135v-251h220c119 0 177 -50 177 -156v-293h-134v234c0 69 -19 95 -95 95h-168v-329h-135z" />
    <glyph glyph-name="uni04C0" unicode="&#x4c0;" horiz-adv-x="299" 
d="M82 0v700h135v-700h-135z" />
    <glyph glyph-name="uni04D8" unicode="&#x4d8;" horiz-adv-x="735" 
d="M361 -10c-212 0 -317 133 -317 363c0 10 0 16 1 32h510c-4 132 -78 205 -189 205h-10c-89 0 -151 -44 -167 -120h-135c14 142 134 240 309 240c222 0 328 -150 328 -360c0 -205 -116 -360 -330 -360zM360 110h10c91 0 153 57 177 155h-361c5 -105 86 -155 174 -155z" />
    <glyph glyph-name="uni04E2" unicode="&#x4e2;" horiz-adv-x="762" 
d="M536 875v-110h-335v110h335zM514 700h166v-700h-135v517l-298 -517h-165v700h135v-516z" />
    <glyph glyph-name="uni04E8" unicode="&#x4e8;" horiz-adv-x="766" 
d="M383 710c200 0 340 -135 340 -360s-140 -360 -340 -360s-340 135 -340 360s140 360 340 360zM378 590c-108 0 -179 -67 -196 -182h402c-17 115 -88 182 -196 182h-10zM388 110c108 0 178 67 196 181h-402c18 -114 88 -181 196 -181h10z" />
    <glyph glyph-name="uni04EE" unicode="&#x4ee;" horiz-adv-x="666" 
d="M505 850v-110h-335v110h335zM522 700h141l-276 -603c-30 -66 -75 -97 -155 -97h-114v120h84c39 2 58 13 73 41l-271 539h151l190 -387z" />
    <glyph glyph-name="uni041B.loclBGR" horiz-adv-x="715" 
d="M709 0h-151l-207 558l-199 -558h-148l262 700h175z" />
    <glyph glyph-name="uni0424.loclBGR" horiz-adv-x="871" 
d="M371 -70v73c-192 20 -332 138 -332 347c0 218 140 327 332 347v71h129v-71c193 -19 332 -128 332 -347c0 -210 -139 -324 -332 -346v-74h-129zM371 119v462c-117 -16 -197 -85 -197 -231c0 -138 80 -212 197 -231zM500 119c119 18 197 93 197 231c0 147 -78 215 -197 231
v-462z" />
    <glyph glyph-name="uni0430" unicode="&#x430;" horiz-adv-x="536" 
d="M473 110c0 -30 0 -75 5 -110h-122c-3 15 -5 38 -6 61c-30 -43 -83 -71 -148 -71c-90 0 -164 57 -164 147c0 108 84 157 183 165l126 11v12c0 45 -31 80 -80 80h-8c-49 0 -78 -31 -81 -60h-130c10 94 90 165 215 165s210 -63 210 -180v-220zM236 95c58 0 111 44 111 109
v14l-108 -11c-33 -3 -73 -20 -73 -61c0 -31 27 -51 62 -51h8z" />
    <glyph glyph-name="uni0430.ss01" horiz-adv-x="601" 
d="M254 -10c-100 0 -215 85 -215 260s105 260 215 260c80 0 130 -40 150 -80v70h130v-500h-130v70c-22 -39 -70 -80 -150 -80zM282 95h8c62 0 114 57 114 155s-52 155 -114 155h-8c-62 0 -113 -65 -113 -154c0 -90 51 -156 113 -156z" />
    <glyph glyph-name="uni0431" unicode="&#x431;" horiz-adv-x="592" 
d="M302 -10c-168 0 -252 129 -252 320c0 129 16 238 60 288c43 49 109 69 200 69h77c33 0 41 9 41 31v12h117v-47c0 -74 -31 -109 -111 -109h-128c-99 0 -148 -33 -150 -139c36 40 104 71 174 71c122 0 224 -99 224 -237c0 -143 -88 -259 -252 -259zM300 95h8
c76 0 116 68 116 152c0 90 -50 141 -116 141h-2c-58 0 -125 -51 -125 -142c0 -92 51 -151 119 -151z" />
    <glyph glyph-name="uni0431.ss04" horiz-adv-x="598" 
d="M305 -10c-163 0 -255 129 -255 301c0 235 66 381 252 397c87 7 189 17 228 23v-125l-232 -21c-92 -8 -140 -61 -146 -163c33 55 97 92 184 92c127 0 224 -92 224 -235c0 -144 -91 -269 -255 -269zM303 95h8c76 0 119 72 119 156c0 90 -52 145 -118 145h-8
c-60 0 -123 -52 -123 -146c0 -95 54 -155 122 -155z" />
    <glyph glyph-name="uni0432" unicode="&#x432;" horiz-adv-x="539" 
d="M67 0v500h242c119 0 182 -59 182 -131c0 -60 -49 -102 -104 -115c45 -4 110 -40 110 -113c0 -80 -64 -141 -180 -141h-250zM197 299h92c48 0 73 22 73 59c0 35 -25 51 -73 51h-92v-110zM197 91h97c48 0 73 20 73 58c0 36 -25 56 -73 56h-97v-114z" />
    <glyph glyph-name="uni0433" unicode="&#x433;" horiz-adv-x="395" 
d="M382 500v-105h-185v-395h-130v500h315z" />
    <glyph glyph-name="uni0453" unicode="&#x453;" horiz-adv-x="395" 
d="M355 700l-100 -150h-75l25 150h150zM382 500v-105h-185v-395h-130v500h315z" />
    <glyph glyph-name="uni0491" unicode="&#x491;" horiz-adv-x="421" 
d="M67 0v500h228v85h113v-190h-211v-395h-130z" />
    <glyph glyph-name="uni0434" unicode="&#x434;" horiz-adv-x="636" 
d="M527 105h84v-229h-120v124h-356v-124h-119v229h38c38 0 53 18 57 49c6 50 8 142 8 209v137h408v-395zM397 105v290h-157v-37c0 -60 -3 -166 -7 -206c-2 -22 -8 -37 -18 -47h182z" />
    <glyph glyph-name="uni0435" unicode="&#x435;" horiz-adv-x="546" 
d="M277 -10c-125 0 -238 95 -238 260c0 150 88 260 238 260s228 -109 228 -254c0 -15 -1 -31 -2 -47h-338c5 -69 59 -114 113 -114h8c49 0 79 29 88 63h129c-24 -98 -101 -168 -226 -168zM165 309h214c-3 60 -49 96 -103 96h-8c-54 0 -100 -36 -103 -96z" />
    <glyph glyph-name="uni0451" unicode="&#x451;" horiz-adv-x="546" 
d="M113 565v130h120v-130h-120zM313 565v130h120v-130h-120zM277 -10c-125 0 -238 95 -238 260c0 150 88 260 238 260s228 -109 228 -254c0 -15 -1 -31 -2 -47h-338c5 -69 59 -114 113 -114h8c49 0 79 29 88 63h129c-24 -98 -101 -168 -226 -168zM165 309h214
c-3 60 -49 96 -103 96h-8c-54 0 -100 -36 -103 -96z" />
    <glyph glyph-name="uni0436" unicode="&#x436;" horiz-adv-x="831" 
d="M677 0l-122 221l-76 -84v-137h-123v134l-79 86l-121 -220h-147l177 311l-166 189h134l202 -228v228h123v-228l197 228h134l-161 -183l172 -317h-144z" />
    <glyph glyph-name="uni0437" unicode="&#x437;" horiz-adv-x="514" 
d="M362 258c67 -7 110 -45 110 -110c0 -99 -81 -158 -212 -158c-145 0 -222 59 -229 185h133c6 -63 45 -83 96 -83c50 0 78 21 78 56c0 32 -22 55 -91 55h-44v98h64c46 0 71 19 71 53c0 31 -26 54 -76 54c-55 0 -86 -27 -91 -82h-135c4 97 79 184 226 184
c149 0 204 -67 204 -142c0 -60 -49 -103 -104 -110z" />
    <glyph glyph-name="uni0438" unicode="&#x438;" horiz-adv-x="620" 
d="M379 500h174v-500h-130v361l-183 -361h-173v500h130v-356z" />
    <glyph glyph-name="uni0439" unicode="&#x439;" horiz-adv-x="620" 
d="M300 553c-113 0 -168 47 -170 147h114c2 -39 19 -69 56 -69s55 30 57 69h113c-2 -97 -57 -147 -170 -147zM379 500h174v-500h-130v361l-183 -361h-173v500h130v-356z" />
    <glyph glyph-name="uni043A" unicode="&#x43a;" horiz-adv-x="551" 
d="M394 0l-139 208l-58 -59v-149h-130v500h130v-204l181 204h159l-192 -199l202 -301h-153z" />
    <glyph glyph-name="uni045C" unicode="&#x45c;" horiz-adv-x="551" 
d="M403 700l-100 -150h-75l25 150h150zM394 0l-139 208l-58 -59v-149h-130v500h130v-204l181 204h159l-192 -199l202 -301h-153z" />
    <glyph glyph-name="uni043B" unicode="&#x43b;" horiz-adv-x="590" 
d="M16 0v111h35c34 0 57 14 64 51c6 32 8 74 8 151v187h400v-500h-130v395h-149v-90c0 -68 -3 -130 -10 -173c-15 -94 -74 -132 -163 -132h-55z" />
    <glyph glyph-name="uni043C" unicode="&#x43c;" horiz-adv-x="768" 
d="M512 500h189v-500h-125v391l-133 -391h-120l-133 391v-391h-123v500h200l121 -357z" />
    <glyph glyph-name="uni043D" unicode="&#x43d;" horiz-adv-x="587" 
d="M67 0v500h130v-189h193v189h130v-500h-130v206h-193v-206h-130z" />
    <glyph glyph-name="uni043E" unicode="&#x43e;" horiz-adv-x="576" 
d="M288 -10c-150 0 -250 110 -250 260s100 260 250 260s250 -110 250 -260s-100 -260 -250 -260zM284 95h8c70 0 115 57 115 155s-45 155 -115 155h-8c-70 0 -115 -57 -115 -155s45 -155 115 -155z" />
    <glyph glyph-name="uni043F" unicode="&#x43f;" horiz-adv-x="581" 
d="M67 0v500h447v-500h-130v395h-187v-395h-130z" />
    <glyph glyph-name="uni0440" unicode="&#x440;" horiz-adv-x="601" 
d="M67 -200v700h130v-65c20 35 74 75 144 75c145 0 222 -125 222 -260s-77 -260 -222 -260c-70 0 -124 40 -144 75v-265h-130zM311 95h8c65 0 114 60 114 155s-49 155 -114 155h-8c-60 0 -114 -60 -114 -155s54 -155 114 -155z" />
    <glyph glyph-name="uni0441" unicode="&#x441;" horiz-adv-x="539" 
d="M279 -10c-135 0 -240 100 -240 260s105 260 240 260c130 0 215 -60 225 -185h-130c-8 49 -37 80 -91 80h-8c-74 0 -106 -70 -106 -155s32 -155 106 -155h8c54 0 83 31 91 80h130c-10 -125 -95 -185 -225 -185z" />
    <glyph glyph-name="uni0442" unicode="&#x442;" horiz-adv-x="488" 
d="M474 500v-105h-165v-395h-130v395h-165v105h460z" />
    <glyph glyph-name="uni0443" unicode="&#x443;" horiz-adv-x="573" 
d="M568 500l-213 -456v-116c0 -85 -45 -130 -130 -130h-182v112h133c45 0 55 10 55 55v74l-218 461h146l135 -304l130 304h144z" />
    <glyph glyph-name="uni0443.ss04" horiz-adv-x="558" 
d="M408 500h144l-248 -622c-23 -56 -51 -80 -126 -80h-151v112h115c35 0 41 8 52 36l33 86l-230 468h146l147 -305z" />
    <glyph glyph-name="uni045E" unicode="&#x45e;" horiz-adv-x="573" 
d="M296 553c-113 0 -168 47 -170 147h114c2 -39 19 -69 56 -69s55 30 57 69h113c-2 -97 -57 -147 -170 -147zM568 500l-213 -456v-116c0 -85 -45 -130 -130 -130h-182v112h133c45 0 55 10 55 55v74l-218 461h146l135 -304l130 304h144z" />
    <glyph glyph-name="uni045E.ss04" horiz-adv-x="558" 
d="M291 553c-113 0 -168 47 -170 147h114c2 -39 19 -69 56 -69s55 30 57 69h113c-2 -97 -57 -147 -170 -147zM408 500h144l-248 -622c-23 -56 -51 -80 -126 -80h-151v112h115c35 0 41 8 52 36l33 86l-230 468h146l147 -305z" />
    <glyph glyph-name="uni0444" unicode="&#x444;" horiz-adv-x="868" 
d="M365 -200v257c-20 -27 -55 -67 -132 -67c-135 0 -193 125 -193 260s58 260 193 260c76 0 113 -39 132 -69v259h128v-259c19 30 60 69 140 69c131 0 195 -125 195 -260s-64 -260 -201 -260c-74 0 -114 40 -134 67v-257h-128zM267 95h8c56 0 90 60 90 155s-34 155 -90 155
h-8c-61 0 -97 -61 -97 -156s36 -154 97 -154zM588 95h8c61 0 92 59 92 154s-31 156 -92 156h-8c-56 0 -95 -60 -95 -155s39 -155 95 -155z" />
    <glyph glyph-name="uni0445" unicode="&#x445;" horiz-adv-x="525" 
d="M515 0h-145l-109 153l-110 -153h-141l181 252l-176 248h145l104 -146l105 146h141l-176 -245z" />
    <glyph glyph-name="uni0447" unicode="&#x447;" horiz-adv-x="545" 
d="M348 0v167h-140c-130 0 -170 48 -170 163v170l130 1v-155c0 -59 25 -72 91 -72h89v226h130v-500h-130z" />
    <glyph glyph-name="uni0446" unicode="&#x446;" horiz-adv-x="631" 
d="M486 -124l-1 124h-418v500h130v-395h195v395h130v-395h84v-229h-120z" />
    <glyph glyph-name="uni0448" unicode="&#x448;" horiz-adv-x="836" 
d="M67 0v500h130v-395h156v395h130v-395h156v395h130v-500h-702z" />
    <glyph glyph-name="uni0449" unicode="&#x449;" horiz-adv-x="878" 
d="M769 105h84v-229h-120v124h-666v500h130v-395h156v395h130v-395h156v395h130v-395z" />
    <glyph glyph-name="uni045F" unicode="&#x45f;" horiz-adv-x="599" 
d="M532 500v-500h-172v-124h-120l-1 124h-172v500h130v-395h205v395h130z" />
    <glyph glyph-name="uni044C" unicode="&#x44c;" horiz-adv-x="519" 
d="M67 0v500h130v-157h110c110 0 189 -62 189 -166c0 -112 -83 -177 -200 -177h-229zM197 101h83c39 0 86 18 86 72c0 56 -44 69 -91 69h-78v-141z" />
    <glyph glyph-name="uni044A" unicode="&#x44a;" horiz-adv-x="603" 
d="M391 343c110 0 189 -62 189 -166c0 -112 -83 -177 -200 -177h-229v397h-136v103h266v-157h110zM364 101c39 0 86 18 86 72c0 56 -44 69 -91 69h-78v-141h83z" />
    <glyph glyph-name="uni044B" unicode="&#x44b;" horiz-adv-x="742" 
d="M67 0v500h130v-157h110c110 0 189 -62 189 -166c0 -112 -83 -177 -200 -177h-229zM545 0v500h130v-500h-130zM197 101h83c39 0 86 18 86 72c0 56 -44 69 -91 69h-78v-141z" />
    <glyph glyph-name="uni0459" unicode="&#x459;" horiz-adv-x="840" 
d="M628 343c110 0 189 -62 189 -166c0 -112 -83 -177 -200 -177h-229v395h-144v-90c0 -68 -3 -130 -10 -173c-16 -94 -74 -132 -163 -132h-55v111h35c34 0 57 14 64 51c6 32 8 74 8 151v187h395v-157h110zM601 101c39 0 86 18 86 72c0 56 -44 69 -91 69h-78v-141h83z" />
    <glyph glyph-name="uni045A" unicode="&#x45a;" horiz-adv-x="817" 
d="M67 0v500h130v-171h188v171h130v-171h85c123 0 194 -47 194 -156c0 -100 -77 -173 -200 -173h-209v224h-188v-224h-130zM515 101h61c48 0 87 16 87 68c0 44 -37 59 -82 59h-66v-127z" />
    <glyph glyph-name="uni0455" unicode="&#x455;" horiz-adv-x="497" 
d="M249 -10c-135 0 -217 65 -217 175h133c0 -45 34 -75 84 -75h8c40 0 68 19 68 49c0 26 -17 41 -53 50l-65 16c-105 26 -155 70 -155 151c0 90 76 154 201 154c130 0 205 -65 205 -170h-130c-5 43 -30 70 -75 70h-8c-35 0 -65 -14 -65 -49c0 -27 25 -41 66 -51l67 -17
c96 -24 140 -70 140 -149c0 -85 -69 -154 -204 -154z" />
    <glyph glyph-name="uni0454" unicode="&#x454;" horiz-adv-x="537" 
d="M283 95c54 0 83 31 91 80h130c-10 -125 -95 -185 -225 -185c-135 0 -240 100 -240 260s105 260 240 260c130 0 215 -60 225 -185h-130c-8 49 -37 80 -91 80h-8c-59 0 -91 -45 -102 -106h162v-100h-162c11 -60 44 -104 102 -104h8z" />
    <glyph glyph-name="uni044D" unicode="&#x44d;" horiz-adv-x="533" 
d="M264 510c147 0 229 -100 229 -260s-80 -260 -230 -260c-129 0 -221 60 -231 185h130c7 -51 40 -80 97 -80h8c60 0 88 39 97 104h-163v100h163c-8 66 -37 106 -94 106h-8c-59 0 -88 -32 -100 -80h-130c10 95 82 185 232 185z" />
    <glyph glyph-name="uni0456" unicode="&#x456;" horiz-adv-x="264" 
d="M62 565v135h140v-135h-140zM67 0v500h130v-500h-130z" />
    <glyph glyph-name="uni0457" unicode="&#x457;" horiz-adv-x="264" 
d="M-28 565v130h120v-130h-120zM172 565v130h120v-130h-120zM67 0v500h130v-500h-130z" />
    <glyph glyph-name="uni0458" unicode="&#x458;" horiz-adv-x="272" 
d="M70 565v135h140v-135h-140zM-82 -200v110h102c40 0 55 15 55 55v535h130v-575c0 -80 -45 -125 -125 -125h-162z" />
    <glyph glyph-name="uni045B" unicode="&#x45b;" horiz-adv-x="584" 
d="M348 510c120 0 174 -80 174 -190v-320h-130v305c0 65 -29 100 -79 100h-8c-60 0 -108 -57 -108 -127v-278h-130v555h-79v90h79v55h130v-55h136v-90h-136v-128c30 50 86 83 151 83z" />
    <glyph glyph-name="uni044E" unicode="&#x44e;" horiz-adv-x="782" 
d="M494 510c150 0 250 -110 250 -260s-100 -260 -250 -260c-135 0 -229 89 -247 216h-50v-206h-130v500h130v-189h53c23 118 115 199 244 199zM498 95c70 0 115 57 115 155s-45 155 -115 155h-8c-70 0 -115 -57 -115 -155s45 -155 115 -155h8z" />
    <glyph glyph-name="uni044F" unicode="&#x44f;" horiz-adv-x="556" 
d="M57 0v141c0 46 32 83 97 83c-69 15 -105 59 -105 129c0 76 66 147 195 147h245v-500h-130v169h-125c-36 0 -47 -11 -47 -47v-122h-130zM276 270h83v129h-93c-58 0 -87 -19 -87 -63c0 -49 29 -66 97 -66z" />
    <glyph glyph-name="uni044F.ss03" horiz-adv-x="562" 
d="M29 0l38 158c11 45 39 67 94 67c-73 8 -104 60 -104 125c0 88 66 150 178 150h260v-500h-129v169h-131c-21 0 -31 -11 -36 -31l-36 -138h-134zM273 270h93v129h-93c-58 0 -87 -19 -87 -63c0 -49 29 -66 87 -66z" />
    <glyph glyph-name="uni0452" unicode="&#x452;" horiz-adv-x="585" 
d="M522 -69c1 -81 -37 -131 -130 -131h-145v110h89c46 0 56 19 56 57v338c0 65 -29 100 -79 100h-8c-60 0 -108 -57 -108 -127v-278h-130v553h-87v90h87v57h130v-57h136v-90h-136v-126c30 50 86 83 151 83c126 0 174 -80 174 -190v-389z" />
    <glyph glyph-name="uni0463" unicode="&#x463;" horiz-adv-x="587" 
d="M356 330c124 0 197 -49 197 -150c0 -108 -77 -180 -203 -180h-206v400h-129v100h129v200h130v-200h177v-100h-177v-70h82zM329 101c48 0 93 16 93 70c0 53 -43 68 -88 68h-60v-138h55z" />
    <glyph glyph-name="uni0473" unicode="&#x473;" horiz-adv-x="576" 
d="M288 510c150 0 250 -110 250 -260s-100 -260 -250 -260s-250 110 -250 260s100 260 250 260zM284 405c-58 0 -99 -39 -111 -108c15 10 33 17 52 17c22 0 41 -6 56 -12l16 -6c15 -6 31 -11 51 -11c22 0 39 5 54 18c-14 65 -54 102 -110 102h-8zM292 95
c60 0 102 42 112 117c-13 -11 -33 -19 -54 -20c-24 -1 -44 4 -67 12l-15 5c-15 5 -28 10 -45 10c-19 0 -34 -4 -50 -17c13 -68 53 -107 111 -107h8z" />
    <glyph glyph-name="uni0475" unicode="&#x475;" horiz-adv-x="576" 
d="M507 500h50l-1 -111h-11c-40 0 -61 -15 -76 -61l-105 -328h-185l-166 500h138l125 -403l85 282c25 81 58 121 146 121z" />
    <glyph glyph-name="uni0493" unicode="&#x493;" horiz-adv-x="427" 
d="M413 395h-185v-118h109v-90h-109v-187h-130v187h-79v90h79v223h315v-105z" />
    <glyph glyph-name="uni0497" unicode="&#x497;" horiz-adv-x="861" 
d="M764 105h80v-229h-120l-1 124h-46l-122 221l-76 -84v-137h-123v134l-79 86l-121 -220h-147l177 311l-166 189h134l202 -228v228h123v-228l197 228h134l-161 -183z" />
    <glyph glyph-name="uni049B" unicode="&#x49b;" horiz-adv-x="586" 
d="M477 105h99v-229h-120l-1 124h-61l-139 208l-58 -59v-149h-130v500h130v-204l181 204h159l-192 -199z" />
    <glyph glyph-name="uni04A3" unicode="&#x4a3;" horiz-adv-x="629" 
d="M520 105h86v-229h-120l-1 124h-95v206h-193v-206h-130v500h130v-189h193v189h130v-395z" />
    <glyph glyph-name="uni04AF" unicode="&#x4af;" horiz-adv-x="553" 
d="M553 500l-213 -456v-244h-124v239l-218 461h146l135 -304l130 304h144z" />
    <glyph glyph-name="uni04B1" unicode="&#x4b1;" horiz-adv-x="566" 
d="M560 500l-191 -410h141v-90h-163v-200h-124v200h-163v90h139l-194 410h146l135 -304l130 304h144z" />
    <glyph glyph-name="uni04B3" unicode="&#x4b3;" horiz-adv-x="557" 
d="M440 105h100v-229h-120l-1 124h-49l-109 153l-110 -153h-141l181 252l-176 248h145l104 -146l105 146h141l-176 -245z" />
    <glyph glyph-name="uni04B7" unicode="&#x4b7;" horiz-adv-x="620" 
d="M478 105h126v-229h-120l-1 124h-135v167h-140c-130 0 -170 48 -170 163v170l130 1v-155c0 -59 25 -72 91 -72h89v226h130v-395z" />
    <glyph glyph-name="uni04BB" unicode="&#x4bb;" horiz-adv-x="584" 
d="M67 0v700h130v-273c30 50 86 83 151 83c120 0 174 -80 174 -190v-320h-130v305c0 65 -29 100 -79 100h-8c-60 0 -108 -57 -108 -127v-278h-130z" />
    <glyph glyph-name="uni04CF" unicode="&#x4cf;" horiz-adv-x="264" 
d="M67 0v700h130v-700h-130z" />
    <glyph glyph-name="uni04D9" unicode="&#x4d9;" horiz-adv-x="545" 
d="M266 -10c-164 0 -236 111 -224 301h338c-5 69 -45 114 -109 114h-8c-49 0 -86 -29 -92 -63h-129c20 98 105 167 230 168c139 1 234 -95 234 -260c0 -150 -90 -260 -240 -260zM267 95h8c54 0 102 36 105 96h-214c2 -64 47 -96 101 -96z" />
    <glyph glyph-name="uni04E3" unicode="&#x4e3;" horiz-adv-x="620" 
d="M470 670v-105h-305v105h305zM379 500h174v-500h-130v361l-183 -361h-173v500h130v-356z" />
    <glyph glyph-name="uni04E9" unicode="&#x4e9;" horiz-adv-x="576" 
d="M288 510c150 0 250 -110 250 -260s-100 -260 -250 -260s-250 110 -250 260s100 260 250 260zM284 405c-58 0 -100 -40 -111 -110h230c-11 70 -53 110 -111 110h-8zM292 95c58 0 100 40 111 110h-230c11 -70 53 -110 111 -110h8z" />
    <glyph glyph-name="uni04EF" unicode="&#x4ef;" horiz-adv-x="573" 
d="M444 670v-105h-305v105h305zM568 500l-213 -456v-116c0 -85 -45 -130 -130 -130h-182v112h133c45 0 55 10 55 55v74l-218 461h146l135 -304l130 304h144z" />
    <glyph glyph-name="uni04EF.ss04" horiz-adv-x="558" 
d="M431 670v-105h-305v105h305zM408 500h144l-248 -622c-23 -56 -51 -80 -126 -80h-151v112h115c35 0 41 8 52 36l33 86l-230 468h146l147 -305z" />
    <glyph glyph-name="uni0432.loclBGR" horiz-adv-x="568" 
d="M288 -10c-137 0 -227 78 -227 218v279c0 161 110 223 235 223c128 0 220 -71 220 -187c0 -87 -56 -135 -116 -154c74 -22 129 -79 129 -170c0 -119 -94 -209 -241 -209zM191 412h87c62 0 110 34 110 102c0 55 -37 91 -92 91c-71 0 -105 -43 -105 -107v-86zM288 95
c66 0 102 39 102 114c0 69 -41 109 -119 109h-80v-115c0 -75 38 -108 97 -108z" />
    <glyph glyph-name="uni0433.loclBGR" horiz-adv-x="498" 
d="M245 -10c-125 0 -205 51 -205 155c0 72 45 125 141 147l83 19c39 9 61 23 61 50c0 30 -25 49 -58 49h-8c-43 0 -81 -27 -84 -75h-130c5 111 97 175 217 175c122 0 193 -61 193 -148c0 -83 -60 -129 -160 -151l-69 -15c-43 -9 -56 -31 -56 -57c0 -30 28 -49 67 -49h8
c52 0 78 30 82 75h133c-5 -110 -84 -175 -215 -175z" />
    <glyph glyph-name="uni0434.loclBGR" horiz-adv-x="593" 
d="M267 -220c-133 0 -231 67 -236 164h130c6 -34 44 -59 112 -59h6c65 0 117 39 117 119v66c-30 -50 -86 -70 -141 -70c-115 0 -216 90 -216 255s101 255 216 255c55 0 111 -20 141 -70v60h130v-512c0 -105 -86 -208 -259 -208zM281 105h8c60 0 107 55 107 150
s-47 150 -107 150h-8c-63 0 -112 -55 -112 -150s49 -150 112 -150z" />
    <glyph glyph-name="uni0436.loclBGR" horiz-adv-x="813" 
d="M658 0l-113 221l-76 -83v-138h-123v136l-77 83l-112 -219h-147l168 312l-157 188h136l189 -224v424h123v-423l186 223h136l-152 -181l163 -319h-144z" />
    <glyph glyph-name="uni0437.loclBGR" horiz-adv-x="538" 
d="M263 -220c-126 0 -231 67 -239 183h132c-1 -38 39 -78 102 -78h10c69 0 101 54 101 109c0 71 -53 104 -128 104h-74v107h69c77 0 127 49 127 107c0 60 -41 94 -95 94h-6c-47 0 -92 -31 -100 -100h-132c5 120 107 205 234 205c141 0 229 -80 229 -198
c0 -65 -53 -139 -122 -158c74 -20 128 -85 128 -166c0 -125 -104 -209 -236 -209z" />
    <glyph glyph-name="uni0438.loclBGR" horiz-adv-x="574" 
d="M231 -10c-117 0 -169 80 -169 190v320h130v-305c0 -65 27 -100 74 -100h8c57 0 103 57 103 127v278h130v-500h-130v73c-30 -50 -83 -83 -146 -83z" />
    <glyph glyph-name="uni0439.loclBGR" horiz-adv-x="574" 
d="M284 553c-113 0 -168 47 -170 147h114c2 -39 19 -69 56 -69s55 30 57 69h113c-2 -97 -57 -147 -170 -147zM231 -10c-117 0 -169 80 -169 190v320h130v-305c0 -65 27 -100 74 -100h8c57 0 103 57 103 127v278h130v-500h-130v73c-30 -50 -83 -83 -146 -83z" />
    <glyph glyph-name="uni043A.loclBGR" horiz-adv-x="551" 
d="M394 0l-139 208l-58 -59v-149h-130v700h130v-386l181 186h159l-192 -199l202 -301h-153z" />
    <glyph glyph-name="uni043B.loclBGR" horiz-adv-x="543" 
d="M529 0h-138l-122 402l-121 -402h-134l163 500h189z" />
    <glyph glyph-name="uni043F.loclBGR" horiz-adv-x="584" 
d="M67 0v500h130v-73c30 50 86 83 151 83c120 0 174 -80 174 -190v-320h-130v305c0 65 -29 100 -79 100h-8c-60 0 -108 -57 -108 -127v-278h-130z" />
    <glyph glyph-name="uni0442.loclBGR" horiz-adv-x="904" 
d="M67 0v500h130v-71c35 57 93 81 149 81c70 0 125 -29 153 -86c38 61 102 86 165 86c130 0 178 -85 178 -195v-315h-130v300c0 65 -23 100 -77 100h-8c-60 0 -107 -52 -107 -122v-278h-130v300c0 65 -24 100 -78 100h-8c-60 0 -107 -52 -107 -122v-278h-130z" />
    <glyph glyph-name="uni0444.loclBGR" horiz-adv-x="740" 
d="M703 250c0 -154 -111 -247 -268 -259v-191h-130v191c-157 12 -268 105 -268 259s111 247 268 259v191h130v-191c157 -12 268 -105 268 -259zM167 250c0 -98 58 -143 138 -155v310c-80 -12 -138 -57 -138 -155zM435 95c80 12 138 57 138 155s-58 143 -138 155v-310z" />
    <glyph glyph-name="uni0446.loclBGR" horiz-adv-x="611" 
d="M507 105h86v-229h-120l-1 124h-95v73c-30 -50 -83 -83 -146 -83c-117 0 -169 80 -169 190v320h130v-305c0 -65 27 -100 74 -100h8c57 0 103 57 103 127v278h130v-395z" />
    <glyph glyph-name="uni0448.loclBGR" horiz-adv-x="904" 
d="M240 -10c-130 0 -178 85 -178 195v315h130v-300c0 -65 23 -100 77 -100h8c60 0 107 52 107 122v278h130v-300c0 -65 24 -100 78 -100h8c60 0 107 52 107 122v278h130v-500h-130v71c-35 -57 -93 -81 -149 -81c-70 0 -125 29 -153 86c-38 -61 -102 -86 -165 -86z" />
    <glyph glyph-name="uni0449.loclBGR" horiz-adv-x="946" 
d="M837 105h84v-229h-120l-1 124h-93v71c-35 -57 -93 -81 -149 -81c-70 0 -125 29 -153 86c-38 -61 -102 -86 -165 -86c-130 0 -178 85 -178 195v315h130v-300c0 -65 23 -100 77 -100h8c60 0 107 52 107 122v278h130v-300c0 -65 24 -100 78 -100h8c60 0 107 52 107 122v278
h130v-395z" />
    <glyph glyph-name="uni044C.loclBGR" horiz-adv-x="520" 
d="M275 -10c-136 0 -214 76 -214 221v289h130v-159c19 18 59 38 113 38c109 0 190 -68 190 -189c0 -122 -88 -200 -219 -200zM277 90c48 0 86 41 86 97c0 58 -37 91 -86 91c-46 0 -86 -29 -86 -91c0 -61 40 -97 86 -97z" />
    <glyph glyph-name="uni044A.loclBGR" horiz-adv-x="610" 
d="M394 379c109 0 190 -68 190 -189c0 -122 -88 -200 -219 -200c-136 0 -214 76 -214 221v186h-138v103h268v-159c19 18 59 38 113 38zM367 90c48 0 86 41 86 97c0 58 -37 91 -86 91c-46 0 -86 -29 -86 -91c0 -61 40 -97 86 -97z" />
    <glyph glyph-name="uni0431.loclSRB" horiz-adv-x="579" 
d="M375 481c97 -63 167 -112 167 -240c0 -143 -90 -251 -252 -251c-163 0 -253 102 -253 247c0 109 78 199 172 213l-26 16c-39 25 -71 63 -71 115c0 70 40 119 124 119h265v-103l-226 -1c-22 0 -31 -6 -31 -20c0 -13 17 -22 36 -34zM296 95c76 0 118 65 118 146
c0 83 -52 137 -118 137h-8c-71 0 -121 -54 -121 -138c0 -89 53 -145 121 -145h8z" />
    <glyph glyph-name="Alpha" unicode="&#x391;" horiz-adv-x="713" 
d="M564 0l-63 165h-294l-63 -165h-142l277 700h158l270 -700h-143zM253 285h202l-101 265z" />
    <glyph glyph-name="Beta" unicode="&#x392;" horiz-adv-x="667" 
d="M82 0v700h310c135 0 215 -81 215 -181c0 -85 -50 -144 -118 -164c73 -15 133 -74 133 -169c0 -105 -90 -186 -220 -186h-320zM217 413h155c65 0 100 29 100 84s-35 83 -100 83h-155v-167zM217 120h165c65 0 105 29 105 89s-40 88 -105 88h-165v-177z" />
    <glyph glyph-name="Gamma" unicode="&#x393;" horiz-adv-x="589" 
d="M82 0v700h495v-120h-360v-580h-135z" />
    <glyph glyph-name="uni0394" unicode="&#x394;" horiz-adv-x="715" 
d="M439 700l258 -643v-57h-680v57l264 643h158zM357 557l-180 -437h355z" />
    <glyph glyph-name="Epsilon" unicode="&#x395;" horiz-adv-x="661" 
d="M82 0v700h530v-120h-395v-161h335v-120h-335v-179h405v-120h-540z" />
    <glyph glyph-name="Zeta" unicode="&#x396;" horiz-adv-x="635" 
d="M40 0v115l388 465h-378v120h535v-115l-388 -465h398v-120h-555z" />
    <glyph glyph-name="Eta" unicode="&#x397;" horiz-adv-x="739" 
d="M82 0v700h135v-290h305v290h135v-700h-135v290h-305v-290h-135z" />
    <glyph glyph-name="Theta" unicode="&#x398;" horiz-adv-x="766" 
d="M383 -10c-200 0 -340 135 -340 360s140 360 340 360s340 -135 340 -360s-140 -360 -340 -360zM378 110h10c125 0 200 90 200 240s-75 240 -200 240h-10c-125 0 -200 -90 -200 -240s75 -240 200 -240zM253 299v120h260v-120h-260z" />
    <glyph glyph-name="Iota" unicode="&#x399;" horiz-adv-x="299" 
d="M82 0v700h135v-700h-135z" />
    <glyph glyph-name="Kappa" unicode="&#x39a;" horiz-adv-x="686" 
d="M520 0l-211 308l-92 -97v-211h-135v700h135v-314l297 314h167l-275 -290l281 -410h-167z" />
    <glyph glyph-name="Lambda" unicode="&#x39b;" horiz-adv-x="715" 
d="M709 0h-151l-205 556l-204 -556h-145l266 700h171z" />
    <glyph glyph-name="Mu" unicode="&#x39c;" horiz-adv-x="929" 
d="M638 700h209v-700h-132v552l-174 -552h-148l-179 553v-553h-132v700h210l176 -550z" />
    <glyph glyph-name="Nu" unicode="&#x39d;" horiz-adv-x="749" 
d="M532 700h135v-700h-175l-275 515v-515h-135v700h175l275 -513v513z" />
    <glyph glyph-name="Xi" unicode="&#x39e;" horiz-adv-x="655" 
d="M54 575v125h547v-125h-547zM103 299v120h449v-120h-449zM44 0v125h567v-125h-567z" />
    <glyph glyph-name="Omicron" unicode="&#x39f;" horiz-adv-x="766" 
d="M383 -10c-200 0 -340 135 -340 360s140 360 340 360s340 -135 340 -360s-140 -360 -340 -360zM378 110h10c125 0 200 90 200 240s-75 240 -200 240h-10c-125 0 -200 -90 -200 -240s75 -240 200 -240z" />
    <glyph glyph-name="Pi" unicode="&#x3a0;" horiz-adv-x="735" 
d="M82 0v700h571v-700h-135v580h-301v-580h-135z" />
    <glyph glyph-name="Rho" unicode="&#x3a1;" horiz-adv-x="652" 
d="M82 0v700h315c135 0 225 -80 225 -220s-90 -221 -225 -221h-180v-259h-135zM217 379h165c70 0 105 41 105 101s-35 100 -105 100h-165v-201z" />
    <glyph glyph-name="Sigma" unicode="&#x3a3;" horiz-adv-x="634" 
d="M208 120h387v-120h-555v115l219 248l-211 222v115h537v-120h-356l201 -210z" />
    <glyph glyph-name="Tau" unicode="&#x3a4;" horiz-adv-x="656" 
d="M260 0v580h-242v120h620v-120h-243v-580h-135z" />
    <glyph glyph-name="Upsilon" unicode="&#x3a5;" horiz-adv-x="663" 
d="M512 700h148l-261 -420v-280h-135v280l-260 420h153l179 -294z" />
    <glyph glyph-name="Phi" unicode="&#x3a6;" horiz-adv-x="859" 
d="M363 -24v71c-171 3 -324 93 -324 303s153 300 324 303v71h133v-71c171 -3 324 -93 324 -303s-153 -300 -324 -303v-71h-133zM363 161v378c-98 -2 -188 -71 -188 -189s90 -187 188 -189zM496 161c98 2 188 71 188 189s-90 187 -188 189v-378z" />
    <glyph glyph-name="Chi" unicode="&#x3a7;" horiz-adv-x="642" 
d="M641 0h-159l-163 245l-166 -245h-152l242 359l-227 341h159l148 -223l151 223h152l-227 -336z" />
    <glyph glyph-name="Psi" unicode="&#x3a8;" horiz-adv-x="825" 
d="M640 700h135v-291c0 -157 -111 -255 -295 -258v-151h-135v151c-184 3 -295 101 -295 258v291h135v-271c0 -108 72 -156 160 -158v429h135v-429c88 2 160 50 160 158v271z" />
    <glyph glyph-name="uni03A9" unicode="&#x3a9;" horiz-adv-x="792" 
d="M61 0v120h119c-67 52 -124 137 -124 252c0 188 135 338 340 338s340 -150 340 -338c0 -115 -57 -200 -124 -252h119v-120h-275v115c80 50 145 137 145 245c0 139 -78 230 -200 230h-10c-122 0 -200 -91 -200 -230c0 -108 65 -195 145 -245v-115h-275z" />
    <glyph glyph-name="Alphatonos" unicode="&#x386;" horiz-adv-x="736" 
d="M587 0l-63 165h-294l-63 -165h-142l277 700h158l270 -700h-143zM228 700l-100 -150h-75l25 150h150zM276 285h202l-101 265z" />
    <glyph glyph-name="Epsilontonos" unicode="&#x388;" horiz-adv-x="785" 
d="M4 550l25 150h150l-100 -150h-75zM206 0v700h530v-120h-395v-161h335v-120h-335v-179h405v-120h-540z" />
    <glyph glyph-name="Etatonos" unicode="&#x389;" horiz-adv-x="863" 
d="M4 550l25 150h150l-100 -150h-75zM206 0v700h135v-290h305v290h135v-700h-135v290h-305v-290h-135z" />
    <glyph glyph-name="Iotatonos" unicode="&#x38a;" horiz-adv-x="423" 
d="M4 550l25 150h150l-100 -150h-75zM206 0v700h135v-700h-135z" />
    <glyph glyph-name="Omicrontonos" unicode="&#x38c;" horiz-adv-x="844" 
d="M461 -10c-200 0 -340 135 -340 360s140 360 340 360s340 -135 340 -360s-140 -360 -340 -360zM8 550l25 150h150l-100 -150h-75zM456 110h10c125 0 200 90 200 240s-75 240 -200 240h-10c-125 0 -200 -90 -200 -240s75 -240 200 -240z" />
    <glyph glyph-name="Upsilontonos" unicode="&#x38e;" horiz-adv-x="879" 
d="M26 550l25 150h150l-100 -150h-75zM728 700h148l-261 -420v-280h-135v280l-260 420h153l179 -294z" />
    <glyph glyph-name="Omegatonos" unicode="&#x38f;" horiz-adv-x="861" 
d="M130 0v120h119c-67 52 -124 137 -124 252c0 188 135 338 340 338s340 -150 340 -338c0 -115 -57 -200 -124 -252h119v-120h-275v115c80 50 145 137 145 245c0 139 -78 230 -200 230h-10c-122 0 -200 -91 -200 -230c0 -108 65 -195 145 -245v-115h-275zM12 550l25 150h150
l-100 -150h-75z" />
    <glyph glyph-name="Iotadieresis" unicode="&#x3aa;" horiz-adv-x="299" 
d="M-10 765v120h125v-120h-125zM185 765v120h125v-120h-125zM82 0v700h135v-700h-135z" />
    <glyph glyph-name="Upsilondieresis" unicode="&#x3ab;" horiz-adv-x="663" 
d="M300 885v-120h-125v120h125zM495 885v-120h-125v120h125zM512 700h148l-261 -420v-280h-135v280l-260 420h153l179 -294z" />
    <glyph glyph-name="Alpha.d" horiz-adv-x="713" 
d="M564 0l-63 165h-294l-63 -165h-142l277 700h158l270 -700h-143zM253 285h202l-101 265z" />
    <glyph glyph-name="Epsilon.d" horiz-adv-x="661" 
d="M82 0v700h530v-120h-395v-161h335v-120h-335v-179h405v-120h-540z" />
    <glyph glyph-name="Eta.d" horiz-adv-x="739" 
d="M82 0v700h135v-290h305v290h135v-700h-135v290h-305v-290h-135z" />
    <glyph glyph-name="Iota.d" horiz-adv-x="299" 
d="M82 0v700h135v-700h-135z" />
    <glyph glyph-name="Omicron.d" horiz-adv-x="766" 
d="M383 -10c-200 0 -340 135 -340 360s140 360 340 360s340 -135 340 -360s-140 -360 -340 -360zM378 110h10c125 0 200 90 200 240s-75 240 -200 240h-10c-125 0 -200 -90 -200 -240s75 -240 200 -240z" />
    <glyph glyph-name="Upsilon.d" horiz-adv-x="663" 
d="M512 700h148l-261 -420v-280h-135v280l-260 420h153l179 -294z" />
    <glyph glyph-name="uni03A9.d" horiz-adv-x="792" 
d="M61 0v120h119c-67 52 -124 137 -124 252c0 188 135 338 340 338s340 -150 340 -338c0 -115 -57 -200 -124 -252h119v-120h-275v115c80 50 145 137 145 245c0 139 -78 230 -200 230h-10c-122 0 -200 -91 -200 -230c0 -108 65 -195 145 -245v-115h-275z" />
    <glyph glyph-name="alpha" unicode="&#x3b1;" horiz-adv-x="628" 
d="M254 -10c-100 0 -215 85 -215 260s105 260 215 260c80 0 130 -40 150 -80v70h130v-335c0 -45 10 -55 55 -55h10v-110h-58c-69 0 -109 22 -120 78c-36 -50 -89 -88 -167 -88zM282 95h8c62 0 114 57 114 155s-52 155 -114 155h-8c-62 0 -113 -65 -113 -154
c0 -90 51 -156 113 -156z" />
    <glyph glyph-name="beta" unicode="&#x3b2;" horiz-adv-x="587" 
d="M404 378c87 -13 146 -94 146 -180c0 -125 -93 -208 -219 -208c-57 0 -103 17 -134 38v-228h-130v677c0 127 68 233 234 233c137 0 215 -76 215 -181c0 -78 -49 -130 -112 -151zM319 95c60 0 101 43 101 113s-54 114 -124 114h-29v105h18c55 0 106 27 106 94
c0 50 -34 84 -87 84h-6c-57 0 -101 -41 -101 -122v-335c25 -22 69 -53 115 -53h7z" />
    <glyph glyph-name="gamma" unicode="&#x3b3;" horiz-adv-x="557" 
d="M415 500h134l-203 -521v-179h-130v181l-212 519h138l141 -358z" />
    <glyph glyph-name="delta" unicode="&#x3b4;" horiz-adv-x="576" 
d="M425 473c70 -58 113 -121 113 -225c0 -143 -95 -258 -252 -258c-149 0 -248 115 -248 258c0 127 67 219 198 236l-140 116v100h406v-108h-221zM289 95c87 0 119 75 119 153c0 62 -20 107 -68 148c-14 2 -29 2 -43 2c-95 0 -129 -58 -129 -150c0 -78 31 -153 116 -153h5z
" />
    <glyph glyph-name="epsilon" unicode="&#x3b5;" horiz-adv-x="536" 
d="M377 167h129c-12 -123 -98 -177 -237 -177c-161 0 -231 64 -231 150c0 46 26 96 85 116c-42 18 -72 52 -72 101c0 79 77 153 216 153c136 0 225 -73 234 -175h-129c-4 44 -44 70 -95 70h-8c-55 0 -88 -25 -88 -55c0 -26 21 -48 75 -48h62v-101h-77c-53 0 -73 -22 -73 -51
s26 -55 98 -55h8c59 0 97 24 103 72z" />
    <glyph glyph-name="zeta" unicode="&#x3b6;" horiz-adv-x="478" 
d="M471 600l-152 -162c-76 -80 -153 -165 -153 -240c0 -43 33 -78 112 -78h38c101 0 149 -44 149 -141c0 -43 -13 -97 -23 -130h-108c8 30 17 77 17 106c0 38 -21 45 -61 45h-18c-173 0 -236 83 -236 183c0 109 66 194 167 289l115 108h-242v120h395v-100z" />
    <glyph glyph-name="eta" unicode="&#x3b7;" horiz-adv-x="609" 
d="M417 -200v505c0 65 -29 100 -79 100h-8c-60 0 -108 -57 -108 -127v-278h-130v331c0 45 -10 64 -55 64h-10v105h67c63 0 97 -24 110 -73c32 48 94 83 169 83c120 0 174 -80 174 -190v-520h-130z" />
    <glyph glyph-name="theta" unicode="&#x3b8;" horiz-adv-x="574" 
d="M287 710c150 0 240 -129 240 -360s-90 -360 -240 -360s-240 129 -240 360s90 360 240 360zM283 605c-52 0 -95 -60 -106 -191h220c-11 131 -54 191 -106 191h-8zM291 95c55 0 100 67 107 214h-222c7 -147 52 -214 107 -214h8z" />
    <glyph glyph-name="iota" unicode="&#x3b9;" horiz-adv-x="292" 
d="M194 0c-85 0 -130 45 -130 130v370h130v-335c0 -45 10 -55 55 -55h10v-110h-65z" />
    <glyph glyph-name="kappa" unicode="&#x3ba;" horiz-adv-x="555" 
d="M394 0l-139 209l-58 -60v-149h-130v500h130v-186l122 125c47 48 71 61 129 61h68v-110h-57c-29 0 -41 -11 -59 -30l-56 -58l203 -302h-153z" />
    <glyph glyph-name="lambda" unicode="&#x3bb;" horiz-adv-x="571" 
d="M547 110h9v-110h-65c-65 0 -90 31 -114 91l-90 221l-138 -312h-146l221 468l-35 86c-12 30 -23 41 -57 41h-59v105h106c62 0 90 -25 110 -73l199 -472c15 -35 25 -45 59 -45z" />
    <glyph glyph-name="uni03BC" unicode="&#x3bc;" horiz-adv-x="606" 
d="M567 110h10v-110h-65c-66 0 -105 24 -115 78c-34 -64 -83 -88 -131 -88c-30 0 -53 9 -69 31v-221h-130v700h130v-305c0 -65 27 -100 74 -100h8c57 0 103 57 103 127v278h130v-335c0 -45 10 -55 55 -55z" />
    <glyph glyph-name="nu" unicode="&#x3bd;" horiz-adv-x="559" 
d="M413 500h134l-173 -500h-189l-173 500h138l132 -404z" />
    <glyph glyph-name="xi" unicode="&#x3be;" horiz-adv-x="476" 
d="M335 -151c8 30 17 77 17 106c0 38 -21 45 -59 45h-17c-148 0 -240 79 -240 189c0 114 94 162 158 171c-65 21 -114 63 -114 128c0 64 54 100 87 107h-103v105h382v-105h-103c-62 0 -133 -33 -133 -102c0 -47 38 -82 101 -82h86v-105h-81c-75 0 -150 -34 -150 -102
c0 -56 34 -99 123 -99h25c101 0 152 -39 152 -126c0 -43 -13 -97 -23 -130h-108z" />
    <glyph glyph-name="omicron" unicode="&#x3bf;" horiz-adv-x="576" 
d="M288 -10c-150 0 -250 110 -250 260s100 260 250 260s250 -110 250 -260s-100 -260 -250 -260zM284 95h8c70 0 115 57 115 155s-45 155 -115 155h-8c-70 0 -115 -57 -115 -155s45 -155 115 -155z" />
    <glyph glyph-name="pi" unicode="&#x3c0;" horiz-adv-x="616" 
d="M99 0v395h-65v105h535v-105h-65v-230c0 -45 10 -55 55 -55h10v-110h-65c-85 0 -130 45 -130 130v265h-145v-395h-130z" />
    <glyph glyph-name="rho" unicode="&#x3c1;" horiz-adv-x="591" 
d="M57 -200v445c0 155 94 265 256 265c157 0 240 -125 240 -260s-77 -260 -222 -260c-70 0 -124 40 -144 75v-265h-130zM301 95h8c65 0 114 60 114 155s-49 155 -114 155h-8c-60 0 -114 -60 -114 -155s54 -155 114 -155z" />
    <glyph glyph-name="uni03C2" unicode="&#x3c2;" horiz-adv-x="530" 
d="M356 -151c8 30 17 77 17 106c0 38 -21 45 -61 45h-43c-145 0 -230 90 -230 250s105 260 240 260c130 0 215 -60 225 -185h-130c-8 49 -37 80 -91 80h-8c-74 0 -106 -70 -106 -155s32 -145 106 -145h53c101 0 159 -39 159 -126c0 -43 -13 -97 -23 -130h-108z" />
    <glyph glyph-name="sigma" unicode="&#x3c3;" horiz-adv-x="603" 
d="M288 -10c-145 0 -250 105 -250 260c0 150 96 250 246 250h294v-105h-120c49 -25 79 -81 79 -158c0 -134 -96 -247 -249 -247zM284 95h8c77 0 115 64 115 150c0 92 -45 155 -115 155h-8c-67 0 -116 -45 -116 -150c0 -98 46 -155 116 -155z" />
    <glyph glyph-name="tau" unicode="&#x3c4;" horiz-adv-x="472" 
d="M287 0c-85 0 -130 45 -130 130v265h-143v105h425v-105h-152v-230c0 -45 10 -55 55 -55h72v-110h-127z" />
    <glyph glyph-name="upsilon" unicode="&#x3c5;" horiz-adv-x="566" 
d="M283 -10c-154 0 -222 92 -222 220v290h130v-288c0 -76 32 -117 87 -117h10c55 0 87 41 87 117v288h130v-290c0 -128 -68 -220 -222 -220z" />
    <glyph glyph-name="phi" unicode="&#x3c6;" horiz-adv-x="758" 
d="M720 260c0 -163 -101 -257 -276 -268v-193h-130v193c-175 11 -276 103 -276 266c0 146 102 235 220 253v-113c-52 -15 -90 -68 -90 -140c0 -88 39 -153 146 -161v276c0 87 45 137 150 137c155 0 256 -98 256 -250zM444 97c107 9 146 75 146 163c0 81 -46 145 -102 145
c-28 0 -44 -14 -44 -50v-258z" />
    <glyph glyph-name="chi" unicode="&#x3c7;" horiz-adv-x="523" 
d="M-5 -200l201 361l-101 186c-20 38 -30 48 -64 48h-23v105h55c79 0 98 -25 124 -74l78 -144l119 218h135l-186 -336l116 -209c17 -30 33 -45 57 -45h20v-110h-44c-78 0 -104 30 -127 72l-92 170l-133 -242h-135z" />
    <glyph glyph-name="psi" unicode="&#x3c8;" horiz-adv-x="790" 
d="M602 500h130v-249c0 -164 -80 -250 -272 -259v-192h-130v192c-192 9 -272 95 -272 259v249h130v-236c0 -89 26 -156 142 -167v543h130v-543c116 11 142 78 142 167v236z" />
    <glyph glyph-name="omega" unicode="&#x3c9;" horiz-adv-x="760" 
d="M237 -10c-110 0 -198 91 -198 248c0 143 79 255 225 272v-113c-67 -17 -95 -70 -95 -157c0 -112 34 -145 81 -145c39 0 65 27 65 99v131h130v-131c0 -72 26 -99 65 -99c47 0 81 33 81 145c0 87 -28 140 -95 157v113c146 -17 225 -129 225 -272c0 -157 -88 -248 -198 -248
c-63 0 -119 32 -143 81c-24 -49 -80 -81 -143 -81z" />
    <glyph glyph-name="iotatonos" unicode="&#x3af;" horiz-adv-x="292" 
d="M93 550l25 150h150l-100 -150h-75zM194 0c-85 0 -130 45 -130 130v370h130v-335c0 -45 10 -55 55 -55h10v-110h-65z" />
    <glyph glyph-name="iotadieresis" unicode="&#x3ca;" horiz-adv-x="292" 
d="M-31 565v130h120v-130h-120zM169 565v130h120v-130h-120zM194 0c-85 0 -130 45 -130 130v370h130v-335c0 -45 10 -55 55 -55h10v-110h-65z" />
    <glyph glyph-name="iotadieresistonos" unicode="&#x390;" horiz-adv-x="292" 
d="M91 550l9 150h136l-70 -150h-75zM-55 550v117h108v-117h-108zM245 550v117h108v-117h-108zM194 0c-85 0 -130 45 -130 130v370h130v-335c0 -45 10 -55 55 -55h10v-110h-65z" />
    <glyph glyph-name="upsilontonos" unicode="&#x3cd;" horiz-adv-x="566" 
d="M245 550l25 150h150l-100 -150h-75zM283 -10c-154 0 -222 92 -222 220v290h130v-288c0 -76 32 -117 87 -117h10c55 0 87 41 87 117v288h130v-290c0 -128 -68 -220 -222 -220z" />
    <glyph glyph-name="upsilondieresis" unicode="&#x3cb;" horiz-adv-x="566" 
d="M124 565v130h120v-130h-120zM324 565v130h120v-130h-120zM283 -10c-154 0 -222 92 -222 220v290h130v-288c0 -76 32 -117 87 -117h10c55 0 87 41 87 117v288h130v-290c0 -128 -68 -220 -222 -220z" />
    <glyph glyph-name="upsilondieresistonos" unicode="&#x3b0;" horiz-adv-x="566" 
d="M236 550l9 150h136l-70 -150h-75zM90 550v117h108v-117h-108zM390 550v117h108v-117h-108zM283 -10c-154 0 -222 92 -222 220v290h130v-288c0 -76 32 -117 87 -117h10c55 0 87 41 87 117v288h130v-290c0 -128 -68 -220 -222 -220z" />
    <glyph glyph-name="omicrontonos" unicode="&#x3cc;" horiz-adv-x="576" 
d="M247 550l25 150h150l-100 -150h-75zM288 -10c-150 0 -250 110 -250 260s100 260 250 260s250 -110 250 -260s-100 -260 -250 -260zM284 95h8c70 0 115 57 115 155s-45 155 -115 155h-8c-70 0 -115 -57 -115 -155s45 -155 115 -155z" />
    <glyph glyph-name="omegatonos" unicode="&#x3ce;" horiz-adv-x="760" 
d="M341 550l25 150h150l-100 -150h-75zM237 -10c-110 0 -198 91 -198 248c0 143 79 255 225 272v-113c-67 -17 -95 -70 -95 -157c0 -112 34 -145 81 -145c39 0 65 27 65 99v131h130v-131c0 -72 26 -99 65 -99c47 0 81 33 81 145c0 87 -28 140 -95 157v113
c146 -17 225 -129 225 -272c0 -157 -88 -248 -198 -248c-63 0 -119 32 -143 81c-24 -49 -80 -81 -143 -81z" />
    <glyph glyph-name="alphatonos" unicode="&#x3ac;" horiz-adv-x="628" 
d="M264 550l25 150h150l-100 -150h-75zM254 -10c-100 0 -215 85 -215 260s105 260 215 260c80 0 130 -40 150 -80v70h130v-335c0 -45 10 -55 55 -55h10v-110h-58c-69 0 -109 22 -120 78c-36 -50 -89 -88 -167 -88zM282 95h8c62 0 114 57 114 155s-52 155 -114 155h-8
c-62 0 -113 -65 -113 -154c0 -90 51 -156 113 -156z" />
    <glyph glyph-name="epsilontonos" unicode="&#x3ad;" horiz-adv-x="536" 
d="M401 700l-100 -150h-75l25 150h150zM377 167h129c-12 -123 -98 -177 -237 -177c-161 0 -231 64 -231 150c0 46 26 96 85 116c-42 18 -72 52 -72 101c0 79 77 153 216 153c136 0 225 -73 234 -175h-129c-4 44 -44 70 -95 70h-8c-55 0 -88 -25 -88 -55c0 -26 21 -48 75 -48
h62v-101h-77c-53 0 -73 -22 -73 -51s26 -55 98 -55h8c59 0 97 24 103 72z" />
    <glyph glyph-name="etatonos" unicode="&#x3ae;" horiz-adv-x="609" 
d="M268 550l25 150h150l-100 -150h-75zM417 -200v505c0 65 -29 100 -79 100h-8c-60 0 -108 -57 -108 -127v-278h-130v331c0 45 -10 64 -55 64h-10v105h67c63 0 97 -24 110 -73c32 48 94 83 169 83c120 0 174 -80 174 -190v-520h-130z" />
    <glyph glyph-name="zero" unicode="0" horiz-adv-x="672" 
d="M336 -10c-185 0 -285 145 -285 360s105 360 285 360s285 -145 285 -360s-100 -360 -285 -360zM331 105h10c109 0 147 105 147 245s-38 245 -147 245h-10c-109 0 -147 -105 -147 -245s38 -245 147 -245z" />
    <glyph glyph-name="one" unicode="1" horiz-adv-x="401" 
d="M211 700h105v-700h-127v512l-155 -149v165z" />
    <glyph glyph-name="two" unicode="2" horiz-adv-x="589" 
d="M215 115h325v-115h-493v121l238 224c83 78 112 112 112 162s-38 88 -93 88h-10c-60 0 -105 -42 -107 -114h-133c0 143 104 229 244 229s232 -83 232 -198c0 -90 -42 -146 -133 -230z" />
    <glyph glyph-name="three" unicode="3" horiz-adv-x="598" 
d="M291 -10c-147 0 -248 77 -248 203h133c5 -51 43 -88 110 -88h10c80 0 113 50 113 95c0 60 -51 92 -124 92h-47v115h42c76 0 125 38 125 98c0 50 -44 90 -104 90h-10c-52 0 -97 -33 -102 -90h-133c0 120 103 205 240 205c150 0 242 -90 242 -195c0 -80 -49 -142 -123 -162
c74 -20 128 -83 128 -163c0 -130 -107 -200 -252 -200z" />
    <glyph glyph-name="four" unicode="4" horiz-adv-x="631" 
d="M494 257h105v-115h-105v-142h-127v142h-338v131l334 427h131v-443zM159 257h208v265z" />
    <glyph glyph-name="five" unicode="5" horiz-adv-x="593" 
d="M323 438c130 0 219 -90 219 -217c0 -137 -97 -231 -252 -231c-145 0 -245 85 -260 205h133c13 -56 60 -90 123 -90h10c63 0 113 41 113 111s-50 107 -113 107h-10c-33 0 -78 -13 -110 -48h-122l86 425h395v-115h-294l-40 -191c27 26 76 44 122 44z" />
    <glyph glyph-name="six" unicode="6" horiz-adv-x="631" 
d="M347 460c122 0 226 -88 226 -230c0 -127 -90 -240 -255 -240c-170 0 -268 122 -268 337c0 232 139 383 314 383c118 0 209 -73 224 -190h-133c-5 40 -35 75 -96 75h-10c-75 0 -164 -59 -180 -229c31 57 99 94 178 94zM324 105c68 0 116 53 116 120s-48 120 -116 120h-10
c-70 0 -123 -50 -123 -120c0 -69 50 -120 123 -120h10z" />
    <glyph glyph-name="seven" unicode="7" horiz-adv-x="558" 
d="M25 700h505v-110c-143 -93 -252 -245 -252 -525v-65h-139v65c0 278 117 430 234 515h-348v120z" />
    <glyph glyph-name="eight" unicode="8" horiz-adv-x="588" 
d="M294 -10c-150 0 -229 90 -229 190c0 85 51 136 118 159c-70 25 -132 86 -132 181s83 190 243 190s243 -95 243 -190s-62 -156 -132 -181c67 -23 118 -74 118 -159c0 -100 -79 -190 -229 -190zM289 400h10c57 0 105 41 105 98s-48 97 -105 97h-10c-57 0 -105 -40 -105 -97
s48 -98 105 -98zM289 105h10c50 0 91 35 91 90s-41 91 -91 91h-10c-50 0 -91 -36 -91 -91s41 -90 91 -90z" />
    <glyph glyph-name="nine" unicode="9" horiz-adv-x="631" 
d="M313 710c170 0 268 -122 268 -337c0 -232 -139 -383 -314 -383c-118 0 -209 73 -224 190h133c5 -40 35 -75 96 -75h10c75 0 164 59 180 229c-31 -57 -99 -94 -178 -94c-122 0 -226 88 -226 230c0 127 90 240 255 240zM317 355c70 0 123 50 123 120c0 69 -50 120 -123 120
h-10c-68 0 -116 -53 -116 -120s48 -120 116 -120h10z" />
    <glyph glyph-name="zero.zero" horiz-adv-x="672" 
d="M336 710c180 0 285 -145 285 -360s-100 -360 -285 -360s-285 145 -285 360s105 360 285 360zM331 595c-109 0 -147 -105 -147 -245c0 -30 2 -58 6 -85l254 278c-23 33 -56 52 -103 52h-10zM341 105c109 0 147 105 147 245c0 30 -2 58 -6 84l-254 -277
c23 -33 57 -52 103 -52h10z" />
    <glyph glyph-name="uni24FF" unicode="&#x24ff;" horiz-adv-x="880" 
d="M440 -40c-214 0 -390 176 -390 390c0 215 176 390 390 390c215 0 390 -175 390 -390c0 -214 -175 -390 -390 -390zM440 149c123 0 174 100 174 202s-51 203 -174 203s-174 -101 -174 -203s51 -202 174 -202zM438 241c-42 0 -64 40 -64 110s22 111 64 111h4
c42 0 64 -41 64 -111s-22 -110 -64 -110h-4z" />
    <glyph glyph-name="uni2776" unicode="&#x2776;" horiz-adv-x="880" 
d="M440 -40c-214 0 -390 176 -390 390c0 215 176 390 390 390c215 0 390 -175 390 -390c0 -214 -175 -390 -390 -390zM402 155h105v395h-89l-125 -103v-126l109 90v-256z" />
    <glyph glyph-name="uni2777" unicode="&#x2777;" horiz-adv-x="880" 
d="M440 -40c-214 0 -390 176 -390 390c0 215 176 390 390 390c215 0 390 -175 390 -390c0 -214 -175 -390 -390 -390zM289 155h296v90h-154l95 87c31 29 58 58 58 106c0 56 -52 117 -141 117c-85 0 -151 -51 -156 -131h107c1 23 19 43 41 43h4c22 0 37 -16 37 -36
c0 -23 -20 -41 -38 -57l-149 -135v-84z" />
    <glyph glyph-name="uni2778" unicode="&#x2778;" horiz-adv-x="880" 
d="M440 -40c-214 0 -390 176 -390 390c0 215 176 390 390 390c215 0 390 -175 390 -390c0 -214 -175 -390 -390 -390zM433 150c79 0 156 37 156 112c0 40 -20 75 -58 93c37 16 55 48 55 87c0 73 -71 113 -148 113c-80 0 -149 -40 -149 -115h108c2 15 18 28 38 28h5
c24 0 38 -16 38 -36c0 -22 -16 -36 -40 -36h-37v-84h37c24 0 43 -13 43 -36s-19 -39 -44 -39h-5c-21 0 -41 12 -42 30h-108c0 -76 70 -117 151 -117z" />
    <glyph glyph-name="uni2779" unicode="&#x2779;" horiz-adv-x="880" 
d="M440 -40c-214 0 -390 176 -390 390c0 215 176 390 390 390c215 0 390 -175 390 -390c0 -214 -175 -390 -390 -390zM439 155h97v62h53v84h-53v249h-119l-174 -224v-109h196v-62zM334 301l105 137v-137h-105z" />
    <glyph glyph-name="uni277A" unicode="&#x277a;" horiz-adv-x="880" 
d="M440 -40c-214 0 -390 176 -390 390c0 215 176 390 390 390c215 0 390 -175 390 -390c0 -214 -175 -390 -390 -390zM426 150c94 0 160 55 160 142c0 84 -64 126 -121 126c-32 0 -55 -8 -72 -23l14 67h174v88h-252l-44 -235h108c9 11 24 17 38 17h4c27 0 45 -18 45 -45
c0 -26 -20 -49 -47 -49h-4c-23 0 -41 17 -46 37h-112c6 -76 71 -125 155 -125z" />
    <glyph glyph-name="uni277B" unicode="&#x277b;" horiz-adv-x="880" 
d="M440 -40c-214 0 -390 176 -390 390c0 215 176 390 390 390c215 0 390 -175 390 -390c0 -214 -175 -390 -390 -390zM431 150c90 0 152 58 152 138c0 73 -54 124 -127 124c-40 0 -71 -15 -91 -40c5 51 34 95 75 95h6c22 0 35 -14 39 -31h104c-2 68 -54 119 -138 119
c-112 0 -186 -85 -186 -222c0 -112 65 -183 166 -183zM426 238c-27 0 -47 19 -47 45c0 25 22 44 47 44h4c27 0 47 -17 47 -43s-20 -46 -47 -46h-4z" />
    <glyph glyph-name="uni277C" unicode="&#x277c;" horiz-adv-x="880" 
d="M440 -40c-214 0 -390 176 -390 390c0 215 176 390 390 390c215 0 390 -175 390 -390c0 -214 -175 -390 -390 -390zM354 155h113v18c0 112 41 220 120 299v78h-299v-90h180c-74 -80 -114 -183 -114 -292v-13z" />
    <glyph glyph-name="uni277D" unicode="&#x277d;" horiz-adv-x="880" 
d="M440 -40c-214 0 -390 176 -390 390c0 215 176 390 390 390c215 0 390 -175 390 -390c0 -214 -175 -390 -390 -390zM440 150c87 0 147 45 147 108c0 43 -27 78 -69 91c44 16 76 46 76 98c0 64 -69 108 -154 108s-155 -44 -155 -108c0 -52 32 -82 75 -98
c-42 -13 -69 -48 -69 -91c0 -63 62 -108 149 -108zM437 393c-24 0 -46 13 -46 37s22 37 46 37h5c24 0 46 -13 46 -37s-22 -37 -46 -37h-5zM437 238c-21 0 -40 14 -40 35s19 36 40 36h5c21 0 39 -15 39 -36s-18 -35 -39 -35h-5z" />
    <glyph glyph-name="uni277E" unicode="&#x277e;" horiz-adv-x="880" 
d="M440 -40c-214 0 -390 176 -390 390c0 215 176 390 390 390c215 0 390 -175 390 -390c0 -214 -175 -390 -390 -390zM424 150c112 0 186 85 186 222c0 112 -65 183 -166 183c-90 0 -152 -58 -152 -138c0 -73 54 -124 127 -124c40 0 71 15 91 40c-5 -51 -34 -95 -75 -95h-6
c-22 0 -35 14 -39 31h-104c2 -68 54 -119 138 -119zM445 378c-27 0 -47 17 -47 43s20 46 47 46h4c27 0 47 -19 47 -45c0 -25 -22 -44 -47 -44h-4z" />
    <glyph glyph-name="uni24EA" unicode="&#x24ea;" horiz-adv-x="880" 
d="M440 -39c-214 0 -390 176 -390 390c0 215 176 390 390 390c215 0 390 -175 390 -390c0 -214 -175 -390 -390 -390zM440 48c164 0 298 137 298 303s-134 303 -298 303s-298 -137 -298 -303s134 -303 298 -303zM440 150c-123 0 -174 100 -174 202s51 203 174 203
s174 -101 174 -203s-51 -202 -174 -202zM438 242h4c42 0 64 40 64 110s-22 111 -64 111h-4c-42 0 -64 -41 -64 -111s22 -110 64 -110z" />
    <glyph glyph-name="uni2460" unicode="&#x2460;" horiz-adv-x="880" 
d="M440 -39c-214 0 -390 176 -390 390c0 215 176 390 390 390c215 0 390 -175 390 -390c0 -214 -175 -390 -390 -390zM440 48c164 0 298 137 298 303s-134 303 -298 303s-298 -137 -298 -303s134 -303 298 -303zM402 156v256l-109 -90v126l125 103h89v-395h-105z" />
    <glyph glyph-name="uni2461" unicode="&#x2461;" horiz-adv-x="880" 
d="M440 -39c-214 0 -390 176 -390 390c0 215 176 390 390 390c215 0 390 -175 390 -390c0 -214 -175 -390 -390 -390zM440 48c164 0 298 137 298 303s-134 303 -298 303s-298 -137 -298 -303s134 -303 298 -303zM289 156v84l149 135c18 16 38 34 38 57c0 20 -15 36 -37 36
h-4c-22 0 -40 -20 -41 -43h-107c5 80 71 131 156 131c89 0 141 -61 141 -117c0 -48 -27 -77 -58 -106l-95 -87h154v-90h-296z" />
    <glyph glyph-name="uni2462" unicode="&#x2462;" horiz-adv-x="880" 
d="M440 -39c-214 0 -390 176 -390 390c0 215 176 390 390 390c215 0 390 -175 390 -390c0 -214 -175 -390 -390 -390zM440 48c164 0 298 137 298 303s-134 303 -298 303s-298 -137 -298 -303s134 -303 298 -303zM433 151c-81 0 -151 41 -151 117h108c1 -18 21 -30 42 -30h5
c25 0 44 16 44 39s-19 36 -43 36h-37v84h37c24 0 40 14 40 36c0 20 -14 36 -38 36h-5c-20 0 -36 -13 -38 -28h-108c0 75 69 115 149 115c77 0 148 -40 148 -113c0 -39 -18 -71 -55 -87c38 -18 58 -53 58 -93c0 -75 -77 -112 -156 -112z" />
    <glyph glyph-name="uni2463" unicode="&#x2463;" horiz-adv-x="880" 
d="M440 -39c-214 0 -390 176 -390 390c0 215 176 390 390 390c215 0 390 -175 390 -390c0 -214 -175 -390 -390 -390zM440 48c164 0 298 137 298 303s-134 303 -298 303s-298 -137 -298 -303s134 -303 298 -303zM439 156v62h-196v109l174 224h119v-249h53v-84h-53v-62h-97z
M334 302h105v137z" />
    <glyph glyph-name="uni2464" unicode="&#x2464;" horiz-adv-x="880" 
d="M440 -39c-214 0 -390 176 -390 390c0 215 176 390 390 390c215 0 390 -175 390 -390c0 -214 -175 -390 -390 -390zM440 48c164 0 298 137 298 303s-134 303 -298 303s-298 -137 -298 -303s134 -303 298 -303zM426 151c-84 0 -149 49 -155 125h112c5 -20 23 -37 46 -37h4
c27 0 47 23 47 49c0 27 -18 45 -45 45h-4c-14 0 -29 -6 -38 -17h-108l44 235h252v-88h-174l-14 -67c17 15 40 23 72 23c57 0 121 -42 121 -126c0 -87 -66 -142 -160 -142z" />
    <glyph glyph-name="uni2465" unicode="&#x2465;" horiz-adv-x="880" 
d="M440 -39c-214 0 -390 176 -390 390c0 215 176 390 390 390c215 0 390 -175 390 -390c0 -214 -175 -390 -390 -390zM440 48c164 0 298 137 298 303s-134 303 -298 303s-298 -137 -298 -303s134 -303 298 -303zM431 151c-101 0 -166 71 -166 183c0 137 74 222 186 222
c84 0 136 -51 138 -119h-104c-4 17 -17 31 -39 31h-6c-41 0 -70 -44 -75 -95c20 25 51 40 91 40c73 0 127 -51 127 -124c0 -80 -62 -138 -152 -138zM426 239h4c27 0 47 20 47 46s-20 43 -47 43h-4c-25 0 -47 -19 -47 -44c0 -26 20 -45 47 -45z" />
    <glyph glyph-name="uni2466" unicode="&#x2466;" horiz-adv-x="880" 
d="M440 -39c-214 0 -390 176 -390 390c0 215 176 390 390 390c215 0 390 -175 390 -390c0 -214 -175 -390 -390 -390zM440 48c164 0 298 137 298 303s-134 303 -298 303s-298 -137 -298 -303s134 -303 298 -303zM354 156v13c0 109 40 212 114 292h-180v90h299v-78
c-79 -79 -120 -187 -120 -299v-18h-113z" />
    <glyph glyph-name="uni2467" unicode="&#x2467;" horiz-adv-x="880" 
d="M440 -39c-214 0 -390 176 -390 390c0 215 176 390 390 390c215 0 390 -175 390 -390c0 -214 -175 -390 -390 -390zM440 48c164 0 298 137 298 303s-134 303 -298 303s-298 -137 -298 -303s134 -303 298 -303zM440 151c-87 0 -149 45 -149 108c0 43 27 78 69 91
c-43 16 -75 46 -75 98c0 64 70 108 155 108s154 -44 154 -108c0 -52 -32 -82 -76 -98c42 -13 69 -48 69 -91c0 -63 -60 -108 -147 -108zM437 394h5c24 0 46 13 46 37s-22 37 -46 37h-5c-24 0 -46 -13 -46 -37s22 -37 46 -37zM437 239h5c21 0 39 14 39 35s-18 36 -39 36h-5
c-21 0 -40 -15 -40 -36s19 -35 40 -35z" />
    <glyph glyph-name="uni2468" unicode="&#x2468;" horiz-adv-x="880" 
d="M440 -39c-214 0 -390 176 -390 390c0 215 176 390 390 390c215 0 390 -175 390 -390c0 -214 -175 -390 -390 -390zM440 48c164 0 298 137 298 303s-134 303 -298 303s-298 -137 -298 -303s134 -303 298 -303zM424 151c-84 0 -136 51 -138 119h104c4 -17 17 -31 39 -31h6
c41 0 70 44 75 95c-20 -25 -51 -40 -91 -40c-73 0 -127 51 -127 124c0 80 62 138 152 138c101 0 166 -71 166 -183c0 -137 -74 -222 -186 -222zM445 379h4c25 0 47 19 47 44c0 26 -20 45 -47 45h-4c-27 0 -47 -20 -47 -46s20 -43 47 -43z" />
    <glyph glyph-name="zero.osf" horiz-adv-x="604" 
d="M302 -10c-153 0 -255 110 -255 260s102 260 255 260s255 -110 255 -260s-102 -260 -255 -260zM298 95h8c84 0 121 74 121 155s-37 155 -121 155h-8c-84 0 -121 -74 -121 -155s37 -155 121 -155z" />
    <glyph glyph-name="one.osf" horiz-adv-x="407" 
d="M231 500h97v-500h-123v326l-164 -153v143z" />
    <glyph glyph-name="two.osf" horiz-adv-x="495" 
d="M336 201l-129 -96h227v-105h-380v123l229 181c21 17 31 35 31 51c0 28 -24 50 -58 50h-6c-39 0 -66 -24 -66 -74h-130c0 110 85 179 201 179c117 0 189 -61 189 -146c0 -62 -28 -104 -108 -163z" />
    <glyph glyph-name="three.osf" horiz-adv-x="588" 
d="M286 -210c-147 0 -248 77 -248 203h130c6 -57 44 -98 113 -98h10c82 0 116 55 116 105c0 64 -52 98 -127 98h-47v105h42c78 0 128 40 128 102c0 56 -45 100 -107 100h-10c-54 0 -99 -37 -105 -100h-130c0 120 103 205 240 205c150 0 242 -90 242 -195
c0 -80 -49 -142 -123 -162c74 -20 128 -83 128 -163c0 -130 -107 -200 -252 -200z" />
    <glyph glyph-name="four.osf" horiz-adv-x="633" 
d="M500 105h102v-105h-102v-200h-127v200h-337v127l320 373h144v-395zM167 105h206v237z" />
    <glyph glyph-name="five.osf" horiz-adv-x="583" 
d="M319 238c130 0 219 -90 219 -217c0 -137 -97 -231 -252 -231c-145 0 -245 85 -260 205h130c14 -62 61 -100 128 -100h6c66 0 118 46 118 121c0 76 -52 117 -118 117h-6c-35 0 -76 -19 -112 -58h-122l86 425h395v-105h-295l-43 -205c26 28 78 48 126 48z" />
    <glyph glyph-name="six.osf" horiz-adv-x="631" 
d="M347 460c122 0 226 -88 226 -230c0 -127 -90 -240 -255 -240c-170 0 -268 122 -268 337c0 232 139 383 314 383c118 0 209 -73 224 -190h-130c-6 45 -36 85 -100 85h-8c-76 0 -166 -62 -181 -240c31 58 99 95 178 95zM323 95c71 0 120 57 120 130s-49 130 -120 130h-8
c-73 0 -127 -54 -127 -130c0 -75 51 -130 127 -130h8z" />
    <glyph glyph-name="seven.osf" horiz-adv-x="550" 
d="M20 500h505v-110c-143 -93 -254 -245 -254 -525v-65h-136v65c0 295 131 448 255 530h-370v105z" />
    <glyph glyph-name="eight.osf" horiz-adv-x="588" 
d="M405 337c67 -23 118 -72 118 -157c0 -100 -79 -190 -229 -190s-229 90 -229 190c0 85 51 134 118 157c-70 25 -132 88 -132 183s83 190 243 190s243 -95 243 -190s-62 -158 -132 -183zM289 605c-59 0 -108 -44 -108 -107c0 -60 49 -102 108 -102h10c59 0 108 42 108 102
c0 63 -49 107 -108 107h-10zM299 95c52 0 94 39 94 100c0 58 -42 96 -94 96h-10c-52 0 -94 -38 -94 -96c0 -61 42 -100 94 -100h10z" />
    <glyph glyph-name="nine.osf" horiz-adv-x="617" 
d="M303 510c170 0 268 -122 268 -337c0 -232 -139 -383 -314 -383c-118 0 -209 73 -224 190h130c6 -45 36 -85 100 -85h8c76 0 166 62 181 240c-31 -58 -99 -95 -178 -95c-122 0 -226 88 -226 230c0 127 90 240 255 240zM306 145c73 0 127 54 127 130c0 75 -51 130 -127 130
h-8c-71 0 -120 -57 -120 -130s49 -130 120 -130h8z" />
    <glyph glyph-name="zero.osf.zero" horiz-adv-x="604" 
d="M302 510c153 0 255 -110 255 -260s-102 -260 -255 -260s-255 110 -255 260s102 260 255 260zM298 405c-84 0 -121 -74 -121 -155c0 -23 3 -45 9 -65l186 200c-17 12 -39 20 -66 20h-8zM306 95c84 0 121 74 121 155c0 21 -2 42 -8 60l-184 -197c17 -11 38 -18 63 -18h8z
" />
    <glyph glyph-name="zero.tf" 
d="M300 -10c-170 0 -268 133 -268 360s98 360 268 360s268 -133 268 -360s-98 -360 -268 -360zM296 105h8c83 0 130 90 130 245s-47 245 -130 245h-8c-83 0 -130 -90 -130 -245s47 -245 130 -245z" />
    <glyph glyph-name="one.tf" 
d="M376 115h198v-115h-530v115h205v397l-155 -149v165l177 172h105v-585z" />
    <glyph glyph-name="two.tf" 
d="M221 115h325v-115h-493v121l238 224c83 78 112 112 112 162s-38 88 -93 88h-10c-60 0 -105 -42 -107 -114h-133c0 143 104 229 244 229s232 -83 232 -198c0 -90 -42 -146 -133 -230z" />
    <glyph glyph-name="three.tf" 
d="M292 -10c-147 0 -248 77 -248 203h133c5 -51 43 -88 110 -88h10c80 0 113 50 113 95c0 60 -51 92 -124 92h-47v115h42c76 0 125 38 125 98c0 50 -44 90 -104 90h-10c-52 0 -97 -33 -102 -90h-133c0 120 103 205 240 205c150 0 242 -90 242 -195c0 -80 -49 -142 -123 -162
c74 -20 128 -83 128 -163c0 -130 -107 -200 -252 -200z" />
    <glyph glyph-name="four.tf" 
d="M352 0v142h-329v133l332 425h124v-443h85v-115h-85v-142h-127zM151 257h201v256z" />
    <glyph glyph-name="five.tf" 
d="M327 438c130 0 219 -90 219 -217c0 -137 -97 -231 -252 -231c-145 0 -245 85 -260 205h133c13 -56 60 -90 123 -90h10c63 0 113 41 113 111s-50 107 -113 107h-10c-33 0 -78 -13 -110 -48h-122l86 425h395v-115h-294l-40 -191c27 26 76 44 122 44z" />
    <glyph glyph-name="six.tf" 
d="M334 460c115 0 219 -88 219 -230c0 -127 -91 -240 -251 -240c-165 0 -263 127 -263 337c0 232 139 383 314 383c113 0 200 -73 215 -190h-133c-5 40 -32 75 -88 75h-8c-76 0 -166 -59 -181 -230c31 58 97 95 176 95zM308 105c65 0 112 53 112 120s-47 120 -112 120h-8
c-65 0 -120 -50 -120 -120c0 -65 50 -120 120 -120h8z" />
    <glyph glyph-name="seven.tf" 
d="M25 700h545v-110c-137 -110 -263 -245 -263 -525v-65h-139v65c0 305 149 441 255 520h-398v115z" />
    <glyph glyph-name="eight.tf" 
d="M300 -10c-150 0 -229 90 -229 190c0 85 51 136 118 159c-70 25 -132 86 -132 181s83 190 243 190s243 -95 243 -190s-62 -156 -132 -181c67 -23 118 -74 118 -159c0 -100 -79 -190 -229 -190zM295 400h10c57 0 105 41 105 98s-48 97 -105 97h-10c-57 0 -105 -40 -105 -97
s48 -98 105 -98zM295 105h10c50 0 91 35 91 90s-41 91 -91 91h-10c-50 0 -91 -36 -91 -91s41 -90 91 -90z" />
    <glyph glyph-name="nine.tf" 
d="M298 710c165 0 263 -127 263 -337c0 -232 -139 -383 -314 -383c-113 0 -200 73 -215 190h133c5 -40 32 -75 88 -75h8c76 0 166 59 181 230c-31 -58 -97 -95 -176 -95c-115 0 -219 88 -219 230c0 127 91 240 251 240zM300 355c65 0 120 50 120 120c0 65 -50 120 -120 120
h-8c-65 0 -112 -53 -112 -120s47 -120 112 -120h8z" />
    <glyph glyph-name="zero.tf.zero" 
d="M300 710c170 0 268 -133 268 -360s-98 -360 -268 -360s-268 133 -268 360s98 360 268 360zM296 595c-83 0 -130 -90 -130 -245c0 -24 1 -47 3 -68l230 251c-22 40 -54 62 -95 62h-8zM304 105c83 0 130 90 130 245c0 24 -1 47 -3 68l-230 -251c22 -40 54 -62 95 -62h8z
" />
    <glyph glyph-name="zero.subs" horiz-adv-x="420" 
d="M210 -120c-123 0 -174 100 -174 202s51 203 174 203s174 -101 174 -203s-51 -202 -174 -202zM208 -28h4c42 0 64 40 64 110s-22 111 -64 111h-4c-42 0 -64 -41 -64 -111s22 -110 64 -110z" />
    <glyph glyph-name="one.subs" horiz-adv-x="301" 
d="M139 -115v256l-109 -90v126l125 103h89v-395h-105z" />
    <glyph glyph-name="two.subs" horiz-adv-x="376" 
d="M39 -115v84l149 135c18 16 38 34 38 57c0 20 -15 36 -37 36h-4c-22 0 -40 -20 -41 -43h-107c5 80 71 131 156 131c89 0 141 -61 141 -117c0 -48 -27 -77 -58 -106l-95 -87h154v-90h-296z" />
    <glyph glyph-name="three.subs" horiz-adv-x="378" 
d="M183 -120c-81 0 -151 41 -151 117h108c1 -18 21 -30 42 -30h5c25 0 44 16 44 39s-19 36 -43 36h-37v84h37c24 0 40 14 40 36c0 20 -14 36 -38 36h-5c-20 0 -36 -13 -38 -28h-108c0 75 69 115 149 115c77 0 148 -40 148 -113c0 -39 -18 -71 -55 -87c38 -18 58 -53 58 -93
c0 -75 -77 -112 -156 -112z" />
    <glyph glyph-name="four.subs" horiz-adv-x="406" 
d="M224 -115v62h-196v109l174 224h119v-249h53v-84h-53v-62h-97zM119 31h105v137z" />
    <glyph glyph-name="five.subs" horiz-adv-x="381" 
d="M182 -120c-84 0 -149 49 -155 125h112c5 -20 23 -37 46 -37h4c27 0 47 23 47 49c0 27 -18 45 -45 45h-4c-14 0 -29 -6 -38 -17h-108l44 235h252v-88h-174l-14 -67c17 15 40 23 72 23c57 0 121 -42 121 -126c0 -87 -66 -142 -160 -142z" />
    <glyph glyph-name="six.subs" horiz-adv-x="396" 
d="M202 -120c-101 0 -166 71 -166 183c0 137 74 222 186 222c84 0 136 -51 138 -119h-104c-4 17 -17 31 -39 31h-6c-41 0 -70 -44 -75 -95c20 25 51 40 91 40c73 0 127 -51 127 -124c0 -80 -62 -138 -152 -138zM197 -32h4c27 0 47 20 47 46s-20 43 -47 43h-4
c-25 0 -47 -19 -47 -44c0 -26 20 -45 47 -45z" />
    <glyph glyph-name="seven.subs" horiz-adv-x="344" 
d="M90 -115v13c0 109 40 212 114 292h-180v90h299v-78c-79 -79 -120 -187 -120 -299v-18h-113z" />
    <glyph glyph-name="eight.subs" horiz-adv-x="384" 
d="M193 -120c-87 0 -149 45 -149 108c0 43 27 78 69 91c-43 16 -75 46 -75 98c0 64 70 108 155 108s154 -44 154 -108c0 -52 -32 -82 -76 -98c42 -13 69 -48 69 -91c0 -63 -60 -108 -147 -108zM190 123h5c24 0 46 13 46 37s-22 37 -46 37h-5c-24 0 -46 -13 -46 -37
s22 -37 46 -37zM190 -32h5c21 0 39 14 39 35s-18 36 -39 36h-5c-21 0 -40 -15 -40 -36s19 -35 40 -35z" />
    <glyph glyph-name="nine.subs" horiz-adv-x="395" 
d="M173 -120c-84 0 -136 51 -138 119h104c4 -17 17 -31 39 -31h6c41 0 70 44 75 95c-20 -25 -51 -40 -91 -40c-73 0 -127 51 -127 124c0 80 62 138 152 138c101 0 166 -71 166 -183c0 -137 -74 -222 -186 -222zM194 108h4c25 0 47 19 47 44c0 26 -20 45 -47 45h-4
c-27 0 -47 -20 -47 -46s20 -43 47 -43z" />
    <glyph glyph-name="zero.subs.zero" horiz-adv-x="420" 
d="M210 285c123 0 174 -101 174 -203s-51 -202 -174 -202s-174 100 -174 202s51 203 174 203zM208 193c-42 0 -64 -41 -64 -111c0 -10 0 -19 1 -28l110 118c-11 14 -25 21 -43 21h-4zM212 -28c42 0 64 40 64 110c0 11 -1 20 -1 30l-110 -118c10 -15 25 -22 43 -22h4z" />
    <glyph glyph-name="zero.dnom" horiz-adv-x="420" 
d="M210 -5c-123 0 -174 100 -174 202s51 203 174 203s174 -101 174 -203s-51 -202 -174 -202zM208 87h4c42 0 64 40 64 110s-22 111 -64 111h-4c-42 0 -64 -41 -64 -111s22 -110 64 -110z" />
    <glyph glyph-name="one.dnom" horiz-adv-x="301" 
d="M139 0v256l-109 -90v126l125 103h89v-395h-105z" />
    <glyph glyph-name="two.dnom" horiz-adv-x="376" 
d="M39 0v84l149 135c18 16 38 34 38 57c0 20 -15 36 -37 36h-4c-22 0 -40 -20 -41 -43h-107c5 80 71 131 156 131c89 0 141 -61 141 -117c0 -48 -27 -77 -58 -106l-95 -87h154v-90h-296z" />
    <glyph glyph-name="three.dnom" horiz-adv-x="378" 
d="M183 -5c-81 0 -151 41 -151 117h108c1 -18 21 -30 42 -30h5c25 0 44 16 44 39s-19 36 -43 36h-37v84h37c24 0 40 14 40 36c0 20 -14 36 -38 36h-5c-20 0 -36 -13 -38 -28h-108c0 75 69 115 149 115c77 0 148 -40 148 -113c0 -39 -18 -71 -55 -87c38 -18 58 -53 58 -93
c0 -75 -77 -112 -156 -112z" />
    <glyph glyph-name="four.dnom" horiz-adv-x="406" 
d="M224 0v62h-196v109l174 224h119v-249h53v-84h-53v-62h-97zM119 146h105v137z" />
    <glyph glyph-name="five.dnom" horiz-adv-x="381" 
d="M183 -5c-84 0 -149 49 -155 125h112c5 -20 23 -37 46 -37h4c27 0 47 23 47 49c0 27 -18 45 -45 45h-4c-14 0 -29 -6 -38 -17h-108l44 235h252v-88h-174l-14 -67c17 15 40 23 72 23c57 0 121 -42 121 -126c0 -87 -66 -142 -160 -142z" />
    <glyph glyph-name="six.dnom" horiz-adv-x="396" 
d="M202 -5c-101 0 -166 71 -166 183c0 137 74 222 186 222c84 0 136 -51 138 -119h-104c-4 17 -17 31 -39 31h-6c-41 0 -70 -44 -75 -95c20 25 51 40 91 40c73 0 127 -51 127 -124c0 -80 -62 -138 -152 -138zM197 83h4c27 0 47 20 47 46s-20 43 -47 43h-4
c-25 0 -47 -19 -47 -44c0 -26 20 -45 47 -45z" />
    <glyph glyph-name="seven.dnom" horiz-adv-x="344" 
d="M90 0v13c0 109 40 212 114 292h-180v90h299v-78c-79 -79 -120 -187 -120 -299v-18h-113z" />
    <glyph glyph-name="eight.dnom" horiz-adv-x="384" 
d="M193 -5c-87 0 -149 45 -149 108c0 43 27 78 69 91c-43 16 -75 46 -75 98c0 64 70 108 155 108s154 -44 154 -108c0 -52 -32 -82 -76 -98c42 -13 69 -48 69 -91c0 -63 -60 -108 -147 -108zM190 238h5c24 0 46 13 46 37s-22 37 -46 37h-5c-24 0 -46 -13 -46 -37
s22 -37 46 -37zM190 83h5c21 0 39 14 39 35s-18 36 -39 36h-5c-21 0 -40 -15 -40 -36s19 -35 40 -35z" />
    <glyph glyph-name="nine.dnom" horiz-adv-x="395" 
d="M173 -5c-84 0 -136 51 -138 119h104c4 -17 17 -31 39 -31h6c41 0 70 44 75 95c-20 -25 -51 -40 -91 -40c-73 0 -127 51 -127 124c0 80 62 138 152 138c101 0 166 -71 166 -183c0 -137 -74 -222 -186 -222zM194 223h4c25 0 47 19 47 44c0 26 -20 45 -47 45h-4
c-27 0 -47 -20 -47 -46s20 -43 47 -43z" />
    <glyph glyph-name="zero.dnom.zero" horiz-adv-x="420" 
d="M210 400c123 0 174 -101 174 -203s-51 -202 -174 -202s-174 100 -174 202s51 203 174 203zM208 308c-42 0 -64 -41 -64 -111c0 -10 0 -19 1 -28l110 118c-11 14 -25 21 -43 21h-4zM212 87c42 0 64 40 64 110c0 11 -1 20 -1 30l-110 -118c10 -15 25 -22 43 -22h4z" />
    <glyph glyph-name="zero.numr" horiz-adv-x="420" 
d="M210 300c-123 0 -174 100 -174 202s51 203 174 203s174 -101 174 -203s-51 -202 -174 -202zM208 392h4c42 0 64 40 64 110s-22 111 -64 111h-4c-42 0 -64 -41 -64 -111s22 -110 64 -110z" />
    <glyph glyph-name="one.numr" horiz-adv-x="301" 
d="M139 305v256l-109 -90v126l125 103h89v-395h-105z" />
    <glyph glyph-name="two.numr" horiz-adv-x="376" 
d="M39 305v84l149 135c18 16 38 34 38 57c0 20 -15 36 -37 36h-4c-22 0 -40 -20 -41 -43h-107c5 80 71 131 156 131c89 0 141 -61 141 -117c0 -48 -27 -77 -58 -106l-95 -87h154v-90h-296z" />
    <glyph glyph-name="three.numr" horiz-adv-x="378" 
d="M183 300c-81 0 -151 41 -151 117h108c1 -18 21 -30 42 -30h5c25 0 44 16 44 39s-19 36 -43 36h-37v84h37c24 0 40 14 40 36c0 20 -14 36 -38 36h-5c-20 0 -36 -13 -38 -28h-108c0 75 69 115 149 115c77 0 148 -40 148 -113c0 -39 -18 -71 -55 -87c38 -18 58 -53 58 -93
c0 -75 -77 -112 -156 -112z" />
    <glyph glyph-name="four.numr" horiz-adv-x="406" 
d="M224 305v62h-196v109l174 224h119v-249h53v-84h-53v-62h-97zM119 451h105v137z" />
    <glyph glyph-name="five.numr" horiz-adv-x="381" 
d="M182 300c-84 0 -149 49 -155 125h112c5 -20 23 -37 46 -37h4c27 0 47 23 47 49c0 27 -18 45 -45 45h-4c-14 0 -29 -6 -38 -17h-108l44 235h252v-88h-174l-14 -67c17 15 40 23 72 23c57 0 121 -42 121 -126c0 -87 -66 -142 -160 -142z" />
    <glyph glyph-name="six.numr" horiz-adv-x="396" 
d="M202 300c-101 0 -166 71 -166 183c0 137 74 222 186 222c84 0 136 -51 138 -119h-104c-4 17 -17 31 -39 31h-6c-41 0 -70 -44 -75 -95c20 25 51 40 91 40c73 0 127 -51 127 -124c0 -80 -62 -138 -152 -138zM197 388h4c27 0 47 20 47 46s-20 43 -47 43h-4
c-25 0 -47 -19 -47 -44c0 -26 20 -45 47 -45z" />
    <glyph glyph-name="seven.numr" horiz-adv-x="344" 
d="M89 305v13c0 109 40 212 114 292h-180v90h299v-78c-79 -79 -120 -187 -120 -299v-18h-113z" />
    <glyph glyph-name="eight.numr" horiz-adv-x="384" 
d="M193 300c-87 0 -149 45 -149 108c0 43 27 78 69 91c-43 16 -75 46 -75 98c0 64 70 108 155 108s154 -44 154 -108c0 -52 -32 -82 -76 -98c42 -13 69 -48 69 -91c0 -63 -60 -108 -147 -108zM190 543h5c24 0 46 13 46 37s-22 37 -46 37h-5c-24 0 -46 -13 -46 -37
s22 -37 46 -37zM190 388h5c21 0 39 14 39 35s-18 36 -39 36h-5c-21 0 -40 -15 -40 -36s19 -35 40 -35z" />
    <glyph glyph-name="nine.numr" horiz-adv-x="395" 
d="M173 300c-84 0 -136 51 -138 119h104c4 -17 17 -31 39 -31h6c41 0 70 44 75 95c-20 -25 -51 -40 -91 -40c-73 0 -127 51 -127 124c0 80 62 138 152 138c101 0 166 -71 166 -183c0 -137 -74 -222 -186 -222zM194 528h4c25 0 47 19 47 44c0 26 -20 45 -47 45h-4
c-27 0 -47 -20 -47 -46s20 -43 47 -43z" />
    <glyph glyph-name="zero.numr.zero" horiz-adv-x="420" 
d="M210 705c123 0 174 -101 174 -203s-51 -202 -174 -202s-174 100 -174 202s51 203 174 203zM208 613c-42 0 -64 -41 -64 -111c0 -10 0 -19 1 -28l110 118c-11 14 -25 21 -43 21h-4zM212 392c42 0 64 40 64 110c0 11 -1 20 -1 30l-110 -118c10 -15 25 -22 43 -22h4z" />
    <glyph glyph-name="uni2070" unicode="&#x2070;" horiz-adv-x="420" 
d="M210 410c-123 0 -174 100 -174 202s51 203 174 203s174 -101 174 -203s-51 -202 -174 -202zM208 502h4c42 0 64 40 64 110s-22 111 -64 111h-4c-42 0 -64 -41 -64 -111s22 -110 64 -110z" />
    <glyph glyph-name="uni00B9" unicode="&#xb9;" horiz-adv-x="301" 
d="M139 415v256l-109 -90v126l125 103h89v-395h-105z" />
    <glyph glyph-name="uni00B2" unicode="&#xb2;" horiz-adv-x="376" 
d="M39 415v84l149 135c18 16 38 34 38 57c0 20 -15 36 -37 36h-4c-22 0 -40 -20 -41 -43h-107c5 80 71 131 156 131c89 0 141 -61 141 -117c0 -48 -27 -77 -58 -106l-95 -87h154v-90h-296z" />
    <glyph glyph-name="uni00B3" unicode="&#xb3;" horiz-adv-x="378" 
d="M183 410c-81 0 -151 41 -151 117h108c1 -18 21 -30 42 -30h5c25 0 44 16 44 39s-19 36 -43 36h-37v84h37c24 0 40 14 40 36c0 20 -14 36 -38 36h-5c-20 0 -36 -13 -38 -28h-108c0 75 69 115 149 115c77 0 148 -40 148 -113c0 -39 -18 -71 -55 -87c38 -18 58 -53 58 -93
c0 -75 -77 -112 -156 -112z" />
    <glyph glyph-name="uni2074" unicode="&#x2074;" horiz-adv-x="406" 
d="M224 415v62h-196v109l174 224h119v-249h53v-84h-53v-62h-97zM119 561h105v137z" />
    <glyph glyph-name="uni2075" unicode="&#x2075;" horiz-adv-x="381" 
d="M182 410c-84 0 -149 49 -155 125h112c5 -20 23 -37 46 -37h4c27 0 47 23 47 49c0 27 -18 45 -45 45h-4c-14 0 -29 -6 -38 -17h-108l44 235h252v-88h-174l-14 -67c17 15 40 23 72 23c57 0 121 -42 121 -126c0 -87 -66 -142 -160 -142z" />
    <glyph glyph-name="uni2076" unicode="&#x2076;" horiz-adv-x="396" 
d="M202 410c-101 0 -166 71 -166 183c0 137 74 222 186 222c84 0 136 -51 138 -119h-104c-4 17 -17 31 -39 31h-6c-41 0 -70 -44 -75 -95c20 25 51 40 91 40c73 0 127 -51 127 -124c0 -80 -62 -138 -152 -138zM197 498h4c27 0 47 20 47 46s-20 43 -47 43h-4
c-25 0 -47 -19 -47 -44c0 -26 20 -45 47 -45z" />
    <glyph glyph-name="uni2077" unicode="&#x2077;" horiz-adv-x="344" 
d="M90 415v13c0 109 40 212 114 292h-180v90h299v-78c-79 -79 -120 -187 -120 -299v-18h-113z" />
    <glyph glyph-name="uni2078" unicode="&#x2078;" horiz-adv-x="384" 
d="M193 410c-87 0 -149 45 -149 108c0 43 27 78 69 91c-43 16 -75 46 -75 98c0 64 70 108 155 108s154 -44 154 -108c0 -52 -32 -82 -76 -98c42 -13 69 -48 69 -91c0 -63 -60 -108 -147 -108zM190 653h5c24 0 46 13 46 37s-22 37 -46 37h-5c-24 0 -46 -13 -46 -37
s22 -37 46 -37zM190 498h5c21 0 39 14 39 35s-18 36 -39 36h-5c-21 0 -40 -15 -40 -36s19 -35 40 -35z" />
    <glyph glyph-name="uni2079" unicode="&#x2079;" horiz-adv-x="395" 
d="M173 410c-84 0 -136 51 -138 119h104c4 -17 17 -31 39 -31h6c41 0 70 44 75 95c-20 -25 -51 -40 -91 -40c-73 0 -127 51 -127 124c0 80 62 138 152 138c101 0 166 -71 166 -183c0 -137 -74 -222 -186 -222zM194 638h4c25 0 47 19 47 44c0 26 -20 45 -47 45h-4
c-27 0 -47 -20 -47 -46s20 -43 47 -43z" />
    <glyph glyph-name="uni2070.zero" horiz-adv-x="420" 
d="M210 815c123 0 174 -101 174 -203s-51 -202 -174 -202s-174 100 -174 202s51 203 174 203zM208 723c-42 0 -64 -41 -64 -111c0 -10 0 -19 1 -28l110 118c-11 14 -25 21 -43 21h-4zM212 502c42 0 64 40 64 110c0 11 -1 20 -1 30l-110 -118c10 -15 25 -22 43 -22h4z" />
    <glyph glyph-name="fraction" unicode="&#x2044;" horiz-adv-x="200" 
d="M-170 0l420 700h117l-420 -700h-117z" />
    <glyph glyph-name="uni215F" unicode="&#x215f;" horiz-adv-x="698" 
d="M133 305v256l-109 -90v126l125 103h89v-395h-105zM167 0l420 700h117l-420 -700h-117z" />
    <glyph glyph-name="onehalf" unicode="&#xbd;" horiz-adv-x="930" 
d="M141 305v256l-109 -90v126l125 103h89v-395h-105zM178 0l420 700h117l-420 -700h-117zM595 0v84l149 135c18 16 38 34 38 57c0 20 -15 36 -37 36h-4c-22 0 -40 -20 -41 -43h-107c5 80 71 131 156 131c89 0 141 -61 141 -117c0 -48 -27 -77 -58 -106l-95 -87h154v-90h-296
z" />
    <glyph glyph-name="uni2153" unicode="&#x2153;" horiz-adv-x="918" 
d="M141 305v256l-109 -90v126l125 103h89v-395h-105zM173 0l420 700h117l-420 -700h-117zM725 -5c-81 0 -151 41 -151 117h108c1 -18 21 -30 42 -30h5c25 0 44 16 44 39s-19 36 -43 36h-37v84h37c24 0 40 14 40 36c0 20 -14 36 -38 36h-5c-20 0 -36 -13 -38 -28h-108
c0 75 69 115 149 115c77 0 148 -40 148 -113c0 -39 -18 -71 -55 -87c38 -18 58 -53 58 -93c0 -75 -77 -112 -156 -112z" />
    <glyph glyph-name="uni2154" unicode="&#x2154;" horiz-adv-x="959" 
d="M44 305v84l149 135c18 16 38 34 38 57c0 20 -15 36 -37 36h-4c-22 0 -40 -20 -41 -43h-107c5 80 71 131 156 131c89 0 141 -61 141 -117c0 -48 -27 -77 -58 -106l-95 -87h154v-90h-296zM225 0l420 700h117l-420 -700h-117zM767 -5c-81 0 -151 41 -151 117h108
c1 -18 21 -30 42 -30h5c25 0 44 16 44 39s-19 36 -43 36h-37v84h37c24 0 40 14 40 36c0 20 -14 36 -38 36h-5c-20 0 -36 -13 -38 -28h-108c0 75 69 115 149 115c77 0 148 -40 148 -113c0 -39 -18 -71 -55 -87c38 -18 58 -53 58 -93c0 -75 -77 -112 -156 -112z" />
    <glyph glyph-name="onequarter" unicode="&#xbc;" horiz-adv-x="909" 
d="M141 305v256l-109 -90v126l125 103h89v-395h-105zM178 0l420 700h117l-420 -700h-117zM728 0v62h-196v109l174 224h119v-249h53v-84h-53v-62h-97zM623 146h105v137z" />
    <glyph glyph-name="threequarters" unicode="&#xbe;" horiz-adv-x="961" 
d="M186 300c-81 0 -151 41 -151 117h108c1 -18 21 -30 42 -30h5c25 0 44 16 44 39s-19 36 -43 36h-37v84h37c24 0 40 14 40 36c0 20 -14 36 -38 36h-5c-20 0 -36 -13 -38 -28h-108c0 75 69 115 149 115c77 0 148 -40 148 -113c0 -39 -18 -71 -55 -87c38 -18 58 -53 58 -93
c0 -75 -77 -112 -156 -112zM229 0l420 700h117l-420 -700h-117zM780 0v62h-196v109l174 224h119v-249h53v-84h-53v-62h-97zM675 146h105v137z" />
    <glyph glyph-name="uni2155" unicode="&#x2155;" horiz-adv-x="925" 
d="M141 305v256l-109 -90v126l125 103h89v-395h-105zM180 0l420 700h117l-420 -700h-117zM721 -5c-84 0 -149 49 -155 125h112c5 -20 23 -37 46 -37h4c27 0 47 23 47 49c0 27 -18 45 -45 45h-4c-14 0 -29 -6 -38 -17h-108l44 235h252v-88h-174l-14 -67c17 15 40 23 72 23
c57 0 121 -42 121 -126c0 -87 -66 -142 -160 -142z" />
    <glyph glyph-name="uni2156" unicode="&#x2156;" horiz-adv-x="973" 
d="M44 305v84l149 135c18 16 38 34 38 57c0 20 -15 36 -37 36h-4c-22 0 -40 -20 -41 -43h-107c5 80 71 131 156 131c89 0 141 -61 141 -117c0 -48 -27 -77 -58 -106l-95 -87h154v-90h-296zM230 0l420 700h117l-420 -700h-117zM771 -5c-84 0 -149 49 -155 125h112
c5 -20 23 -37 46 -37h4c27 0 47 23 47 49c0 27 -18 45 -45 45h-4c-14 0 -29 -6 -38 -17h-108l44 235h252v-88h-174l-14 -67c17 15 40 23 72 23c57 0 121 -42 121 -126c0 -87 -66 -142 -160 -142z" />
    <glyph glyph-name="uni2157" unicode="&#x2157;" horiz-adv-x="977" 
d="M185 300c-81 0 -151 41 -151 117h108c1 -18 21 -30 42 -30h5c25 0 44 16 44 39s-19 36 -43 36h-37v84h37c24 0 40 14 40 36c0 20 -14 36 -38 36h-5c-20 0 -36 -13 -38 -28h-108c0 75 69 115 149 115c77 0 148 -40 148 -113c0 -39 -18 -71 -55 -87c38 -18 58 -53 58 -93
c0 -75 -77 -112 -156 -112zM234 0l420 700h117l-420 -700h-117zM775 -5c-84 0 -149 49 -155 125h112c5 -20 23 -37 46 -37h4c27 0 47 23 47 49c0 27 -18 45 -45 45h-4c-14 0 -29 -6 -38 -17h-108l44 235h252v-88h-174l-14 -67c17 15 40 23 72 23c57 0 121 -42 121 -126
c0 -87 -66 -142 -160 -142z" />
    <glyph glyph-name="uni2158" unicode="&#x2158;" horiz-adv-x="1001" 
d="M227 305v62h-196v109l174 224h119v-249h53v-84h-53v-62h-97zM256 0l420 700h117l-420 -700h-117zM122 451h105v137zM797 -5c-84 0 -149 49 -155 125h112c5 -20 23 -37 46 -37h4c27 0 47 23 47 49c0 27 -18 45 -45 45h-4c-14 0 -29 -6 -38 -17h-108l44 235h252v-88h-174
l-14 -67c17 15 40 23 72 23c57 0 121 -42 121 -126c0 -87 -66 -142 -160 -142z" />
    <glyph glyph-name="uni2159" unicode="&#x2159;" horiz-adv-x="917" 
d="M141 305v256l-109 -90v126l125 103h89v-395h-105zM175 0l420 700h117l-420 -700h-117zM724 -5c-101 0 -166 71 -166 183c0 137 74 222 186 222c84 0 136 -51 138 -119h-104c-4 17 -17 31 -39 31h-6c-41 0 -70 -44 -75 -95c20 25 51 40 91 40c73 0 127 -51 127 -124
c0 -80 -62 -138 -152 -138zM719 83h4c27 0 47 20 47 46s-20 43 -47 43h-4c-25 0 -47 -19 -47 -44c0 -26 20 -45 47 -45z" />
    <glyph glyph-name="uni215A" unicode="&#x215a;" horiz-adv-x="963" 
d="M185 300c-84 0 -149 49 -155 125h112c5 -20 23 -37 46 -37h4c27 0 47 23 47 49c0 27 -18 45 -45 45h-4c-14 0 -29 -6 -38 -17h-108l44 235h252v-88h-174l-14 -67c17 15 40 23 72 23c57 0 121 -42 121 -126c0 -87 -66 -142 -160 -142zM219 0l420 700h117l-420 -700h-117z
M768 -5c-101 0 -166 71 -166 183c0 137 74 222 186 222c84 0 136 -51 138 -119h-104c-4 17 -17 31 -39 31h-6c-41 0 -70 -44 -75 -95c20 25 51 40 91 40c73 0 127 -51 127 -124c0 -80 -62 -138 -152 -138zM763 83h4c27 0 47 20 47 46s-20 43 -47 43h-4
c-25 0 -47 -19 -47 -44c0 -26 20 -45 47 -45z" />
    <glyph glyph-name="oneeighth" unicode="&#x215b;" horiz-adv-x="927" 
d="M141 305v256l-109 -90v126l125 103h89v-395h-105zM175 0l420 700h117l-420 -700h-117zM738 -5c-87 0 -149 45 -149 108c0 43 27 78 69 91c-43 16 -75 46 -75 98c0 64 70 108 155 108s154 -44 154 -108c0 -52 -32 -82 -76 -98c42 -13 69 -48 69 -91
c0 -63 -60 -108 -147 -108zM735 238h5c24 0 46 13 46 37s-22 37 -46 37h-5c-24 0 -46 -13 -46 -37s22 -37 46 -37zM735 83h5c21 0 39 14 39 35s-18 36 -39 36h-5c-21 0 -40 -15 -40 -36s19 -35 40 -35z" />
    <glyph glyph-name="threeeighths" unicode="&#x215c;" horiz-adv-x="979" 
d="M185 300c-81 0 -151 41 -151 117h108c1 -18 21 -30 42 -30h5c25 0 44 16 44 39s-19 36 -43 36h-37v84h37c24 0 40 14 40 36c0 20 -14 36 -38 36h-5c-20 0 -36 -13 -38 -28h-108c0 75 69 115 149 115c77 0 148 -40 148 -113c0 -39 -18 -71 -55 -87c38 -18 58 -53 58 -93
c0 -75 -77 -112 -156 -112zM228 0l420 700h117l-420 -700h-117zM791 -5c-87 0 -149 45 -149 108c0 43 27 78 69 91c-43 16 -75 46 -75 98c0 64 70 108 155 108s154 -44 154 -108c0 -52 -32 -82 -76 -98c42 -13 69 -48 69 -91c0 -63 -60 -108 -147 -108zM788 238h5
c24 0 46 13 46 37s-22 37 -46 37h-5c-24 0 -46 -13 -46 -37s22 -37 46 -37zM788 83h5c21 0 39 14 39 35s-18 36 -39 36h-5c-21 0 -40 -15 -40 -36s19 -35 40 -35z" />
    <glyph glyph-name="fiveeighths" unicode="&#x215d;" horiz-adv-x="979" 
d="M185 300c-84 0 -149 49 -155 125h112c5 -20 23 -37 46 -37h4c27 0 47 23 47 49c0 27 -18 45 -45 45h-4c-14 0 -29 -6 -38 -17h-108l44 235h252v-88h-174l-14 -67c17 15 40 23 72 23c57 0 121 -42 121 -126c0 -87 -66 -142 -160 -142zM225 0l420 700h117l-420 -700h-117z
M788 -5c-87 0 -149 45 -149 108c0 43 27 78 69 91c-43 16 -75 46 -75 98c0 64 70 108 155 108s154 -44 154 -108c0 -52 -32 -82 -76 -98c42 -13 69 -48 69 -91c0 -63 -60 -108 -147 -108zM785 238h5c24 0 46 13 46 37s-22 37 -46 37h-5c-24 0 -46 -13 -46 -37s22 -37 46 -37
zM785 83h5c21 0 39 14 39 35s-18 36 -39 36h-5c-21 0 -40 -15 -40 -36s19 -35 40 -35z" />
    <glyph glyph-name="seveneighths" unicode="&#x215e;" horiz-adv-x="900" 
d="M96 305v13c0 109 40 212 114 292h-180v90h299v-78c-79 -79 -120 -187 -120 -299v-18h-113zM146 0l420 700h117l-420 -700h-117zM709 -5c-87 0 -149 45 -149 108c0 43 27 78 69 91c-43 16 -75 46 -75 98c0 64 70 108 155 108s154 -44 154 -108c0 -52 -32 -82 -76 -98
c42 -13 69 -48 69 -91c0 -63 -60 -108 -147 -108zM706 238h5c24 0 46 13 46 37s-22 37 -46 37h-5c-24 0 -46 -13 -46 -37s22 -37 46 -37zM706 83h5c21 0 39 14 39 35s-18 36 -39 36h-5c-21 0 -40 -15 -40 -36s19 -35 40 -35z" />
    <glyph glyph-name="uni2160" unicode="&#x2160;" horiz-adv-x="500" 
d="M48 0v105h137v490h-137v105h404v-105h-137v-490h137v-105h-404z" />
    <glyph glyph-name="uni2161" unicode="&#x2161;" horiz-adv-x="785" 
d="M48 0v105h137v490h-137v105h689v-105h-137v-490h137v-105h-689zM315 105h155v490h-155v-490z" />
    <glyph glyph-name="uni2162" unicode="&#x2162;" horiz-adv-x="1070" 
d="M48 0v105h137v490h-137v105h974v-105h-137v-490h137v-105h-974zM315 105h155v490h-155v-490zM600 105h155v490h-155v-490z" />
    <glyph glyph-name="uni2163" unicode="&#x2163;" horiz-adv-x="1082" 
d="M49 0v105h137v490h-137v105h577v-105h-95l143 -485l154 485h-98v105h320v-105h-95l-159 -490h124v-105h-871zM316 105h233l-148 490h-85v-490z" />
    <glyph glyph-name="uni2164" unicode="&#x2164;" horiz-adv-x="809" 
d="M777 595h-95l-159 -490h124v-105h-495v105h124l-148 490h-96v105h321v-105h-95l143 -485l154 485h-98v105h320v-105z" />
    <glyph glyph-name="uni2165" unicode="&#x2165;" horiz-adv-x="1080" 
d="M151 0v105h124l-148 490h-96v105h321v-105h-95l143 -485l154 485h-98v105h575v-105h-137v-490h137v-105h-880zM522 105h242v490h-83z" />
    <glyph glyph-name="uni2166" unicode="&#x2166;" horiz-adv-x="1365" 
d="M151 0v105h124l-148 490h-96v105h321v-105h-95l143 -485l154 485h-98v105h860v-105h-137v-490h137v-105h-1165zM522 105h242v490h-83zM894 105h155v490h-155v-490z" />
    <glyph glyph-name="uni2167" unicode="&#x2167;" horiz-adv-x="1650" 
d="M151 0v105h124l-148 490h-96v105h321v-105h-95l143 -485l154 485h-98v105h1145v-105h-137v-490h137v-105h-1450zM522 105h242v490h-83zM894 105h155v490h-155v-490zM1179 105h155v490h-155v-490z" />
    <glyph glyph-name="uni2168" unicode="&#x2168;" horiz-adv-x="1032" 
d="M896 105h92v-105h-940v105h137v490h-137v105h930v-105h-90l-183 -240zM315 105h60l189 247l-186 243h-63v-490zM750 595h-229l115 -150zM513 105h240l-120 157z" />
    <glyph glyph-name="uni2169" unicode="&#x2169;" horiz-adv-x="798" 
d="M44 0v105h97l189 247l-186 243h-90v105h690v-105h-90l-183 -240l191 -250h92v-105h-710zM402 445l114 150h-229zM279 105h240l-120 157z" />
    <glyph glyph-name="uni216C" unicode="&#x216c;" horiz-adv-x="698" 
d="M48 0v105h137v490h-137v105h404v-105h-137v-490h215v165h130v-270h-612z" />
    <glyph glyph-name="uni216D" unicode="&#x216d;" horiz-adv-x="753" 
d="M360 -10c-181 0 -311 135 -311 360s145 360 326 360c70 0 140 -22 189 -72v62h125v-230h-119c-24 91 -107 135 -173 135h-10c-127 0 -208 -95 -208 -251c0 -164 77 -259 206 -259h10c70 0 138 45 170 135h119v-230h-125v68c-50 -55 -126 -78 -199 -78z" />
    <glyph glyph-name="uni216E" unicode="&#x216e;" horiz-adv-x="802" 
d="M48 0v105h137v490h-137v105h364c201 0 341 -130 341 -347c0 -223 -140 -353 -341 -353h-364zM315 105h87c142 0 221 73 221 249c0 169 -79 241 -221 241h-87v-490z" />
    <glyph glyph-name="uni216F" unicode="&#x216f;" horiz-adv-x="1111" 
d="M48 0v105h137v490h-137v105h347l165 -529l163 529h340v-105h-137v-490h137v-105h-332v105h67v444l-177 -549h-132l-176 558v-453h67v-105h-332z" />
    <glyph glyph-name="period" unicode="." horiz-adv-x="269" 
d="M62 0v145h145v-145h-145z" />
    <glyph glyph-name="comma" unicode="," horiz-adv-x="272" 
d="M31 -150v75h36c45 0 62 30 62 65v10h-65v145h145v-160c0 -70 -57 -135 -137 -135h-41z" />
    <glyph glyph-name="colon" unicode=":" horiz-adv-x="271" 
d="M63 355v145h145v-145h-145zM63 0v145h145v-145h-145z" />
    <glyph glyph-name="semicolon" unicode=";" horiz-adv-x="290" 
d="M76 355v145h145v-145h-145zM43 -150v75h36c45 0 62 30 62 65v10h-65v145h145v-160c0 -70 -57 -135 -137 -135h-41z" />
    <glyph glyph-name="ellipsis" unicode="&#x2026;" horiz-adv-x="779" 
d="M62 0v145h145v-145h-145zM317 0v145h145v-145h-145zM572 0v145h145v-145h-145z" />
    <glyph glyph-name="exclam" unicode="!" horiz-adv-x="281" 
d="M105 175l-31 285v240h133v-240l-31 -285h-71zM70 0v135h140v-135h-140z" />
    <glyph glyph-name="exclamdown" unicode="&#xa1;" horiz-adv-x="269" 
d="M205 500v-135h-140v135h140zM170 325l31 -285v-240h-133v240l31 285h71z" />
    <glyph glyph-name="exclamdown.case" horiz-adv-x="293" 
d="M217 700v-135h-140v135h140zM182 525l31 -285v-240h-133v240l31 285h71z" />
    <glyph glyph-name="question" unicode="?" horiz-adv-x="491" 
d="M128 191v154c0 50 29 80 79 80h27c55 0 93 20 93 80c0 50 -38 80 -93 80h-200v115h218c120 0 207 -75 207 -195c0 -100 -67 -185 -182 -185c-20 0 -26 -5 -26 -25v-104h-123zM119 0v135h140v-135h-140z" />
    <glyph glyph-name="questiondown" unicode="&#xbf;" horiz-adv-x="485" 
d="M369 500v-135h-140v135h140zM360 309v-154c0 -50 -29 -80 -79 -80h-27c-55 0 -93 -20 -93 -80c0 -50 38 -80 93 -80h200v-115h-218c-120 0 -207 75 -207 195c0 100 67 185 182 185c20 0 26 5 26 25v104h123z" />
    <glyph glyph-name="questiondown.case" horiz-adv-x="492" 
d="M372 701v-135h-140v135h140zM363 510v-154c0 -50 -29 -80 -79 -80h-27c-55 0 -93 -20 -93 -80c0 -50 38 -80 93 -80h200v-115h-218c-120 0 -207 75 -207 195c0 100 67 185 182 185c20 0 26 5 26 25v104h123z" />
    <glyph glyph-name="question.ss06" horiz-adv-x="517" 
d="M154 190v119c0 45 17 63 55 79l53 22c50 21 93 39 93 107c0 50 -32 88 -95 88c-57 0 -95 -40 -100 -95h-130c5 125 110 200 230 200c125 0 225 -73 225 -193c0 -101 -67 -159 -145 -193l-37 -16c-21 -9 -24 -19 -24 -45v-73h-125zM146 0v135h140v-135h-140z" />
    <glyph glyph-name="questiondown.ss06" horiz-adv-x="512" 
d="M369 500v-135h-140v135h140zM361 310v-119c0 -45 -17 -63 -55 -79l-53 -22c-50 -21 -93 -39 -93 -107c0 -50 32 -88 95 -88c57 0 95 40 100 95h130c-5 -125 -110 -200 -230 -200c-125 0 -225 73 -225 193c0 101 67 159 145 193l37 16c21 9 24 19 24 45v73h125z" />
    <glyph glyph-name="questiondown.ss06.case" horiz-adv-x="517" 
d="M371 700v-135h-140v135h140zM363 510v-119c0 -45 -17 -63 -55 -79l-53 -22c-50 -21 -93 -39 -93 -107c0 -50 32 -88 95 -88c57 0 95 40 100 95h130c-5 -125 -110 -200 -230 -200c-125 0 -225 73 -225 193c0 101 67 159 145 193l37 16c21 9 24 19 24 45v73h125z" />
    <glyph glyph-name="periodcentered" unicode="&#xb7;" horiz-adv-x="254" 
d="M62 290v131h130v-131h-130z" />
    <glyph glyph-name="bullet" unicode="&#x2022;" horiz-adv-x="548" 
d="M274 145c-113 0 -205 92 -205 205s92 205 205 205s205 -92 205 -205s-92 -205 -205 -205z" />
    <glyph glyph-name="asterisk" unicode="*" horiz-adv-x="447" 
d="M171 405l-84 46l53 87h-95v92h95l-53 87l84 46l53 -87l52 87l84 -46l-53 -87h95v-92h-95l53 -87l-84 -46l-52 87z" />
    <glyph glyph-name="numbersign" unicode="#" horiz-adv-x="709" 
d="M670 425h-124l-32 -150h113v-115h-138l-34 -160h-120l34 160h-110l-34 -160h-120l34 160h-100v115h125l32 150h-114v115h139l34 160h120l-34 -160h110l34 160h120l-34 -160h99v-115zM394 275l32 150h-110l-32 -150h110z" />
    <glyph glyph-name="slash" unicode="/" horiz-adv-x="462" 
d="M28 0l270 700h135l-265 -700h-140z" />
    <glyph glyph-name="backslash" unicode="\" horiz-adv-x="462" 
d="M294 0l-265 700h135l270 -700h-140z" />
    <glyph glyph-name="period.tf" 
d="M227 0v145h145v-145h-145z" />
    <glyph glyph-name="comma.tf" 
d="M195 -150v75h36c45 0 62 30 62 65v10h-65v145h145v-160c0 -70 -57 -135 -137 -135h-41z" />
    <glyph glyph-name="colon.tf" 
d="M227 355v145h145v-145h-145zM227 0v145h145v-145h-145z" />
    <glyph glyph-name="semicolon.tf" 
d="M231 355v145h145v-145h-145zM198 -150v75h36c45 0 62 30 62 65v10h-65v145h145v-160c0 -70 -57 -135 -137 -135h-41z" />
    <glyph glyph-name="numbersign.tf" 
d="M569 425h-82l-31 -150h93v-115h-117l-33 -160h-118l33 160h-100l-33 -160h-118l33 160h-66v115h90l31 150h-101v115h125l33 160h118l-33 -160h100l33 160h118l-33 -160h58v-115zM338 275l31 150h-100l-31 -150h100z" />
    <glyph glyph-name="parenleft" unicode="(" horiz-adv-x="410" 
d="M383 -145c-160 0 -340 155 -340 495s180 495 340 495v-110c-85 -12 -210 -101 -210 -385s125 -373 210 -385v-110z" />
    <glyph glyph-name="parenright" unicode=")" horiz-adv-x="410" 
d="M27 845c160 0 340 -155 340 -495s-180 -495 -340 -495v110c85 12 210 101 210 385s-125 373 -210 385v110z" />
    <glyph glyph-name="braceleft" unicode="{" horiz-adv-x="365" 
d="M246 -145c-90 0 -135 50 -135 155v205c0 50 -10 65 -50 65h-25v140h25c40 0 50 15 50 65v205c0 105 45 155 135 155h86v-105h-31c-50 0 -60 -20 -60 -75v-213c0 -65 -35 -91 -80 -91v-22c45 0 80 -26 80 -91v-213c0 -55 10 -75 60 -75h31v-105h-86z" />
    <glyph glyph-name="braceright" unicode="}" horiz-adv-x="365" 
d="M119 846c90 0 135 -50 135 -155v-205c0 -50 10 -65 50 -65h25v-140h-25c-40 0 -50 -15 -50 -65v-205c0 -105 -45 -155 -135 -155h-86v105h31c50 0 60 20 60 75v213c0 65 35 91 80 91v22c-45 0 -80 26 -80 91v213c0 55 -10 75 -60 75h-31v105h86z" />
    <glyph glyph-name="bracketleft" unicode="[" horiz-adv-x="351" 
d="M80 -145v990h240v-105h-110v-780h110v-105h-240z" />
    <glyph glyph-name="bracketright" unicode="]" horiz-adv-x="351" 
d="M271 845v-990h-240v105h110v780h-110v105h240z" />
    <glyph glyph-name="uniE00A" unicode="&#xe00a;" horiz-adv-x="386" 
d="M238 -145c-75 0 -140 45 -140 125c0 30 7 59 36 90c-66 14 -81 62 -81 109v342c0 47 15 100 81 114c-27 29 -36 55 -36 85c0 80 65 125 140 125h115v-105h-82c-26 0 -43 -14 -43 -36v-8c0 -22 17 -36 43 -36h17v-105h-43c-40 0 -62 -18 -62 -58v-294c0 -40 22 -58 62 -58
h43v-105h-18c-26 0 -42 -14 -42 -36v-8c0 -22 16 -36 42 -36h83v-105h-115z" />
    <glyph glyph-name="uniE00B" unicode="&#xe00b;" horiz-adv-x="386" 
d="M148 845c75 0 140 -45 140 -125c0 -30 -7 -59 -36 -90c66 -14 81 -62 81 -109v-342c0 -47 -15 -100 -81 -114c27 -29 36 -55 36 -85c0 -80 -65 -125 -140 -125h-115v105h82c26 0 43 14 43 36v8c0 22 -17 36 -43 36h-17v105h43c40 0 62 18 62 58v294c0 40 -22 58 -62 58
h-43v105h18c26 0 42 14 42 36v8c0 22 -16 36 -42 36h-83v105h115z" />
    <glyph glyph-name="angleleft" unicode="&#x2329;" horiz-adv-x="413" 
d="M250 -85l-228 435l228 435h135l-225 -433l225 -437h-135z" />
    <glyph glyph-name="angleright" unicode="&#x232a;" horiz-adv-x="413" 
d="M163 785l228 -435l-228 -435h-135l225 433l-225 437h135z" />
    <glyph glyph-name="uni3010" unicode="&#x3010;" horiz-adv-x="402" 
d="M80 -145v990h322c-133 -142 -192 -322 -192 -494c0 -169 57 -350 192 -496h-322z" />
    <glyph glyph-name="uni3011" unicode="&#x3011;" horiz-adv-x="402" 
d="M322 846v-990h-322c133 142 192 322 192 494c0 169 -57 350 -192 496h322z" />
    <glyph glyph-name="uni300C" unicode="&#x300c;" horiz-adv-x="350" 
d="M65 388v457h265v-105h-139v-352h-126z" />
    <glyph glyph-name="uni300D" unicode="&#x300d;" horiz-adv-x="350" 
d="M285 312v-457h-265v105h139v352h126z" />
    <glyph glyph-name="uni300A" unicode="&#x300a;" horiz-adv-x="644" 
d="M250 -85l-228 435l228 435h135l-225 -433l225 -437h-135zM481 -85l-228 435l228 435h135l-225 -433l225 -437h-135z" />
    <glyph glyph-name="uni300B" unicode="&#x300b;" horiz-adv-x="644" 
d="M163 785l228 -435l-228 -435h-135l225 433l-225 437h135zM394 785l228 -435l-228 -435h-135l225 433l-225 437h135z" />
    <glyph glyph-name="uni3014" unicode="&#x3014;" horiz-adv-x="352" 
d="M203 -145l-142 160v670l142 160h149l-161 -182v-626l161 -182h-149z" />
    <glyph glyph-name="uni3015" unicode="&#x3015;" horiz-adv-x="352" 
d="M149 846l142 -160v-670l-142 -160h-149l161 182v626l-161 182h149z" />
    <glyph glyph-name="uni300E" unicode="&#x300e;" horiz-adv-x="470" 
d="M68 297v548h370v-201h-137v-347h-233zM153 370h63v347h137v55h-200v-402z" />
    <glyph glyph-name="uni300F" unicode="&#x300f;" horiz-adv-x="474" 
d="M402 403v-548h-370v201h137v347h233zM317 330h-63v-347h-137v-55h200v402z" />
    <glyph glyph-name="parenleft.case" horiz-adv-x="378" 
d="M328 -10c-158 7 -280 169 -280 359s122 354 280 361v-125c-79 -25 -145 -96 -145 -235s66 -211 145 -235v-125z" />
    <glyph glyph-name="parenright.case" horiz-adv-x="378" 
d="M50 710c158 -7 280 -169 280 -359s-122 -354 -280 -361v125c79 25 145 96 145 235s-66 211 -145 235v125z" />
    <glyph glyph-name="braceleft.case" horiz-adv-x="394" 
d="M248 0c-90 0 -134 50 -134 155v48c0 50 -11 65 -51 65h-15v164h15c40 0 51 15 51 65v48c0 105 44 155 134 155h95v-120h-40c-50 0 -59 -10 -59 -65v-70c0 -66 -36 -83 -81 -83v-24c45 0 81 -17 81 -83v-70c0 -55 9 -65 59 -65h40v-120h-95z" />
    <glyph glyph-name="braceright.case" horiz-adv-x="394" 
d="M146 701c90 0 134 -50 134 -155v-48c0 -50 11 -65 51 -65h15v-164h-15c-40 0 -51 -15 -51 -65v-48c0 -105 -44 -155 -134 -155h-95v120h40c50 0 59 10 59 65v70c0 66 36 83 81 83v24c-45 0 -81 17 -81 83v70c0 55 -9 65 -59 65h-40v120h95z" />
    <glyph glyph-name="bracketleft.case" horiz-adv-x="360" 
d="M85 0v700h220v-120h-85v-460h85v-120h-220z" />
    <glyph glyph-name="bracketright.case" horiz-adv-x="360" 
d="M275 700v-700h-220v120h85v460h-85v120h220z" />
    <glyph glyph-name="edgeleft.case" horiz-adv-x="406" 
d="M242 0c-85 0 -154 58 -154 133c0 53 25 87 54 102c-61 9 -98 57 -98 117s37 100 99 108c-29 16 -55 54 -55 108c0 75 63 132 148 132h115v-120h-99c-20 0 -35 -10 -35 -32s15 -33 37 -33h47v-120h-73c-37 0 -55 -16 -55 -43s18 -47 55 -47h73v-120h-47
c-22 0 -37 -10 -37 -32s15 -33 37 -33h97v-120h-109z" />
    <glyph glyph-name="edgeright.case" horiz-adv-x="406" 
d="M164 700c85 0 154 -58 154 -133c0 -53 -25 -87 -54 -102c61 -9 98 -57 98 -117s-37 -100 -99 -108c29 -16 55 -54 55 -108c0 -75 -63 -132 -148 -132h-115v120h99c20 0 35 10 35 32s-15 33 -37 33h-47v120h73c37 0 55 16 55 43s-18 47 -55 47h-73v120h47
c22 0 37 10 37 32s-15 33 -37 33h-97v120h109z" />
    <glyph glyph-name="hyphen" unicode="-" horiz-adv-x="414" 
d="M62 250v105h290v-105h-290z" />
    <glyph glyph-name="uni00AD" unicode="&#xad;" horiz-adv-x="414" 
d="M62 250v105h290v-105h-290z" />
    <glyph glyph-name="endash" unicode="&#x2013;" horiz-adv-x="594" 
d="M62 250v105h470v-105h-470z" />
    <glyph glyph-name="emdash" unicode="&#x2014;" horiz-adv-x="914" 
d="M62 250v105h790v-105h-790z" />
    <glyph glyph-name="uni2015" unicode="&#x2015;" horiz-adv-x="914" 
d="M62 250v105h790v-105h-790z" />
    <glyph glyph-name="underscore" unicode="_" horiz-adv-x="530" 
d="M30 -105v105h470v-105h-470z" />
    <glyph glyph-name="hyphen.case" horiz-adv-x="422" 
d="M66 298v105h290v-105h-290z" />
    <glyph glyph-name="uni00AD.case" horiz-adv-x="422" 
d="M66 298v105h290v-105h-290z" />
    <glyph glyph-name="endash.case" horiz-adv-x="602" 
d="M66 298v105h470v-105h-470z" />
    <glyph glyph-name="emdash.case" horiz-adv-x="922" 
d="M66 298v105h790v-105h-790z" />
    <glyph glyph-name="uni2015.case" horiz-adv-x="922" 
d="M66 298v105h790v-105h-790z" />
    <glyph glyph-name="quotesinglbase" unicode="&#x201a;" horiz-adv-x="272" 
d="M31 -150v75h36c45 0 62 30 62 65v10h-65v145h145v-160c0 -70 -57 -135 -137 -135h-41z" />
    <glyph glyph-name="quotedblbase" unicode="&#x201e;" horiz-adv-x="477" 
d="M31 -150v75h36c45 0 62 30 62 65v10h-65v145h145v-160c0 -70 -57 -135 -137 -135h-41zM236 -150v75h36c45 0 62 30 62 65v10h-65v145h145v-160c0 -70 -57 -135 -137 -135h-41z" />
    <glyph glyph-name="quotedblleft" unicode="&#x201c;" horiz-adv-x="487" 
d="M237 700v-75h-36c-45 0 -62 -30 -62 -65v-10h65v-145h-145v160c0 70 57 135 137 135h41zM442 700v-75h-36c-45 0 -62 -30 -62 -65v-10h65v-145h-145v160c0 70 57 135 137 135h41z" />
    <glyph glyph-name="quotedblright" unicode="&#x201d;" horiz-adv-x="485" 
d="M51 405v75h36c45 0 62 30 62 65v10h-65v145h145v-160c0 -70 -57 -135 -137 -135h-41zM256 405v75h36c45 0 62 30 62 65v10h-65v145h145v-160c0 -70 -57 -135 -137 -135h-41z" />
    <glyph glyph-name="quoteleft" unicode="&#x2018;" horiz-adv-x="282" 
d="M237 700v-75h-36c-45 0 -62 -30 -62 -65v-10h65v-145h-145v160c0 70 57 135 137 135h41z" />
    <glyph glyph-name="quoteright" unicode="&#x2019;" horiz-adv-x="280" 
d="M51 405v75h36c45 0 62 30 62 65v10h-65v145h145v-160c0 -70 -57 -135 -137 -135h-41z" />
    <glyph glyph-name="guillemotleft" unicode="&#xab;" horiz-adv-x="601" 
d="M327 500l-145 -215l145 -215h-150l-145 215l145 215h150zM566 500l-145 -215l145 -215h-150l-145 215l145 215h150z" />
    <glyph glyph-name="guillemotright" unicode="&#xbb;" horiz-adv-x="601" 
d="M185 500l145 -215l-145 -215h-150l145 215l-145 215h150zM424 500l145 -215l-145 -215h-150l145 215l-145 215h150z" />
    <glyph glyph-name="guilsinglleft" unicode="&#x2039;" horiz-adv-x="362" 
d="M327 500l-145 -215l145 -215h-150l-145 215l145 215h150z" />
    <glyph glyph-name="guilsinglright" unicode="&#x203a;" horiz-adv-x="362" 
d="M185 500l145 -215l-145 -215h-150l145 215l-145 215h150z" />
    <glyph glyph-name="guillemotleft.case" horiz-adv-x="635" 
d="M337 565l-145 -215l145 -215h-150l-145 215l145 215h150zM576 565l-145 -215l145 -215h-150l-145 215l145 215h150z" />
    <glyph glyph-name="guillemotright.case" horiz-adv-x="635" 
d="M209 565l145 -215l-145 -215h-150l145 215l-145 215h150zM448 565l145 -215l-145 -215h-150l145 215l-145 215h150z" />
    <glyph glyph-name="guilsinglleft.case" horiz-adv-x="396" 
d="M337 565l-145 -215l145 -215h-150l-145 215l145 215h150z" />
    <glyph glyph-name="guilsinglright.case" horiz-adv-x="396" 
d="M209 565l145 -215l-145 -215h-150l145 215l-145 215h150z" />
    <glyph glyph-name="quotedbl" unicode="&#x22;" horiz-adv-x="388" 
d="M84 460l-32 135v105h115v-105l-32 -135h-51zM253 460l-32 135v105h115v-105l-32 -135h-51z" />
    <glyph glyph-name="quotesingle" unicode="'" horiz-adv-x="219" 
d="M84 460l-32 135v105h115v-105l-32 -135h-51z" />
    <glyph glyph-name="anoteleia" unicode="&#x387;" horiz-adv-x="254" 
d="M62 290v131h130v-131h-130z" />
    <glyph glyph-name="uni037E" unicode="&#x37e;" horiz-adv-x="290" 
d="M76 355v145h145v-145h-145zM43 -150v75h36c45 0 62 30 62 65v10h-65v145h145v-160c0 -70 -57 -135 -137 -135h-41z" />
    <glyph glyph-name="uni200A" unicode="&#x200a;" horiz-adv-x="75" 
 />
    <glyph glyph-name="uni2009" unicode="&#x2009;" horiz-adv-x="125" 
 />
    <glyph glyph-name="uni00A0" unicode="&#xa0;" horiz-adv-x="234" 
 />
    <glyph glyph-name="uni2002" unicode="&#x2002;" horiz-adv-x="500" 
 />
    <glyph glyph-name="uni2003" unicode="&#x2003;" horiz-adv-x="1000" 
 />
    <glyph glyph-name="space.tf" 
 />
    <glyph glyph-name="cent" unicode="&#xa2;" horiz-adv-x="542" 
d="M308 104c37 6 62 35 68 71h129c-11 -114 -95 -185 -215 -185h-1l-19 -110h-103l22 128c-96 37 -149 130 -149 242c0 142 84 252 233 260l19 110h103l-21 -123c74 -26 123 -87 131 -172h-129c-3 18 -11 35 -23 47zM170 250c0 -45 13 -87 40 -115l44 257
c-56 -17 -84 -78 -84 -142z" />
    <glyph glyph-name="currency" unicode="&#xa4;" horiz-adv-x="741" 
d="M638 305c0 -49 -13 -95 -35 -134l90 -86l-90 -90l-89 85c-42 -25 -92 -40 -146 -40c-53 0 -101 14 -143 39l-87 -84l-90 90l87 83c-23 40 -37 86 -37 137c0 49 12 93 34 131l-84 84l90 90l86 -83c42 24 91 38 144 38c54 0 105 -14 147 -40l88 85l90 -90l-88 -88
c21 -37 33 -80 33 -127zM372 155c79 0 133 61 133 150c0 86 -54 145 -133 145h-8c-79 0 -133 -59 -133 -145c0 -89 54 -150 133 -150h8z" />
    <glyph glyph-name="dollar" unicode="$" horiz-adv-x="632" 
d="M390 404c122 -25 190 -86 190 -199c0 -120 -89 -214 -260 -215l-18 -110h-115l21 124c-115 32 -172 118 -176 231h132c3 -45 24 -85 65 -108l28 172l-13 3c-123 26 -177 96 -177 198c0 105 87 210 257 210h3l18 110h115l-21 -128c97 -34 152 -113 152 -212h-132
c-3 39 -18 68 -42 87zM199 505c0 -46 24 -67 80 -79l28 169c-67 -5 -108 -45 -108 -90zM340 105c70 3 108 43 108 90c0 42 -17 68 -79 81z" />
    <glyph glyph-name="Euro" unicode="&#x20ac;" horiz-adv-x="703" 
d="M407 105c62 0 106 47 117 115h133c-17 -140 -119 -230 -254 -230c-117 0 -201 66 -244 175l-114 -26v110l88 20c-2 19 -4 40 -5 61l-83 -18v110l90 20c27 163 125 268 268 268c134 0 234 -91 254 -230h-133c-11 68 -55 115 -117 115h-8c-62 0 -105 -45 -125 -122l172 38
v-110l-186 -41v-10c0 -18 1 -36 2 -53l142 32v-110l-118 -26c23 -56 61 -88 113 -88h8z" />
    <glyph glyph-name="florin" unicode="&#x192;" horiz-adv-x="451" 
d="M374 585c-54 0 -69 -20 -77 -70l-7 -47h116v-112h-133l-56 -366c-21 -135 -74 -190 -195 -190h-73v115h60c56 0 75 21 82 70l57 371h-98v112h115l6 42c21 135 70 190 189 190h74v-115h-60z" />
    </font>
</defs>
</svg>
