<svg xmlns="http://www.w3.org/2000/svg" xmlns:xlink="http://www.w3.org/1999/xlink" width="68.279" height="68.279" viewBox="0 0 68.279 68.279"><defs><style>.a{fill:#fff;}.b{fill:none;stroke:#dcdcdc;stroke-linecap:round;stroke-linejoin:round;stroke-width:2px;}.c{filter:url(#a);}</style><filter id="a" x="0" y="0" width="68.279" height="68.279" filterUnits="userSpaceOnUse"><feOffset input="SourceAlpha"/><feGaussianBlur stdDeviation="3" result="b"/><feFlood flood-opacity="0.349"/><feComposite operator="in" in2="b"/><feComposite in="SourceGraphic"/></filter></defs><g transform="translate(9 9)"><g transform="translate(50.279 50.279) rotate(180)"><g class="c" transform="matrix(-1, 0, 0, -1, 59.28, 59.28)"><path class="a" d="M25.139,0A25.139,25.139,0,1,1,0,25.139,25.139,25.139,0,0,1,25.139,0Z" transform="translate(59.28 59.28) rotate(180)"/></g><g transform="translate(34.27 37.72) rotate(180)"><g transform="translate(0)"><rect class="b" width="18.262" height="15.262" rx="4" transform="translate(0 6.043)"/><path class="b" d="M0,6.043v-1.5A4.544,4.544,0,0,1,4.544,0h0A4.544,4.544,0,0,1,9.087,4.543v1.5" transform="translate(4.587)"/></g><line class="b" y2="3.425" transform="translate(9.131 11.819)"/></g></g></g></svg>