<?xml version="1.0" encoding="utf-8"?>
<!-- Generator: Adobe Illustrator 21.0.2, SVG Export Plug-In . SVG Version: 6.00 Build 0)  -->
<svg version="1.1" id="Layer_1" xmlns="http://www.w3.org/2000/svg" xmlns:xlink="http://www.w3.org/1999/xlink" x="0px" y="0px"
	 viewBox="0 0 258 258" style="enable-background:new 0 0 258 258;" xml:space="preserve">
<style type="text/css">
	.st0{opacity:8.000000e-02;fill:#FFFFFF;stroke:#000000;stroke-miterlimit:10;}
	.st1{fill:none;stroke:#656635;stroke-width:2;stroke-linecap:round;stroke-linejoin:round;}
</style>
<g transform="translate(61.437 61.437) rotate(180)">
	<g transform="matrix(-1, 0, 0, -1, 300.19, 84.45)">
		<path class="st0" d="M368,275.5c-68,0-123.1-55.1-123.1-123.1S300,29.4,368,29.4S491,84.5,491,152.5c0,0,0,0,0,0
			C491,220.5,435.9,275.5,368,275.5z"/>
	</g>
	<g transform="translate(37.164 40.378) rotate(180)">
		<path class="st1" d="M76.7,76h58.1c10.1,0,18.3,8.2,18.3,18.3V130c0,10.1-8.2,18.3-18.3,18.3H76.7c-10.1,0-18.3-8.2-18.3-18.3
			V94.2C58.4,84.1,66.6,76,76.7,76z"/>
		<path class="st1" d="M82.2,76l-0.3-0.6c-3.5-11.2,2.6-23.1,13.8-26.7c0.5-0.2,1-0.3,1.5-0.4l0,0c9.5-2.9,19.9,0.2,26.2,7.9"/>
		<line class="st1" x1="96.9" y1="112.1" x2="114.6" y2="112.1"/>
	</g>
</g>
</svg>
