<svg xmlns="http://www.w3.org/2000/svg" width="19.245" height="28" viewBox="0 0 19.245 28">
  <g id="Group_3657" data-name="Group 3657" transform="translate(-1565.635 -269.125)">
    <path id="Path_1679" data-name="Path 1679" d="M1579.073,289.122l.637,0c1.24.077,1.254.072.865-1.062a5.889,5.889,0,0,0-.645-1.66l-.674-1.933a.426.426,0,0,0-.172-.438,2.382,2.382,0,0,0-.392-1.1,10.7,10.7,0,0,0-.915-2.56c-.01-3.326-.026-6.653-.023-9.979,0-.439-.105-1.115.5-1.131.836-.022,1.813-.472,2.5.365.514.623.178,1.123-.4,1.509-.635-.127-.886.078-.875.776.038,2.4.011,4.8.016,7.2a2.233,2.233,0,0,0,.083.741q2.273,6.308,4.568,12.608a2.787,2.787,0,0,0,.425,1.289,3.3,3.3,0,0,1,.22,1.982l-.771,1.039-.656.221-2.145.126a1.529,1.529,0,0,0-.4-.115q-6.8.009-13.607.03l-1.064-.527a2.585,2.585,0,0,1-.247-2.721c.494-1.219.873-2.485,1.3-3.731a.944.944,0,0,0,.232-.646,49.435,49.435,0,0,0,2.345-6.46,28.221,28.221,0,0,1,1.085-2.8c.073-.161.208-.322.209-.484.017-2.688.016-5.376.021-8.065,0-.274-.064-.415-.392-.5-1.315-.347-1.45-.82-.606-1.9a7.06,7.06,0,0,1,2.482.188c.4.441.185,1.013.322,1.509q0,.213,0,.425c-.019,2.651-.051,5.3-.047,7.954a5.184,5.184,0,0,1-.348,1.881c-.911,2.409-1.787,4.831-2.7,7.238-.195.512-.248.792.451.783C1573.2,289.15,1576.134,289.141,1579.073,289.122Z" fill="#948b83"/>
    <circle id="Ellipse_191" data-name="Ellipse 191" cx="0.884" cy="0.884" r="0.884" transform="translate(1572.009 285.555)" fill="#948b83"/>
    <circle id="Ellipse_192" data-name="Ellipse 192" cx="0.686" cy="0.686" r="0.686" transform="translate(1575.777 286.439)" fill="#948b83"/>
    <circle id="Ellipse_193" data-name="Ellipse 193" cx="0.542" cy="0.542" r="0.542" transform="translate(1574.834 284.161)" fill="#948b83"/>
  </g>
</svg>
