<svg xmlns="http://www.w3.org/2000/svg" width="31.204" height="43" viewBox="0 0 31.204 43">
  <g id="Group_3649" data-name="Group 3649" transform="translate(-2180.657 -262.247)">
    <g id="Group_3648" data-name="Group 3648" transform="translate(2180.657 262.247)">
      <path id="Path_1674" data-name="Path 1674" d="M2207.723,268.505l1.722,1.054a3.9,3.9,0,0,1,.619,2.777,4.589,4.589,0,0,0,1.008,3.654,2.913,2.913,0,0,1,.083,3.894,5.478,5.478,0,0,0-1.044,4.509q-.161.732-.322,1.463a6.271,6.271,0,0,1-2.07,1.781,2.893,2.893,0,0,0-2.143,3.892c1.042,3.137,2.108,6.267,3.166,9.4a1.709,1.709,0,0,1-.456,2.111c-.742.589-1.369.187-2-.214-1.875-1.195-1.874-1.2-2.579.955-.537,1.638-1.6,1.917-2.908.766l-.14-.535a11.474,11.474,0,0,0-1.021-2.952l-.472-1.436-.431-1.215-.154-.555-.192-.407-.216-.8a12.96,12.96,0,0,1-.555-1.78c-.166-.988-.744-1.135-1.629-1.124-1.3.015-.935,1.1-1.271,1.734a16.819,16.819,0,0,0-1.384,4.129,30.771,30.771,0,0,0-1.481,4.074c-.605,1.68-1.436,1.929-2.944.873a.218.218,0,0,0-.114-.234c-.535-2.894-.535-2.894-2.891-1.323-.159.106-.312.221-.469.332l-1.108-.069-.746-.691q-.078-.3-.156-.607l.661-2.3.239-.814.187-.382.132-.57a45.031,45.031,0,0,0,1.937-5.593,2.252,2.252,0,0,1,.381-1.149c.423-.484.225-.952.015-1.459a4.006,4.006,0,0,0-2.686-2.379.337.337,0,0,0-.243-.107,3.881,3.881,0,0,1-1.741-2.542q.009-.558.018-1.117a2.792,2.792,0,0,0-.564-2.965,5.3,5.3,0,0,1-1.1-2.632c.017-.192.032-.384.049-.576.294-.546.558-1.11.89-1.632.485-.763,1.141-1.451.891-2.474q.043-1.458.087-2.916l1.26-1.421.749-.364a2.8,2.8,0,0,0,2.3-2.327c.156-1.836,1.629-2.012,2.969-2.356l1.163.076.55.1c1.472.232,2.305-.892,3.346-1.575a3.213,3.213,0,0,1,3.347.589,3.618,3.618,0,0,0,3.593.917,1.468,1.468,0,0,0,1.189.008l.867.195a5.245,5.245,0,0,1,1.775,2.422A2.835,2.835,0,0,0,2207.723,268.505Zm-22.113,32.706c.458-.273.917-.542,1.372-.819,1.348-.821,2.154-.525,2.631.961.2.62.414,1.234.7,2.078,1.149-3.362,2.207-6.488,3.29-9.6a1.215,1.215,0,0,0-.959-1.759c-1.276-.361-2.613.178-3.909-.215-.321-.1-.448.332-.535.593q-1.412,4.287-2.8,8.584c-.158.111-.268.312-.121.422C2185.467,301.591,2185.511,301.316,2185.61,301.211Zm22.939-28.31a2.3,2.3,0,0,0-1.739-3.045,4.129,4.129,0,0,1-2.546-2.656,2.093,2.093,0,0,0-2.548-1.6,5.005,5.005,0,0,1-4.09-1.159,2,2,0,0,0-2.792,0,5.217,5.217,0,0,1-4.243,1.135,1.842,1.842,0,0,0-2.248,1.357,4.6,4.6,0,0,1-2.955,3.018,1.915,1.915,0,0,0-1.432,2.349,5.011,5.011,0,0,1-1.12,4.232,2.081,2.081,0,0,0,.006,2.923,5.138,5.138,0,0,1,1.111,4.244,1.933,1.933,0,0,0,1.411,2.374,4.7,4.7,0,0,1,2.974,3.016,1.928,1.928,0,0,0,2.369,1.422,4.824,4.824,0,0,1,4.213,1.105,1.845,1.845,0,0,0,2.636.035,5.059,5.059,0,0,1,4.23-1.13,1.95,1.95,0,0,0,2.357-1.452,4.667,4.667,0,0,1,2.969-3.015,2.034,2.034,0,0,0,1.477-2.481,5.067,5.067,0,0,1,1.121-4.238,1.956,1.956,0,0,0-.069-2.77A4.694,4.694,0,0,1,2208.549,272.9Zm-1.309,28.406c-1.043-3.067-2.039-5.989-3.029-8.913a.605.605,0,0,0-.654-.451c-1.116.022-2.241-.035-3.347.078-1.355.139-1.686.752-1.242,2.063.793,2.343,1.58,4.689,2.408,7.02.231.65.219,1.436.872,1.933.683-.979.315-2.488,1.592-3.019C2205.212,299.447,2205.885,301.041,2207.24,301.306Z" transform="translate(-2180.657 -262.247)" fill="#948b83"/>
      <path id="Path_1675" data-name="Path 1675" d="M2214.42,285.814a10.615,10.615,0,0,1-10.7,10.64,10.764,10.764,0,0,1-10.594-10.675c.008-5.957,4.961-11,10.711-10.914A10.68,10.68,0,0,1,2214.42,285.814Zm-10.583-9.316a9.066,9.066,0,0,0-9.112,9.239,9.2,9.2,0,0,0,9.217,9.2,9.312,9.312,0,0,0,9-9.3A9.153,9.153,0,0,0,2203.837,276.5Z" transform="translate(-2188.234 -269.912)" fill="#948b83"/>
    </g>
  </g>
</svg>
